<svg width="244" height="102" viewBox="0 0 244 102" fill="none" xmlns="http://www.w3.org/2000/svg">
<g filter="url(#filter0_d)">
<path d="M215.33 5H28.4742C24.3463 5 21 8.34632 21 12.4742V57.3196C21 61.4475 24.3463 64.7938 28.4742 64.7938H215.33C219.458 64.7938 222.804 61.4475 222.804 57.3196V12.4742C222.804 8.34632 219.458 5 215.33 5Z" fill="white"/>
</g>
<path d="M91.8829 20.3127C91.9101 20.8612 91.8253 21.4095 91.6338 21.9243C91.4423 22.439 91.1481 22.9093 90.769 23.3067C90.3441 23.7473 89.831 24.0933 89.2632 24.322C88.6955 24.5506 88.0858 24.6569 87.4742 24.6337C86.8586 24.6392 86.2482 24.5216 85.6787 24.2878C85.1093 24.054 84.5923 23.7088 84.1582 23.2723C83.7241 22.8359 83.3816 22.3171 83.1509 21.7464C82.9201 21.1757 82.8058 20.5647 82.8146 19.9491C82.8059 19.3336 82.9202 18.7225 83.151 18.1518C83.3817 17.5811 83.7242 17.0623 84.1583 16.6258C84.5924 16.1893 85.1093 15.844 85.6788 15.6101C86.2482 15.3762 86.8586 15.2585 87.4742 15.2638C88.1071 15.2619 88.7336 15.3899 89.3151 15.6398C89.8551 15.8587 90.3358 16.2021 90.718 16.6419L89.9296 17.4309C89.6292 17.0773 89.2515 16.7975 88.8258 16.613C88.4001 16.4284 87.9376 16.3442 87.4742 16.3667C87.0077 16.3643 86.5455 16.4561 86.1152 16.6365C85.685 16.817 85.2957 17.0824 84.9705 17.4169C84.6453 17.7514 84.3909 18.148 84.2226 18.5832C84.0544 19.0183 83.9756 19.4829 83.9912 19.9491C83.9801 20.6475 84.1766 21.3335 84.5558 21.92C84.9351 22.5066 85.4799 22.9673 86.1214 23.2438C86.7628 23.5203 87.4719 23.6 88.1587 23.473C88.8455 23.3459 89.4792 23.0178 89.9792 22.5301C90.4395 22.0342 90.7063 21.3894 90.731 20.7133H87.4742V19.636H91.8201C91.8612 19.8592 91.8822 20.0857 91.8829 20.3127Z" fill="#122052"/>
<path d="M98.7734 16.5665H94.6889V19.4101H98.372V20.4876H94.6889V23.3313H98.7734V24.4334H93.5371V15.4644H98.7734V16.5665Z" fill="#122052"/>
<path d="M103.633 24.4334H102.48V16.5665H99.9749V15.4644H106.138V16.5665H103.633V24.4334Z" fill="#122052"/>
<path d="M110.598 24.4334V15.4644H111.75V24.4334H110.598Z" fill="#122052"/>
<path d="M116.862 24.4334H115.709V16.5665H113.204V15.4644H119.367V16.5665H116.862V24.4334Z" fill="#122052"/>
<path d="M131.034 23.2744C130.161 24.1448 128.979 24.6335 127.746 24.6335C126.513 24.6335 125.331 24.1448 124.458 23.2744C124.026 22.837 123.686 22.3172 123.459 21.7459C123.233 21.1746 123.123 20.5635 123.137 19.949C123.123 19.3344 123.233 18.7233 123.459 18.1521C123.686 17.5808 124.026 17.061 124.458 16.6235C124.889 16.1919 125.402 15.8496 125.966 15.6163C126.53 15.383 127.134 15.2631 127.744 15.2637C128.355 15.2642 128.959 15.3851 129.522 15.6195C130.086 15.8538 130.598 16.197 131.028 16.6294C131.461 17.0656 131.801 17.5843 132.029 18.1545C132.257 18.7248 132.368 19.335 132.355 19.949C132.369 20.5635 132.259 21.1744 132.032 21.7457C131.805 22.3169 131.466 22.8367 131.034 23.2744ZM125.309 22.5234C125.955 23.1689 126.832 23.5314 127.745 23.5314C128.659 23.5314 129.535 23.1689 130.182 22.5234C130.513 22.1839 130.773 21.7808 130.944 21.3383C131.115 20.8958 131.195 20.4232 131.179 19.949C131.195 19.4747 131.115 19.0021 130.944 18.5596C130.773 18.1171 130.513 17.714 130.182 17.3745C129.535 16.7291 128.659 16.3666 127.745 16.3666C126.832 16.3666 125.955 16.7291 125.309 17.3745C124.978 17.7143 124.719 18.1175 124.548 18.5599C124.377 19.0024 124.297 19.4749 124.313 19.949C124.297 20.4231 124.377 20.8956 124.548 21.338C124.719 21.7804 124.978 22.1837 125.309 22.5234Z" fill="#122052"/>
<path d="M133.973 24.4334V15.4644H135.376L139.735 22.4415H139.784L139.735 20.7131V15.4644H140.888V24.4334H139.685L135.125 17.1183H135.075L135.125 18.8467V24.4334H133.973Z" fill="#122052"/>
<path d="M122.853 37.5158C121.596 37.5205 120.369 37.8975 119.327 38.599C118.285 39.3005 117.473 40.2951 116.996 41.4573C116.518 42.6194 116.396 43.897 116.644 45.1287C116.892 46.3604 117.499 47.491 118.39 48.3778C119.28 49.2645 120.413 49.8677 121.645 50.111C122.878 50.3544 124.155 50.2271 125.315 49.7451C126.476 49.2632 127.467 48.4483 128.165 47.4032C128.862 46.3582 129.234 45.1299 129.234 43.8735C129.247 43.0331 129.09 42.1989 128.773 41.4203C128.457 40.6418 127.987 39.9349 127.391 39.3418C126.796 38.7486 126.087 38.2813 125.307 37.9676C124.528 37.6539 123.693 37.5002 122.853 37.5158ZM122.853 47.7268C122.079 47.7819 121.306 47.6029 120.636 47.2129C119.965 46.8229 119.428 46.2401 119.093 45.5402C118.758 44.8404 118.642 44.056 118.759 43.2892C118.877 42.5224 119.222 41.8087 119.751 41.241C120.279 40.6733 120.967 40.2779 121.723 40.1063C122.48 39.9347 123.27 39.9949 123.992 40.2789C124.714 40.563 125.334 41.0578 125.77 41.6989C126.207 42.34 126.441 43.0978 126.441 43.8735C126.464 44.3636 126.389 44.8534 126.221 45.3141C126.052 45.7748 125.793 46.1972 125.459 46.5562C125.124 46.9153 124.721 47.2038 124.274 47.4048C123.826 47.6059 123.343 47.7153 122.853 47.7268ZM108.93 37.5158C107.674 37.5205 106.447 37.8974 105.405 38.5989C104.362 39.3004 103.551 40.295 103.074 41.4572C102.596 42.6193 102.474 43.8969 102.722 45.1286C102.97 46.3604 103.577 47.491 104.467 48.3777C105.357 49.2645 106.49 49.8676 107.723 50.111C108.956 50.3544 110.233 50.2271 111.393 49.7451C112.553 49.2632 113.545 48.4483 114.242 47.4033C114.94 46.3582 115.312 45.13 115.312 43.8735C115.325 43.0331 115.168 42.1989 114.851 41.4204C114.534 40.6419 114.064 39.935 113.469 39.3418C112.874 38.7487 112.165 38.2813 111.385 37.9676C110.606 37.6539 109.771 37.5003 108.93 37.5158ZM108.93 47.7268C108.157 47.7819 107.384 47.6029 106.714 47.2129C106.043 46.8229 105.505 46.2401 105.171 45.5402C104.836 44.8404 104.72 44.056 104.837 43.2892C104.955 42.5224 105.3 41.8087 105.829 41.241C106.357 40.6733 107.045 40.2779 107.801 40.1063C108.558 39.9347 109.348 39.9949 110.07 40.2789C110.792 40.563 111.412 41.0578 111.848 41.6989C112.285 42.34 112.519 43.0978 112.519 43.8735C112.542 44.3636 112.467 44.8534 112.299 45.3141C112.13 45.7749 111.871 46.1972 111.537 46.5562C111.202 46.9153 110.799 47.2038 110.352 47.4049C109.904 47.6059 109.421 47.7153 108.93 47.7268ZM92.3693 39.4666V42.1637H98.8236C98.7305 43.4288 98.2128 44.6254 97.3545 45.5594C96.7077 46.2187 95.9299 46.735 95.0712 47.0751C94.2126 47.4153 93.2921 47.5716 92.3693 47.5341C90.4828 47.5085 88.6822 46.7412 87.3572 45.3981C86.0321 44.055 85.2892 42.2442 85.2892 40.3575C85.2892 38.4708 86.0321 36.66 87.3572 35.3169C88.6822 33.9738 90.4828 33.2064 92.3693 33.1809C94.1814 33.1572 95.9296 33.8495 97.2342 35.1074L99.1367 33.2049C98.2466 32.3238 97.1895 31.6291 96.0274 31.1618C94.8654 30.6945 93.6217 30.4639 92.3693 30.4836C91.0606 30.4645 89.7611 30.7058 88.5464 31.1935C87.3318 31.6812 86.2262 32.4054 85.294 33.3242C84.3617 34.243 83.6214 35.3379 83.1161 36.5453C82.6109 37.7528 82.3506 39.0486 82.3506 40.3575C82.3506 41.6664 82.6109 42.9622 83.1161 44.1696C83.6214 45.3771 84.3617 46.472 85.294 47.3908C86.2262 48.3095 87.3318 49.0338 88.5464 49.5215C89.7611 50.0091 91.0606 50.2504 92.3693 50.2314C93.6481 50.2844 94.9236 50.0649 96.111 49.5874C97.2985 49.1099 98.3709 48.3854 99.257 47.4619C100.83 45.7447 101.669 43.4799 101.593 41.1523C101.599 40.587 101.551 40.0225 101.448 39.4666H92.3693ZM160.098 41.5616C159.716 40.41 158.989 39.404 158.015 38.6801C157.041 37.9563 155.868 37.5498 154.655 37.5158C153.839 37.5208 153.031 37.6915 152.282 38.0174C151.533 38.3434 150.858 38.8178 150.297 39.4121C149.737 40.0064 149.303 40.7081 149.021 41.4749C148.74 42.2418 148.616 43.0577 148.659 43.8735C148.641 44.7094 148.791 45.5404 149.101 46.3169C149.411 47.0934 149.874 47.7995 150.463 48.393C151.052 48.9864 151.755 49.4551 152.529 49.771C153.303 50.0868 154.133 50.2434 154.969 50.2314C156.016 50.2372 157.048 49.9828 157.973 49.491C158.898 48.9992 159.686 48.2854 160.267 47.4137L158.099 45.9688C157.775 46.5081 157.315 46.9536 156.766 47.2618C156.218 47.57 155.598 47.7302 154.969 47.7268C154.321 47.7515 153.681 47.5811 153.131 47.2376C152.581 46.8941 152.148 46.3933 151.886 45.8002L160.387 42.2842L160.098 41.5616ZM151.429 43.681C151.399 43.2182 151.461 42.7542 151.613 42.3159C151.764 41.8777 152.002 41.4741 152.311 41.1287C152.621 40.7834 152.996 40.5032 153.415 40.3047C153.834 40.1061 154.289 39.9931 154.752 39.9723C155.234 39.9405 155.715 40.0515 156.135 40.2913C156.555 40.5311 156.894 40.8892 157.112 41.3209L151.429 43.681ZM144.517 49.846H147.31V31.1581H144.517V49.846ZM139.941 38.9366H139.845C139.42 38.4752 138.902 38.1097 138.324 37.8647C137.747 37.6197 137.124 37.5007 136.497 37.5158C134.858 37.5855 133.309 38.2859 132.173 39.4706C131.038 40.6553 130.404 42.2327 130.404 43.8736C130.404 45.5145 131.038 47.0919 132.173 48.2766C133.309 49.4613 134.858 50.1616 136.497 50.2314C137.127 50.2481 137.752 50.1275 138.33 49.878C138.908 49.6285 139.425 49.256 139.845 48.7865H139.941V49.7016C139.941 52.134 138.641 53.4344 136.545 53.4344C135.847 53.4177 135.17 53.1934 134.599 52.7903C134.029 52.3871 133.591 51.8233 133.342 51.1706L130.91 52.1822C131.368 53.2983 132.15 54.2522 133.154 54.9215C134.158 55.5908 135.339 55.9451 136.545 55.939C139.821 55.939 142.59 54.0124 142.59 49.3162V37.901H139.941V38.9366ZM136.738 47.7268C135.773 47.6449 134.873 47.2035 134.217 46.4899C133.562 45.7763 133.198 44.8426 133.198 43.8736C133.198 42.9045 133.562 41.9708 134.217 41.2573C134.873 40.5437 135.773 40.1023 136.738 40.0204C137.219 40.0438 137.689 40.1638 138.122 40.373C138.555 40.5823 138.942 40.8766 139.259 41.2384C139.576 41.6002 139.816 42.0222 139.967 42.479C140.117 42.9359 140.174 43.4183 140.134 43.8976C140.171 44.3739 140.112 44.8529 139.961 45.3059C139.809 45.7589 139.567 46.1766 139.25 46.5341C138.933 46.8916 138.547 47.1815 138.116 47.3864C137.684 47.5913 137.216 47.7071 136.738 47.7268ZM173.184 31.1584H166.5V49.846H169.289V42.7658H173.184C173.973 42.8091 174.762 42.691 175.504 42.4189C176.246 42.1468 176.924 41.7263 177.498 41.1831C178.072 40.6399 178.529 39.9855 178.841 39.2597C179.153 38.534 179.315 37.7522 179.315 36.9621C179.315 36.172 179.153 35.3902 178.841 34.6644C178.529 33.9387 178.072 33.2842 177.498 32.7411C176.924 32.1979 176.246 31.7774 175.504 31.5053C174.762 31.2331 173.973 31.1151 173.184 31.1584ZM173.256 40.1651H169.289V33.7592H173.256C173.682 33.7504 174.106 33.8267 174.502 33.9837C174.899 34.1407 175.26 34.3752 175.564 34.6735C175.869 34.9718 176.111 35.3279 176.276 35.7209C176.441 36.1139 176.526 36.5359 176.526 36.9622C176.526 37.3885 176.441 37.8105 176.276 38.2034C176.111 38.5964 175.869 38.9525 175.564 39.2508C175.26 39.5491 174.899 39.7836 174.502 39.9406C174.106 40.0976 173.682 40.1739 173.256 40.1651ZM190.494 37.4814C189.476 37.422 188.463 37.661 187.579 38.1693C186.695 38.6775 185.978 39.4328 185.517 40.3424L187.994 41.3762C188.239 40.9247 188.611 40.5546 189.064 40.3112C189.516 40.0678 190.03 39.9617 190.542 40.0057C191.25 39.9367 191.956 40.1509 192.506 40.6016C193.055 41.0523 193.404 41.7026 193.475 42.4099V42.6023C192.58 42.1264 191.58 41.8787 190.566 41.881C187.898 41.881 185.181 43.3476 185.181 46.0884C185.207 46.666 185.348 47.2326 185.598 47.7544C185.847 48.2762 186.198 48.7427 186.631 49.1261C187.063 49.5095 187.569 49.8021 188.117 49.9865C188.665 50.1709 189.244 50.2434 189.821 50.1995C190.523 50.2409 191.224 50.0932 191.849 49.7718C192.475 49.4505 193.004 48.9672 193.379 48.3724H193.475V49.8149H196.168V42.6504C196.168 39.3326 193.692 37.4814 190.494 37.4814ZM190.157 47.7232C189.244 47.7232 187.97 47.2665 187.97 46.1364C187.97 44.694 189.556 44.1409 190.927 44.1409C191.817 44.1172 192.697 44.3331 193.475 44.7661C193.373 45.5766 192.98 46.3227 192.37 46.8663C191.761 47.4099 190.974 47.7143 190.157 47.7232ZM205.977 37.8901L202.78 45.9922H202.683L199.366 37.8901H196.36L201.337 49.2138L198.5 55.5128H201.409L209.078 37.8901H205.977ZM180.853 49.846H183.642V31.1584H180.853V49.846Z" fill="#122052"/>
<g clip-path="url(#clip0)">
<path d="M55.0646 33.7392L61.0118 27.9331L38.6562 15.3114C38.2798 15.097 37.8543 14.9784 37.4189 14.9666C36.9834 14.9547 36.5519 15.05 36.1638 15.2437L55.0646 33.7392Z" fill="#122052"/>
<path d="M35.5198 52.8645L54.559 34.2334L35.5613 15.6431C35.289 15.8831 35.0717 16.1769 34.9237 16.505C34.7758 16.8331 34.7005 17.1882 34.7028 17.5468V51.0014C34.701 51.3502 34.7726 51.6956 34.9131 52.0161C35.0537 52.3366 35.2602 52.6254 35.5198 52.8645Z" fill="#122052"/>
<path d="M55.0644 34.7351L36.0875 53.2848C36.4799 53.4901 36.9194 53.5934 37.3642 53.5851C37.8091 53.5768 38.2443 53.4571 38.6284 53.2374L61.0116 40.5886L55.0644 34.7351Z" fill="#122052"/>
<path d="M68.2672 32.0386L61.6485 28.2988L55.5836 34.2337L61.7039 40.2227L68.2741 36.51C68.6749 36.2829 69.0076 35.9566 69.2386 35.5638C69.4696 35.171 69.5908 34.7256 69.5901 34.2724C69.5894 33.8191 69.4668 33.3741 69.2346 32.982C69.0023 32.5899 68.6687 32.2645 68.2672 32.0386Z" fill="#122052"/>
</g>
<defs>
<filter id="filter0_d" x="0" y="0" width="243.804" height="101.794" filterUnits="userSpaceOnUse" color-interpolation-filters="sRGB">
<feFlood flood-opacity="0" result="BackgroundImageFix"/>
<feColorMatrix in="SourceAlpha" type="matrix" values="0 0 0 0 0 0 0 0 0 0 0 0 0 0 0 0 0 0 127 0" result="hardAlpha"/>
<feOffset dy="16"/>
<feGaussianBlur stdDeviation="10.5"/>
<feComposite in2="hardAlpha" operator="out"/>
<feColorMatrix type="matrix" values="0 0 0 0 0 0 0 0 0 0 0 0 0 0 0 0 0 0 0.09 0"/>
<feBlend mode="normal" in2="BackgroundImageFix" result="effect1_dropShadow"/>
<feBlend mode="normal" in="SourceGraphic" in2="effect1_dropShadow" result="shape"/>
</filter>
<clipPath id="clip0">
<rect width="34.8799" height="38.617" fill="white" transform="translate(34.7028 14.9656)"/>
</clipPath>
</defs>
</svg>
