<svg width="16" height="10" viewBox="0 0 16 10" fill="none" xmlns="http://www.w3.org/2000/svg">
<path d="M8.11789 0.49154C7.9229 0.596739 7.80133 0.796775 7.80133 1.01435V4.40222H1.11191C0.774137 4.40222 0.5 4.67 0.5 4.99994C0.5 5.32988 0.774137 5.59766 1.11191 5.59766H7.80133V8.98553C7.80133 9.2039 7.9229 9.40394 8.11789 9.50834C8.31289 9.61433 8.55113 9.60716 8.7396 9.4916L15.2144 5.50601C15.3923 5.39603 15.5 5.20555 15.5 4.99994C15.5 4.79432 15.3923 4.60385 15.2144 4.49387L8.7396 0.508276C8.64006 0.447707 8.52665 0.416626 8.41324 0.416626C8.31208 0.416626 8.21009 0.442129 8.11789 0.49154Z" fill="#53DD89"/>
</svg>
