<svg width="23" height="23" viewBox="0 0 23 23" fill="none" xmlns="http://www.w3.org/2000/svg">
<path fill-rule="evenodd" clip-rule="evenodd" d="M13.0737 14.517C14.1774 14.517 15.0757 15.4089 15.0757 16.5053V19.3249C15.0757 19.5605 15.2645 19.7493 15.5065 19.7548H17.2537C18.6305 19.7548 19.7498 18.6493 19.7498 17.2908V9.29383C19.7434 8.82633 19.5206 8.38633 19.1384 8.09392L13.0948 3.27408C12.2835 2.6315 11.1487 2.6315 10.3347 3.27592L4.33238 8.09208C3.93546 8.39367 3.71271 8.83367 3.70813 9.30942V17.2908C3.70813 18.6493 4.82738 19.7548 6.20421 19.7548H7.96788C8.2163 19.7548 8.41796 19.5578 8.41796 19.3158C8.41796 19.2626 8.42438 19.2094 8.43538 19.159V16.5053C8.43538 15.4153 9.32821 14.5243 10.4236 14.517H13.0737ZM17.2537 21.1298H15.49C14.4799 21.106 13.7007 20.3131 13.7007 19.3249V16.5053C13.7007 16.167 13.4193 15.892 13.0737 15.892H10.4282C10.09 15.8938 9.81038 16.1698 9.81038 16.5053V19.3158C9.81038 19.3845 9.80121 19.4505 9.78196 19.5128C9.68296 20.4203 8.90746 21.1298 7.96788 21.1298H6.20421C4.0693 21.1298 2.33313 19.4074 2.33313 17.2908V9.303C2.3423 8.39183 2.76213 7.55767 3.48721 7.00858L9.47763 2.20067C10.7967 1.15567 12.6346 1.15567 13.951 2.19883L19.9845 7.01133C20.693 7.55125 21.1129 8.38358 21.1248 9.28375V17.2908C21.1248 19.4074 19.3886 21.1298 17.2537 21.1298Z" fill="white"/>
</svg>
