<svg width="18" height="18" viewBox="0 0 18 18" fill="none" xmlns="http://www.w3.org/2000/svg">
<g clip-path="url(#clip0)">
<path d="M17.0594 17.8054C16.9836 17.8054 16.9077 17.7765 16.8499 17.7187C16.7342 17.6029 16.7342 17.4155 16.8499 17.2998L16.9811 17.1687H3.45201L3.58318 17.2997C3.69894 17.4155 3.69894 17.6029 3.58318 17.7186C3.46753 17.8343 3.27984 17.8343 3.16431 17.7186L2.53477 17.089C2.47599 17.0303 2.44708 16.953 2.44803 16.8759C2.44803 16.8747 2.44803 16.8734 2.44803 16.8722C2.44803 16.7703 2.49945 16.6805 2.57778 16.6272L3.17912 16.0259C3.29477 15.9102 3.48246 15.9102 3.59799 16.0259C3.71375 16.1417 3.71375 16.3291 3.59799 16.4448L3.46682 16.576H16.996L16.8649 16.4448C16.7491 16.329 16.7491 16.1416 16.8649 16.0259C16.9805 15.9102 17.1682 15.9102 17.2837 16.0259L17.9133 16.6555C17.9722 16.7142 18.0009 16.7915 18 16.8686C18 16.8699 18 16.8711 18 16.8723C18 16.9742 17.9486 17.064 17.8703 17.1173L17.2689 17.7186C17.2111 17.7765 17.1353 17.8054 17.0594 17.8054ZM0.933119 15.7466C0.831217 15.7466 0.741282 15.6951 0.688079 15.6168L0.0868549 15.0156C-0.028911 14.8998 -0.028911 14.7123 0.0868549 14.5967C0.202502 14.4809 0.390192 14.4809 0.505721 14.5967L0.636891 14.7279V1.19853L0.505721 1.3297C0.390074 1.44546 0.202384 1.44546 0.0868549 1.3297C-0.028911 1.21393 -0.028911 1.02648 0.0868549 0.910833L0.716399 0.281289C0.77517 0.222517 0.851953 0.192539 0.929446 0.194553C1.03443 0.197042 1.12436 0.24503 1.17828 0.32442L1.7795 0.925644C1.89527 1.04141 1.89527 1.22886 1.7795 1.34451C1.66385 1.46028 1.47616 1.46028 1.36064 1.34451L1.22947 1.21334V14.7427L1.36064 14.6115C1.47628 14.4957 1.66397 14.4957 1.7795 14.6115C1.89527 14.7273 1.89527 14.9147 1.7795 15.0304L1.14996 15.6599C1.09119 15.7187 1.01322 15.7483 0.936911 15.7466C0.935607 15.7466 0.934423 15.7466 0.933119 15.7466ZM17.7038 14.9086H3.38849C3.22486 14.9086 3.09227 14.776 3.09227 14.6123V0.4909C3.09227 0.327263 3.22486 0.194672 3.38849 0.194672H11.9428C12.1065 0.194672 12.2391 0.327263 12.2391 0.4909V6.24045H17.7037C17.8673 6.24045 17.9999 6.37304 17.9999 6.53668V14.6122C18 14.7758 17.8674 14.9086 17.7038 14.9086ZM12.2264 14.3161H17.4075V6.8329H12.2264V14.3161ZM6.55162 14.3161H11.6341V10.3481H6.55162V14.3161ZM3.68472 14.3161H5.95904V10.3481H3.68472V14.3161ZM6.25539 9.75561H11.6341V6.53668C11.6341 6.5067 11.6386 6.47779 11.6467 6.45042V3.35708H3.68472V9.75561H6.25539ZM7.95562 2.76463H11.6467V0.787128H7.95562V2.76463ZM3.68472 2.76463H7.36304V0.787128H3.68472V2.76463Z" fill="#FB6504"/>
</g>
<defs>
<clipPath id="clip0">
<rect width="18" height="18" fill="white"/>
</clipPath>
</defs>
</svg>
