<svg width="681" height="441" viewBox="0 0 681 441" fill="none" xmlns="http://www.w3.org/2000/svg">
<path d="M386.763 383.039C386.763 383.039 464.796 175.627 516.276 200.534C567.755 225.446 435.383 327.045 414.443 388.201L386.763 383.039Z" fill="#D5D6DA"/>
<path d="M413.064 355.005C413.064 355.005 549.987 159.794 608.275 203.89C666.563 247.987 483.866 311.658 446.035 369.918L413.064 355.005Z" fill="#EAEAEA"/>
<path d="M431.439 363.519C456.885 322.774 497.331 288.267 526.78 266.495C558.708 242.893 584.926 228.761 585.188 228.623L584.374 226.867C584.112 227.01 557.775 241.197 525.746 264.877C496.168 286.746 455.533 321.422 429.927 362.425L431.439 363.519Z" fill="white"/>
<path d="M640.961 331.159C616.104 340.018 624.448 381.002 594.686 376.644C569.511 372.943 567.208 370.746 559.471 379.329C556.819 382.271 554.616 385.64 552.833 389.263C550.695 393.603 546.383 400.135 539.078 402.397C494.425 416.23 425.017 350.936 468.525 305.548C471.665 302.27 476.547 300.588 481.981 299.02C511.449 290.538 522.257 304.275 542.089 263.534C561.931 222.785 599.384 273.625 619.294 269.391C639.2 265.162 656.27 256.634 674.203 277.758C692.146 298.905 665.823 322.319 640.961 331.159Z" fill="#D5D6DA"/>
<g opacity="0.5">
<g opacity="0.5">
<g opacity="0.5">
<path opacity="0.5" d="M488.256 356.591L487.148 355.17C487.727 354.646 546.82 302.348 678.456 283.854L678.681 285.693C547.537 304.118 488.835 356.067 488.256 356.591Z" fill="white"/>
</g>
</g>
<g opacity="0.5">
<g opacity="0.5">
<path opacity="0.5" d="M564.923 292.285C545.845 277.422 541.455 264.385 541.275 263.838L542.903 263.226C542.944 263.355 547.344 276.301 565.935 290.786L564.923 292.285Z" fill="#68A1BF"/>
</g>
</g>
<g opacity="0.5">
<g opacity="0.5">
<path opacity="0.5" d="M569.911 311.828C564.1 303.112 563.236 289.683 567.415 273.004C570.541 260.514 575.442 250.432 575.492 250.336L577.014 251.2C576.821 251.591 557.949 290.708 571.313 310.752L569.911 311.828Z" fill="#68A1BF"/>
</g>
</g>
</g>
<path d="M541.409 188.016C544.342 183.446 546.976 183.4 549.155 185.019C551.334 186.637 552.226 189.308 549.293 193.877C543.951 202.203 537.432 203.293 537.432 203.293C537.432 203.293 535.993 196.461 541.409 188.016Z" fill="#EAEAEA"/>
<path d="M249.974 281.546C249.974 281.546 252.489 184.623 228.036 184.876C203.584 185.129 239.718 250.225 238.154 278.415L249.974 281.546Z" fill="#D5D6DA"/>
<path d="M249.624 289.196C249.624 289.196 218.543 158.617 180.202 167.701C141.861 176.785 222.179 250.956 229.916 289.233L249.624 289.196Z" fill="#EAEAEA"/>
<path d="M238.6 289.324C233.704 262.785 219.954 235.988 209.28 218.183C197.708 198.879 187.162 185.694 187.057 185.566L187.815 184.858C187.921 184.991 198.508 198.231 210.121 217.599C220.841 235.487 234.656 262.412 239.584 289.118L238.6 289.324Z" fill="white"/>
<path d="M180.892 314.517C165.643 312.825 177.462 317.625 159.147 316.508C155.262 324.452 133.623 316.071 126.865 304.183C118.25 289.035 118.255 292.515 92.1517 295.112C73.4273 296.965 72.6274 279.27 65.7822 265.902C65.658 265.658 65.5293 265.414 65.4052 265.171C62.748 260.21 59.176 255.917 53.4203 253.563C47.3152 251.067 41.1504 247.536 35.836 243.339C35.3947 242.994 34.9579 242.64 34.5304 242.281C24.035 233.547 17.3829 222.228 22.2697 211.586C22.3846 211.333 22.5041 211.08 22.6328 210.832C23.5293 209.08 24.7522 207.343 26.3198 205.646C42.7042 187.961 57.282 196.093 74.4893 200.603C84.0009 203.09 98.7855 191.128 112.784 186.071C112.982 185.998 113.184 185.929 113.386 185.86C124.488 182.003 135.039 182.702 142.004 198.659C142.004 198.663 142.004 198.663 142.004 198.663C142.146 198.985 142.289 199.307 142.427 199.624C158.03 234.788 167.987 223.539 193.157 232.062C197.837 233.652 202.034 235.321 204.659 238.309C229.125 266.145 208.626 299.765 180.892 314.517Z" fill="#EAEAEA"/>
<path d="M185.654 281.992L186.67 280.801C186.183 280.319 136.515 232.301 22.3985 210.786L22.1411 212.381C135.825 233.813 185.167 281.514 185.654 281.992Z" fill="white"/>
<path d="M121.082 222.785C138.243 210.607 142.533 199.422 142.707 198.948L141.31 198.346C141.268 198.456 136.975 209.563 120.255 221.429L121.082 222.785Z" fill="white"/>
<path d="M116.044 239.62C121.418 232.26 122.645 220.587 119.593 205.872C117.308 194.852 113.391 185.865 113.354 185.777L111.998 186.467C112.15 186.816 127.224 221.691 114.867 238.622L116.044 239.62Z" fill="white"/>
<path d="M118.351 149.418C115.166 144.223 115.754 141.589 117.643 140.247C119.533 138.904 122.015 139.359 125.201 144.554C131.003 154.015 130.382 161.021 130.382 161.021C130.382 161.021 124.24 159.017 118.351 149.418Z" fill="#D5D6DA"/>
<path d="M112.435 167.995C106.766 166.782 105.438 164.478 105.879 162.088C106.32 159.697 108.366 158.116 114.035 159.334C124.364 161.545 128.553 166.952 128.553 166.952C128.553 166.952 122.916 170.243 112.435 167.995Z" fill="#D5D6DA"/>
<path d="M335.096 441C519.668 441 669.294 421.603 669.294 397.676C669.294 373.749 519.668 354.352 335.096 354.352C150.523 354.352 0.8974 373.749 0.8974 397.676C0.8974 421.603 150.523 441 335.096 441Z" fill="#EAEAEA"/>
<path d="M180.745 68.2681C180.745 68.2681 404.481 154.374 473.853 212.556C557.223 282.475 333.165 276.572 329.34 299.374C325.51 322.176 559.099 363.836 559.099 363.836C548.318 397.676 390.786 413.9 271.351 389.576C225.291 380.193 164.208 351.975 168.599 301.691C175.775 219.553 327.138 245.371 322.352 215.806C317.566 186.242 169.279 86.7167 169.279 86.7167L180.745 68.2681Z" fill="#386EE1"/>
<path d="M206.011 58.1451C188.67 45.604 125.017 31.8767 124.061 39.361C123.105 46.8452 155.947 117.27 164.595 115.086C173.247 112.902 178.23 78.9797 178.23 78.9797C178.23 78.9797 215.38 64.9168 206.011 58.1451Z" fill="#386EE1"/>
<path d="M534.067 310.458C535.106 311.727 536.641 314.738 537.657 316.03C538.099 316.591 539.464 318.586 539.014 319.137C538.623 319.616 536.848 318.595 536.057 317.993C536.517 322.838 535.202 330.125 533.566 320.048C533.561 320.048 533.557 320.048 533.552 320.052C533.63 321.087 534.076 326.852 532.766 326.419C531.612 326.042 531.138 321.928 530.991 320.227C530.978 320.227 530.964 320.227 530.945 320.227C530.959 321.969 530.89 326.18 529.897 325.436C528.656 324.498 528.035 320.006 528.035 320.006C528.035 320.006 528.711 325.767 527.153 324.875C526.275 324.374 526.206 321.031 526.187 318.954C526.183 318.517 526.183 318.135 526.178 317.85C526.173 317.611 526.192 317.4 526.233 317.207C526.408 313.727 527.056 311.524 527.056 311.524C527.056 311.524 527.392 308.789 530.173 308.532C531.952 308.362 533.616 309.906 534.067 310.458Z" fill="#FF7955"/>
<path d="M537.791 311.708C547.574 304.79 538.126 280.99 542.19 266.205C543.133 262.78 543.537 261.489 544.351 259.581C545.004 258.045 543.238 255.057 540.816 253.825C538.54 252.667 533.079 253.43 532.646 254.207C526.059 266.04 522.9 285.321 526.183 310.118C526.183 310.113 533.589 314.678 537.791 311.708Z" fill="white"/>
<path d="M553.384 399.064C553.384 399.064 553.302 402.632 551.058 403.639C548.815 404.645 542.319 405.556 544.746 407.85C546.139 409.164 552.704 408.314 554.561 408.314C556.414 408.314 558.156 409.183 559.535 407.85C561.052 406.379 559.535 399.064 559.535 399.064C559.535 399.064 557.936 399.961 556.497 399.919C554.419 399.86 553.384 399.064 553.384 399.064Z" fill="#131F2D"/>
<path d="M534.035 291.366C534.035 291.366 533.589 307.47 538.361 338.368C541.809 360.673 545.877 383.144 547.872 393.92C548.585 397.773 551.596 400.591 555.163 400.747L557.08 400.83C560.938 400.995 564.068 397.428 563.788 393.185L558.947 320.287L557.752 296.294L534.035 291.366Z" fill="#364154"/>
<path d="M581.367 398.549C581.367 398.549 582.655 401.836 581 403.749C579.34 405.661 573.764 409.367 576.858 410.383C578.632 410.967 584.291 407.28 585.978 406.457C587.67 405.634 589.587 405.657 590.332 403.827C591.15 401.818 586.971 395.823 586.971 395.823C586.971 395.823 585.854 397.35 584.53 397.952C582.613 398.816 581.367 398.549 581.367 398.549Z" fill="#131F2D"/>
<path d="M553.858 292.864C553.858 292.864 554.639 308.955 561.747 339.324C566.877 361.248 572.642 383.291 575.451 393.851C576.458 397.63 579.671 400.172 583.239 400.011L585.156 399.924C589.013 399.749 591.863 395.915 591.261 391.713L580.889 319.491L577.874 295.683L553.858 292.864Z" fill="#364154"/>
<path d="M581.34 309.019C581.294 310.964 570.38 311.736 556.883 311.281C543.385 310.826 532.6 308.817 532.646 306.877C532.692 304.932 543.555 303.792 557.053 304.247C570.55 304.693 581.386 307.074 581.34 309.019Z" fill="#131F2D"/>
<path d="M578.035 254.009C578.035 254.009 575.649 243.826 558.037 243.72C532.642 243.573 534.991 268.692 532.642 306.872C532.642 306.872 557.646 303.544 581.335 309.014C581.34 309.019 583.551 269.57 578.035 254.009Z" fill="white"/>
<path d="M584.535 252.547L573.033 259.397C573.033 259.397 547.849 261.861 541.165 260.675C534.481 259.489 532.646 254.202 532.646 254.202C532.646 254.202 539.767 246.272 551.867 244.153C553.003 243.95 554.184 243.803 555.407 243.72C557.462 243.578 559.517 243.605 561.526 243.854C576.867 245.711 584.535 252.547 584.535 252.547Z" fill="white"/>
<path d="M534.77 308.444C534.77 308.444 549.394 303.81 579.685 310.173L579.919 314.862L535.52 316.554L534.77 308.444Z" fill="#364154"/>
<path d="M585.689 309.175C584.632 296.625 577.06 263.139 576.058 261.342C575.249 259.893 576.697 256.717 578.982 255.2C581.124 253.779 583.896 251.963 584.54 252.547C593.591 260.762 600.4 291.849 597.945 308.486L585.689 309.175Z" fill="white"/>
<path d="M555.191 222.293C555.191 222.293 553.982 223.782 553.398 226.15C552.814 228.517 557.297 224.339 557.297 224.339L555.191 222.293Z" fill="#5C305D"/>
<path d="M563.756 244.166C561.935 246.584 558.662 246.244 556.101 245.026C554.042 244.047 554.336 244.065 554.621 243.711C555.32 242.829 555.895 242.617 555.931 241.601L555.982 240.272L555.987 240.107L556.051 238.374L556.166 235.386L556.465 227.524L558.74 235.427L559.126 236.774L560.455 241.394C560.892 242.879 563.742 244.162 563.756 244.166Z" fill="#FF7955"/>
<path d="M559.485 238.011C559.485 238.011 558.308 239.905 555.982 240.272L555.986 240.107L556.051 238.374C557.315 238.241 559.485 238.011 559.485 238.011Z" fill="#131F2D"/>
<path d="M564.32 233.391C566.271 229.23 565.16 224.594 561.838 223.036C558.517 221.479 554.242 223.589 552.291 227.75C550.34 231.91 551.45 236.546 554.772 238.104C558.094 239.662 562.369 237.552 564.32 233.391Z" fill="#FF7955"/>
<path d="M557.021 229.57C556.989 229.543 556.975 229.501 556.975 229.451C556.979 229.373 557.044 229.313 557.117 229.317C557.159 229.322 558.161 229.294 558.492 230.49C558.515 230.563 558.474 230.646 558.405 230.669C558.336 230.692 558.276 230.646 558.239 230.577C557.871 229.897 557.136 229.602 557.099 229.602C557.067 229.602 557.039 229.589 557.021 229.57Z" fill="#080435"/>
<path d="M553.826 227.842C553.798 227.828 553.78 227.791 553.78 227.75C553.78 227.676 553.826 227.603 553.886 227.584C553.922 227.575 554.745 227.23 555.113 228.205C555.136 228.265 555.113 228.352 555.058 228.393C555.003 228.439 554.947 228.412 554.915 228.361C554.557 227.865 553.922 227.837 553.895 227.846C553.867 227.855 553.844 227.851 553.826 227.842Z" fill="#080435"/>
<path d="M557.995 245.412C557.995 245.412 554.902 244.382 554.079 245.182C553.256 245.982 553.862 249.642 555.288 249.963C556.713 250.29 559.407 246.295 557.995 245.412Z" fill="#386EE1"/>
<path d="M556.179 244.548C556.179 244.548 560.216 243.012 561.006 241.472C561.793 239.937 565.976 243.486 565.902 244.548C565.829 245.61 558.299 251.49 557.807 250.75C557.315 250.005 555.196 245.555 556.179 244.548Z" fill="#364154"/>
<path d="M556.179 244.548C556.179 244.548 555.577 242.934 555.867 242.061C555.867 242.061 556.06 241.293 555.444 241.344C554.828 241.399 551.481 243.913 551.187 244.681C550.893 245.449 550.842 249.053 551.927 249.32C553.012 249.586 555.619 245.716 555.927 245.329C556.23 244.948 556.179 244.548 556.179 244.548Z" fill="#364154"/>
<path d="M554.423 248.547C554.423 248.547 543.781 278.25 544.489 290.699C544.489 290.699 545.238 297.963 550.024 301.884C550.024 301.884 556.478 297.328 557.347 290.699C558.06 285.252 554.906 253.687 556.727 249.329L554.423 248.547Z" fill="#386EE1"/>
<path d="M555.311 250.042C555.301 250.042 555.292 250.042 555.288 250.042C554.345 250.023 553.835 248.051 553.812 247.964L553.959 247.927C553.964 247.945 554.46 249.871 555.288 249.89C555.297 249.89 555.301 249.89 555.311 249.89C556.152 249.89 556.906 249.049 556.91 249.039L557.025 249.14C556.993 249.177 556.221 250.042 555.311 250.042Z" fill="#131F2D"/>
<path d="M562.919 227.258C562.919 227.258 560.404 228.881 557.251 227.377C557.251 227.377 556.952 227.033 557.65 226.959C558.349 226.881 559.563 226.297 559.503 225.883C559.448 225.47 555.619 227.58 553.325 226.127C553.325 226.127 550.083 224.228 552.984 223.143C554.782 222.472 556.005 216.652 564.096 220.426C565.277 220.978 567.686 222.477 567.723 224.89C567.723 224.89 570.9 226.472 569.64 230.885C567.746 237.523 561.498 236.962 561.498 236.962C561.498 236.962 565.208 232.462 563.471 232.365C561.241 232.246 560.79 230.609 562.11 229.906C563.429 229.207 564.666 227.079 562.919 227.258Z" fill="#131F2D"/>
<path d="M563.42 235.041C562.638 235.128 561.949 234.59 561.88 233.836C561.806 233.087 562.381 232.407 563.162 232.319C563.944 232.232 564.634 232.77 564.703 233.524C564.771 234.278 564.197 234.954 563.42 235.041Z" fill="#FF7955"/>
<path d="M570.141 226.504C570.077 226.504 570.017 226.463 569.994 226.398C569.566 225.01 568.091 224.656 568.077 224.651C567.994 224.633 567.944 224.55 567.962 224.467C567.98 224.385 568.063 224.334 568.146 224.352C568.215 224.366 569.805 224.748 570.288 226.306C570.311 226.389 570.27 226.472 570.187 226.499C570.173 226.499 570.159 226.504 570.141 226.504Z" fill="#131F2D"/>
<path d="M568.036 223.631C568.008 223.631 567.98 223.621 567.953 223.608C567.884 223.562 567.861 223.47 567.907 223.396C567.925 223.364 568.33 222.679 567.475 221.741C567.42 221.677 567.424 221.58 567.484 221.525C567.548 221.465 567.645 221.475 567.7 221.534C568.725 222.656 568.187 223.525 568.164 223.562C568.137 223.608 568.086 223.631 568.036 223.631Z" fill="#131F2D"/>
<path d="M592.043 312.086C595.426 311.872 598.075 310.227 597.96 308.413C597.845 306.598 595.009 305.302 591.627 305.516C588.244 305.731 585.595 307.375 585.71 309.19C585.825 311.004 588.661 312.301 592.043 312.086Z" fill="#131F2D"/>
<path d="M532.495 306.886C532.472 306.615 530.431 279.597 537.708 262.859L537.988 262.983C530.739 279.652 532.775 306.592 532.798 306.863L532.495 306.886Z" fill="#131F2D"/>
<path d="M581.634 282.645C579.717 274.214 575.741 268.223 575.704 268.164L575.957 267.994C575.998 268.053 580.002 274.094 581.933 282.576L581.634 282.645Z" fill="#131F2D"/>
<path d="M553.384 229.414C553.292 229.699 553.37 229.993 553.564 230.067C553.757 230.14 553.991 229.966 554.083 229.681C554.175 229.395 554.097 229.101 553.904 229.028C553.711 228.954 553.476 229.129 553.384 229.414Z" fill="#080435"/>
<path d="M556.409 231.133C556.317 231.418 556.396 231.713 556.589 231.786C556.782 231.86 557.016 231.685 557.108 231.4C557.2 231.115 557.122 230.821 556.929 230.747C556.736 230.669 556.506 230.844 556.409 231.133Z" fill="#080435"/>
<path d="M559.241 329.155C559.227 329.095 557.963 322.889 556.768 317.979C555.6 313.198 550.994 311.92 550.948 311.911L551.067 311.46C551.118 311.474 555.991 312.826 557.223 317.869C558.423 322.788 559.687 328.998 559.701 329.063L559.241 329.155Z" fill="#020202"/>
<path d="M588.066 330.86L586.158 330.824L586.309 322.742C586.383 320.691 587.817 318.972 589.721 318.632L595.711 317.561C597.467 317.248 599.205 318.149 600.032 319.809L600.046 319.841L603.871 328.235L602.138 329.026L598.322 320.65C597.871 319.763 596.961 319.28 596.051 319.441L590.061 320.512C589.036 320.696 588.259 321.657 588.217 322.797L588.066 330.86Z" fill="#131F2D"/>
<path d="M583.349 356.237L611.498 354.085C613.484 353.934 614.978 352.099 614.854 349.98L613.571 328.502C613.438 326.254 611.539 324.604 609.447 324.916L575.713 330.024C573.391 330.373 571.989 332.952 572.853 335.278L579.722 353.8C580.306 355.373 581.772 356.357 583.349 356.237Z" fill="white"/>
<path d="M594.116 342.418L594.047 342.404L573.916 338.473L574.003 338.041L594.06 341.958L613.727 332.561L613.92 332.961L594.116 342.418Z" fill="#131F2D"/>
<path d="M594.056 344.165C594.695 344.05 595.127 343.397 595.021 342.717L594.833 341.521C594.727 340.841 594.116 340.377 593.477 340.487C592.838 340.602 592.405 341.255 592.511 341.935L592.7 343.13C592.805 343.815 593.417 344.28 594.056 344.165Z" fill="#131F2D"/>
<path d="M584.65 318.158C585.091 317.239 585.583 315.717 586.071 314.26C586.466 313.088 586.861 311.957 587.229 311.226C587.422 310.849 588.682 309.074 591.702 309.097C594.745 309.12 595.09 310.421 595.09 310.421C595.09 310.421 596.318 312.596 597.329 316.255C597.416 316.448 597.485 316.669 597.541 316.926C597.899 318.701 598.713 321.151 597.706 322.093C596.607 323.119 595.922 321.353 595.647 320.383C595.835 321.271 596.056 322.981 595.247 323.946C594.391 324.962 593.417 322.185 592.989 320.769C592.985 320.769 592.98 320.769 592.98 320.774C593.284 322.043 593.702 324.502 592.626 325.169C591.353 325.96 590.374 322.181 590.111 321.317C590.079 321.317 590.047 321.321 590.02 321.321C589.275 326.7 587.284 323.983 586.834 319.841C586.103 320.701 584.452 322.245 583.919 321.85C583.294 321.381 584.305 318.875 584.65 318.158Z" fill="#FF7955"/>
<path d="M554.161 233.928C554.06 234.305 553.793 234.554 553.568 234.485C553.343 234.416 553.242 234.052 553.343 233.676C553.444 233.299 553.711 233.05 553.936 233.119C554.161 233.188 554.262 233.551 554.161 233.928Z" fill="white"/>
<path d="M301.099 300.464C300.221 301.976 299.108 305.383 298.263 306.914C297.895 307.576 296.796 309.902 297.352 310.389C297.835 310.817 299.513 309.424 300.235 308.656C300.529 313.773 303.057 321.096 303.154 310.329C303.159 310.329 303.163 310.329 303.172 310.329C303.255 311.419 303.715 317.483 305.002 316.793C306.138 316.186 305.972 311.828 305.857 310.035C305.871 310.03 305.889 310.03 305.903 310.026C306.17 311.837 306.914 316.195 307.82 315.239C308.96 314.035 308.882 309.258 308.882 309.258C308.882 309.258 309.103 315.363 310.574 314.15C311.401 313.465 310.942 309.984 310.629 307.824C310.565 307.369 310.505 306.973 310.464 306.675C310.431 306.426 310.376 306.21 310.307 306.017C309.572 302.44 308.547 300.266 308.547 300.266C308.547 300.266 307.765 297.489 304.832 297.738C302.956 297.894 301.476 299.811 301.099 300.464Z" fill="#FF7955"/>
<path d="M298.883 301.199C288.282 293.701 299.669 270.481 295.265 254.459C294.245 250.745 293.804 249.347 292.921 247.279C292.213 245.614 294.125 242.378 296.755 241.04C299.224 239.785 305.14 240.613 305.609 241.454C312.749 254.28 315.056 275.331 311.498 302.206C311.494 302.206 303.435 304.417 298.883 301.199Z" fill="white"/>
<path d="M283.133 398.448C283.133 398.448 283.225 402.315 285.653 403.409C288.085 404.498 295.128 405.482 292.493 407.969C290.985 409.394 283.864 408.475 281.855 408.475C279.846 408.475 277.962 409.417 276.467 407.969C274.826 406.379 276.467 398.448 276.467 398.448C276.467 398.448 278.201 399.423 279.759 399.377C282.012 399.313 283.133 398.448 283.133 398.448Z" fill="#131F2D"/>
<path d="M304.101 281.73C304.101 281.73 304.584 299.186 299.412 332.667C295.679 356.839 291.266 381.2 289.105 392.877C288.333 397.055 285.069 400.108 281.203 400.274L279.125 400.366C274.941 400.545 271.548 396.679 271.856 392.081L277.106 313.078L278.398 287.077L304.101 281.73Z" fill="#364154"/>
<path d="M260.11 398.448C260.11 398.448 260.202 402.315 262.63 403.409C265.062 404.498 272.105 405.482 269.47 407.969C267.963 409.394 260.841 408.475 258.832 408.475C256.823 408.475 254.939 409.417 253.445 407.969C251.803 406.379 253.445 398.448 253.445 398.448C253.445 398.448 255.178 399.423 256.736 399.377C258.989 399.313 260.11 398.448 260.11 398.448Z" fill="#131F2D"/>
<path d="M281.083 281.73C281.083 281.73 281.566 299.186 276.394 332.667C272.661 356.839 268.248 381.2 266.087 392.877C265.315 397.055 262.051 400.108 258.184 400.274L256.106 400.366C251.923 400.545 248.53 396.679 248.838 392.081L254.088 313.078L255.38 287.077L281.083 281.73Z" fill="#364154"/>
<path d="M252.833 300.859C252.884 302.965 264.712 303.801 279.341 303.309C293.969 302.817 305.66 300.638 305.609 298.533C305.558 296.427 293.79 295.191 279.161 295.683C264.533 296.174 252.783 298.754 252.833 300.859Z" fill="#131F2D"/>
<path d="M256.414 241.238C256.414 241.238 259.003 230.2 278.086 230.09C305.609 229.929 303.062 257.153 305.609 298.533C305.609 298.533 278.499 294.405 252.819 300.34C252.819 300.34 250.438 258.105 256.414 241.238Z" fill="white"/>
<path d="M249.367 239.656L261.83 247.081C261.83 247.081 289.124 249.747 296.369 248.465C303.614 247.177 305.604 241.449 305.604 241.449C305.604 241.449 297.886 232.853 284.77 230.559C283.538 230.343 282.26 230.182 280.936 230.09C278.711 229.933 276.481 229.966 274.307 230.232C257.683 232.25 249.367 239.656 249.367 239.656Z" fill="white"/>
<path d="M303.301 300.238C303.301 300.238 287.45 295.218 254.626 302.109L254.373 307.194L302.497 309.024L303.301 300.238Z" fill="#364154"/>
<path d="M246.981 300.34C248.13 286.736 257.472 251.136 258.557 249.186C259.435 247.619 257.862 244.171 255.389 242.53C253.068 240.99 250.066 239.022 249.367 239.656C239.557 248.561 231.111 281.105 233.773 299.135L246.981 300.34Z" fill="white"/>
<path d="M271.889 230.572C273.865 233.193 277.41 232.82 280.187 231.501C282.416 230.439 282.099 230.462 281.791 230.076C281.037 229.12 280.412 228.89 280.37 227.791L280.315 226.352L280.311 226.173L280.242 224.293L280.118 221.052L279.796 212.528L277.327 221.093L276.909 222.55L275.47 227.557C274.996 229.179 271.902 230.568 271.889 230.572Z" fill="#FF7955"/>
<path d="M276.605 223.837C276.605 223.837 277.791 225.952 280.315 226.352L280.311 226.173L280.242 224.293C278.872 224.15 276.605 223.837 276.605 223.837Z" fill="#131F2D"/>
<path d="M292.76 280.999C292.76 280.999 291.965 288.87 286.77 293.127C286.77 293.127 283.538 290.851 281.203 287.132C280.058 285.394 279.138 283.33 278.84 281.004C278.715 279.96 278.692 278.034 278.738 275.542C278.812 273.533 278.936 271.152 279.06 268.554C279.286 264.003 279.607 258.836 279.833 253.968C279.957 251.292 280.058 248.695 280.104 246.364C280.205 241.413 280.081 237.533 279.506 236.167L281.993 235.335C281.993 235.335 283.064 238.305 284.531 242.829C285.078 244.566 285.699 246.52 286.347 248.612C287.34 251.959 288.411 255.678 289.381 259.424C289.905 261.484 290.425 263.571 290.848 265.608C291.767 269.81 292.466 273.828 292.686 277.197C292.811 278.59 292.838 279.845 292.76 280.999Z" fill="#386EE1"/>
<path d="M233.778 299.135C233.7 301.103 236.61 302.868 240.274 303.075C243.942 303.282 246.976 301.852 247.054 299.884C247.133 297.917 244.223 296.151 240.559 295.945C236.89 295.738 233.856 297.163 233.778 299.135Z" fill="#131F2D"/>
<path d="M305.77 298.547L305.439 298.519C305.462 298.225 307.669 269.023 299.812 250.961L300.115 250.828C308.009 268.968 305.793 298.252 305.77 298.547Z" fill="#131F2D"/>
<path d="M252.511 272.274L252.19 272.2C254.281 263.006 258.621 256.459 258.667 256.395L258.943 256.579C258.897 256.643 254.589 263.139 252.511 272.274Z" fill="#131F2D"/>
<path d="M282.683 207.099C282.683 207.099 283.795 208.878 284.122 211.508C284.448 214.142 280.164 208.984 280.164 208.984L282.683 207.099Z" fill="#131F2D"/>
<path d="M281.335 224.162C285.059 222.843 286.72 217.941 285.046 213.215C283.372 208.488 278.995 205.726 275.272 207.045C271.548 208.364 269.886 213.265 271.561 217.992C273.235 222.718 277.611 225.481 281.335 224.162Z" fill="#FF7955"/>
<path d="M271.029 216.565L274.141 214.983C274.826 214.634 275.341 213.981 275.516 213.186C275.815 211.82 276.426 210.947 279.479 209.931C283.345 208.644 285.064 205.242 284.779 202.934C284.485 200.58 282.048 199.831 280.472 201.601C278.895 203.371 278.881 200.493 276.95 200.92C273.341 201.711 273.626 204.814 270.776 205.789C267.039 207.062 261.402 212.593 266.827 218.413L271.029 216.565Z" fill="#131F2D"/>
<path d="M278.987 214.537C279.014 214.501 279.024 214.45 279.014 214.404C278.996 214.321 278.918 214.271 278.84 214.294C278.794 214.308 277.722 214.491 277.594 215.838C277.585 215.921 277.64 215.999 277.718 216.013C277.796 216.022 277.851 215.958 277.879 215.88C278.145 215.075 278.876 214.606 278.913 214.597C278.941 214.583 278.968 214.56 278.987 214.537Z" fill="#080435"/>
<path d="M279.005 216.625C279.198 216.928 279.524 217.052 279.727 216.9C279.929 216.749 279.938 216.381 279.745 216.077C279.552 215.774 279.226 215.65 279.023 215.802C278.821 215.953 278.812 216.326 279.005 216.625Z" fill="#080435"/>
<path d="M283.455 212.018C283.483 211.995 283.496 211.958 283.492 211.912C283.483 211.834 283.423 211.761 283.354 211.751C283.313 211.747 282.379 211.508 282.122 212.616C282.104 212.685 282.145 212.772 282.209 212.809C282.274 212.846 282.329 212.813 282.361 212.754C282.678 212.161 283.349 212.032 283.386 212.037C283.414 212.041 283.437 212.032 283.455 212.018Z" fill="#080435"/>
<path d="M282.945 214.064C283.06 214.413 283.34 214.62 283.575 214.533C283.809 214.445 283.906 214.091 283.791 213.742C283.676 213.393 283.395 213.186 283.161 213.273C282.931 213.361 282.83 213.714 282.945 214.064Z" fill="#080435"/>
<path d="M266.823 218.413C266.823 218.413 270.744 222.753 274.031 221.939C274.031 221.939 270.183 218.955 274.794 214.51C274.794 214.51 269.572 215.544 266.823 218.413Z" fill="#131F2D"/>
<path d="M272.215 219.59C273.043 219.797 273.852 219.318 274.026 218.523C274.201 217.728 273.668 216.914 272.84 216.707C272.013 216.5 271.204 216.979 271.029 217.774C270.859 218.569 271.388 219.383 272.215 219.59Z" fill="#FF7955"/>
<path d="M283.657 202.474C282.959 202.474 282.632 201.946 282.559 201.624C282.536 201.537 282.591 201.445 282.683 201.422C282.77 201.399 282.862 201.454 282.885 201.541C282.904 201.619 283.101 202.286 283.929 202.111C284.021 202.093 284.108 202.148 284.126 202.24C284.145 202.332 284.09 202.419 283.998 202.438C283.869 202.465 283.759 202.474 283.657 202.474Z" fill="#386EE1"/>
<path d="M280.182 208.368L280.122 208.29C280.159 208.262 283.795 205.43 283.23 203.113C283.064 202.442 282.821 202.056 282.485 201.927C281.966 201.73 281.304 202.185 280.72 202.585C280.628 202.649 280.541 202.709 280.453 202.764L280.398 202.681C280.485 202.626 280.573 202.562 280.665 202.502C281.267 202.088 281.956 201.619 282.522 201.835C282.894 201.978 283.156 202.387 283.331 203.09C283.57 204.079 283.106 205.306 281.975 206.639C281.124 207.642 280.191 208.363 280.182 208.368Z" fill="white"/>
<path d="M269.452 207.196L269.429 207.099C273.58 206.18 274.707 203.058 274.716 203.026L274.812 203.058C274.803 203.09 273.659 206.267 269.452 207.196Z" fill="white"/>
<path d="M244.554 300.496C245.758 301.719 247.638 304.711 248.82 305.962C249.335 306.504 250.944 308.449 250.521 309.074C250.153 309.617 248.204 308.729 247.321 308.187C248.241 313.216 247.519 320.99 244.894 310.6C244.889 310.6 244.885 310.605 244.88 310.605C245.055 311.681 246.039 317.671 244.632 317.358C243.391 317.082 242.522 312.821 242.214 311.056C242.2 311.056 242.181 311.06 242.168 311.06C242.338 312.885 242.646 317.303 241.542 316.627C240.159 315.772 239.106 311.129 239.106 311.129C239.106 311.129 240.329 317.092 238.623 316.324C237.658 315.887 237.285 312.398 237.079 310.219C237.037 309.764 237 309.364 236.968 309.06C236.941 308.812 236.945 308.587 236.968 308.38C236.84 304.716 237.318 302.339 237.318 302.339C237.318 302.339 237.423 299.438 240.315 298.878C242.149 298.514 244.03 299.963 244.554 300.496Z" fill="#FF7955"/>
<path d="M275.497 339.057L275.286 339.016C275.332 338.772 279.984 314.421 280.987 310.601C282.003 306.721 285.699 305.819 285.735 305.81L285.786 306.017C285.749 306.026 282.177 306.9 281.193 310.651C280.196 314.471 275.548 338.814 275.497 339.057Z" fill="#131F2D"/>
<path d="M280.108 246.364C280.209 241.413 280.085 237.533 279.511 236.167L281.998 235.335C281.998 235.335 283.069 238.305 284.535 242.829C283.041 243.982 281.451 245.238 280.108 246.364Z" fill="#016EB9"/>
<path d="M289.381 259.424C285.878 262.344 280.927 266.546 279.065 268.554C279.29 264.003 279.612 258.836 279.837 253.968L286.351 248.616C287.34 251.959 288.411 255.678 289.381 259.424Z" fill="#016EB9"/>
<path d="M292.686 277.197C289.528 279.873 284.508 284.13 281.203 287.127C280.058 285.389 279.138 283.325 278.84 280.999C278.715 279.956 278.692 278.029 278.738 275.538L290.848 265.608C291.767 269.81 292.466 273.823 292.686 277.197Z" fill="#016EB9"/>
<path d="M278.132 231.924C278.132 231.924 281.483 230.807 282.375 231.676C283.267 232.545 282.609 236.507 281.065 236.861C279.525 237.211 276.605 232.88 278.132 231.924Z" fill="#386EE1"/>
<path d="M280.099 230.986C280.099 230.986 275.723 229.322 274.868 227.653C274.013 225.989 269.484 229.837 269.562 230.986C269.641 232.135 277.801 238.512 278.338 237.707C278.872 236.903 281.17 232.08 280.099 230.986Z" fill="#A0462D"/>
<path d="M280.099 230.986C280.099 230.986 280.752 229.239 280.439 228.288C280.439 228.288 280.232 227.455 280.899 227.511C281.566 227.566 285.193 230.297 285.515 231.129C285.836 231.961 285.887 235.868 284.715 236.153C283.542 236.438 280.711 232.246 280.38 231.832C280.044 231.418 280.099 230.986 280.099 230.986Z" fill="#A0462D"/>
<path d="M281.042 236.94C280.058 236.94 279.216 236.002 279.18 235.965L279.304 235.855C279.313 235.864 280.131 236.774 281.042 236.774C281.051 236.774 281.055 236.774 281.065 236.774C281.961 236.76 282.499 234.669 282.503 234.65L282.664 234.692C282.641 234.783 282.09 236.926 281.069 236.944C281.06 236.94 281.051 236.94 281.042 236.94Z" fill="#131F2D"/>
<path d="M282.195 219.962C282.195 220.463 282.448 220.868 282.765 220.868C283.078 220.868 283.336 220.463 283.336 219.962C283.336 219.461 283.083 219.056 282.765 219.056C282.448 219.056 282.195 219.461 282.195 219.962Z" fill="white"/>
<path d="M429.094 103.896C422.107 90.0542 395.089 72.4838 386.814 73.9227C385.035 74.2307 396.707 49.7828 400.647 52.2698C414.264 60.885 434.505 79.8714 439.502 93.6998L429.094 103.896Z" fill="white"/>
<path d="M431.908 95.741C435.246 91.5759 438.307 92.1506 439.503 93.6998C440.698 95.2491 439.236 98.6786 436.239 101.354C433.241 104.03 430.294 105.441 429.099 103.892C427.899 102.347 429.361 98.9176 431.908 95.741Z" fill="#131F2D"/>
<path d="M432.381 100.982C432.363 102.701 433.03 106.117 433.039 107.841C433.044 108.586 433.218 111.1 433.903 111.201C434.501 111.293 435.236 109.238 435.48 108.213C438.105 112.277 443.603 116.962 438.666 108.02C438.671 108.016 438.675 108.016 438.68 108.011C439.254 108.866 442.459 113.624 443.199 112.36C443.856 111.247 441.691 107.74 440.758 106.319C440.767 106.31 440.781 106.296 440.79 106.287C441.852 107.639 444.495 110.838 444.799 109.556C445.18 107.947 442.891 104.044 442.891 104.044C442.891 104.044 445.911 108.963 446.564 107.17C446.932 106.158 444.932 103.533 443.663 101.915C443.396 101.575 443.162 101.281 442.992 101.055C442.849 100.867 442.702 100.72 442.555 100.6C440.28 98.0442 438.427 96.8029 438.427 96.8029C438.427 96.8029 436.487 94.9319 434.184 96.7156C432.722 97.8557 432.391 100.237 432.381 100.982Z" fill="#FF7955"/>
<path d="M370.719 199.389C370.719 199.389 372.241 203.504 370.14 205.83C368.039 208.156 361.042 212.606 364.849 213.949C367.032 214.717 374.135 210.299 376.25 209.324C378.364 208.349 380.741 208.428 381.706 206.18C382.768 203.706 377.725 196.162 377.725 196.162C377.725 196.162 376.309 198.024 374.65 198.737C372.264 199.753 370.719 199.389 370.719 199.389Z" fill="#131F2D"/>
<path d="M431.706 216.353C431.706 216.353 431.931 220.776 429.246 222.256C426.566 223.736 418.613 225.548 421.826 228.127C423.67 229.607 431.71 227.86 434.004 227.667C436.298 227.469 438.528 228.361 440.109 226.564C441.847 224.587 439.309 215.7 439.309 215.7C439.309 215.7 437.415 216.978 435.632 217.079C433.057 217.236 431.706 216.353 431.706 216.353Z" fill="#131F2D"/>
<path d="M381.081 114.419C381.081 114.419 372.066 109.248 385.279 139.46C394.818 161.27 415.114 200.125 425.233 213.526C427.692 216.785 431.324 219.167 435.655 218.155L437.981 217.613C442.661 216.519 445.562 211.825 444.196 207.554L409.768 109.445C409.768 109.445 407.616 106.696 395.618 108.066C380.916 109.749 381.081 114.419 381.081 114.419Z" fill="#364154"/>
<path d="M368.632 116.456C368.632 116.456 350.588 130.864 345.913 149.643C340.598 170.974 363.869 199.412 369.423 201.61C373.045 203.04 375.928 201.619 380.033 193.942C382.488 189.349 370.544 163.191 374.286 154.19C378.815 143.304 400.973 134.298 400.973 134.298L398.826 106.278C398.826 106.278 382.515 110.089 368.632 116.456Z" fill="#364154"/>
<path d="M407.368 59.7633C407.368 59.7633 404.164 48.1875 383.927 48.992C368.338 49.6127 359.617 51.8331 357.727 62.9583C357.056 66.9073 355.456 81.5586 363.814 120.538C363.814 120.538 391.314 133.387 416.981 119.352C416.981 119.352 413.064 98.5453 408.425 66.5626C408.03 63.8594 408.182 61.7952 407.368 59.7633Z" fill="white"/>
<path d="M379.348 53.9662C380.323 57.7819 387.577 85.1353 427.467 74.7456C429.94 74.102 432.538 74.2583 434.924 75.2007L441.502 77.7981C442.334 78.1291 442.624 79.2417 442.068 79.9864L438.119 85.287C435.586 88.6889 432.05 91.0519 428.102 92.0035C419.827 93.9987 405.042 95.9755 392.551 89.1854C377.721 81.1219 375.794 61.8183 375.615 54.5041C375.588 53.3226 376.843 52.6376 377.707 53.3594C377.932 53.5433 379.275 53.6766 379.348 53.9662Z" fill="#386EE1"/>
<path d="M383.302 46.1694L382.217 40.6481L381.9 39.0391L380.042 29.5873L378.912 38.6943L378.231 44.1604L378.015 45.8889C377.868 47.0612 377.178 47.2451 376.282 48.1875C375.919 48.5691 373.597 50.8769 375.887 52.2515C378.741 53.9662 384.493 52.371 386.851 49.7736C386.842 49.7736 383.651 47.9577 383.302 46.1694Z" fill="#FF7955"/>
<path d="M382.506 42.133C382.506 42.133 380.631 44.0684 378.231 44.165L378.548 41.9353L382.506 42.133Z" fill="#131F2D"/>
<path d="M373.537 25.459C373.537 25.459 372.806 27.6289 373.105 30.4746C373.404 33.3157 376.627 26.7233 376.627 26.7233L373.537 25.459Z" fill="#5C305D"/>
<path d="M372.724 31.2469C373.845 25.9188 378.079 22.4111 382.18 23.4133C386.285 24.4155 388.704 29.5414 387.582 34.8695C386.46 40.1977 382.226 43.7053 378.125 42.7031C374.025 41.7055 371.606 36.5751 372.724 31.2469Z" fill="#FF7955"/>
<path d="M388.019 32.0698L384.382 31.2928C383.582 31.1227 382.883 30.5803 382.511 29.8033C381.867 28.461 381.017 27.7208 377.583 27.5185C373.229 27.2611 370.604 24.1948 370.347 21.7031C370.085 19.1608 372.448 17.6897 374.526 19.0965C376.604 20.5032 375.919 17.492 378.038 17.3909C382.001 17.2024 382.456 20.5216 385.669 20.7377C389.885 21.0181 397.116 25.2015 392.864 32.8145L388.019 32.0698Z" fill="#131F2D"/>
<path d="M379.707 32.5663C379.661 32.5663 379.615 32.5433 379.583 32.502C379.532 32.4284 379.541 32.3273 379.61 32.2675C379.652 32.2353 380.497 31.3664 381.656 32.125C381.73 32.171 381.757 32.2721 381.711 32.3503C381.67 32.4284 381.582 32.4376 381.5 32.41C380.686 32.1296 379.835 32.502 379.803 32.5295C379.771 32.5525 379.739 32.5663 379.707 32.5663Z" fill="#080435"/>
<path d="M374.139 31.2837C374.107 31.2607 374.098 31.2147 374.107 31.1458C374.13 31.0308 374.213 30.9113 374.3 30.87C374.351 30.847 375.542 30.185 375.703 31.6699C375.712 31.7618 375.652 31.8997 375.565 31.9779C375.477 32.056 375.417 32.0238 375.385 31.9503C375.077 31.2193 374.264 31.2653 374.222 31.2837C374.19 31.3021 374.162 31.2975 374.139 31.2837Z" fill="#080435"/>
<path d="M375.399 33.3846C375.413 33.78 375.206 34.111 374.935 34.1202C374.668 34.1294 374.443 33.8167 374.429 33.4168C374.415 33.0214 374.622 32.6904 374.893 32.6812C375.165 32.6766 375.39 32.9893 375.399 33.3846Z" fill="#080435"/>
<path d="M392.859 32.8146C392.859 32.8146 389.82 38.4553 386.184 38.5289C386.184 38.5289 389.476 34.327 383.582 30.9849C383.582 30.9803 389.292 30.5895 392.859 32.8146Z" fill="#5C305D"/>
<path d="M387.508 35.5591C386.695 36.0096 385.729 35.7384 385.357 34.9569C384.984 34.1753 385.338 33.1732 386.152 32.7226C386.966 32.2721 387.931 32.5433 388.304 33.3249C388.68 34.111 388.322 35.1086 387.508 35.5591Z" fill="#FF7955"/>
<path d="M375.188 18.7609C375.114 18.7609 375.036 18.7563 374.953 18.7471L374.981 18.5357C375.978 18.669 376.135 17.8139 376.139 17.7771L376.351 17.8139C376.351 17.8185 376.181 18.7609 375.188 18.7609Z" fill="#131F2D"/>
<path d="M376.461 26.0843C376.447 26.0797 375.303 25.5878 374.172 24.7787C372.668 23.7029 371.878 22.5536 371.892 21.4503C371.901 20.6596 372.08 20.1539 372.439 19.9056C372.981 19.5287 373.804 19.8275 374.53 20.0849C374.641 20.1263 374.746 20.1631 374.852 20.1998L374.815 20.301C374.71 20.2642 374.604 20.2274 374.494 20.1861C373.79 19.9332 372.995 19.6482 372.498 19.993C372.172 20.2228 372.006 20.6963 371.997 21.4503C371.97 24.0293 376.457 25.9601 376.503 25.9785L376.461 26.0843Z" fill="white"/>
<path d="M386.924 21.8456C384.759 21.8456 383.242 21.1331 382.332 20.5125C381.274 19.7907 380.782 19.0322 380.778 19.023L380.87 18.9632C380.888 18.9908 382.828 21.933 387.384 21.7261L387.389 21.8319C387.232 21.8411 387.076 21.8456 386.924 21.8456Z" fill="white"/>
<path d="M374.673 37.706C374.673 37.706 374.967 39.6644 376.916 39.7885C379.022 39.9218 379.546 38.2209 379.546 38.2209C379.546 38.2209 376.714 38.6162 374.673 37.706Z" fill="white"/>
<path d="M381.596 34.2857C381.568 34.2857 381.545 34.2811 381.523 34.2627C380.626 33.7202 379.385 34.0236 379.371 34.0282C379.293 34.0466 379.215 34.0006 379.196 33.9225C379.178 33.8443 379.224 33.7662 379.302 33.7478C379.357 33.734 380.672 33.4122 381.674 34.019C381.743 34.0604 381.766 34.1478 381.725 34.2167C381.693 34.2627 381.642 34.2857 381.596 34.2857Z" fill="#131F2D"/>
<path d="M380.359 50.8401C380.359 50.8401 376.76 49.8195 375.85 50.7804C374.939 51.7412 375.799 55.9154 377.454 56.2142C379.104 56.5131 382.019 51.7779 380.359 50.8401Z" fill="#386EE1"/>
<path d="M377.436 56.3016C376.365 56.3016 375.698 54.0857 375.671 53.9938L375.841 53.9432C375.845 53.9662 376.498 56.1269 377.436 56.1269C377.44 56.1269 377.45 56.1269 377.454 56.1269C378.429 56.0993 379.275 55.0741 379.284 55.065L379.422 55.1753C379.385 55.2213 378.521 56.274 377.463 56.3016C377.45 56.3016 377.44 56.3016 377.436 56.3016Z" fill="#131F2D"/>
<path d="M378.613 112.58C378.962 113.146 379.67 113.302 380.194 112.93C380.723 112.558 380.865 111.794 380.516 111.224C380.167 110.659 379.537 110.342 379.008 110.719C378.268 111.247 378.268 112.01 378.613 112.58Z" fill="#131F2D"/>
<path d="M376.25 94.4354C376.498 95.0606 377.169 95.3502 377.748 95.0836C378.328 94.8169 378.599 94.0952 378.351 93.4699C378.102 92.8447 377.532 92.4126 376.953 92.6792C376.13 93.0608 376.001 93.8102 376.25 94.4354Z" fill="#131F2D"/>
<path d="M373.946 76.0925C374.195 76.7177 374.866 77.0074 375.445 76.7407C376.024 76.4741 376.296 75.7523 376.047 75.1271C375.799 74.5019 375.229 74.0698 374.65 74.3364C373.831 74.7134 373.698 75.4673 373.946 76.0925Z" fill="#131F2D"/>
<path d="M374.673 48.9507C364.076 48.9599 354.725 55.3408 351.838 52.4905C351.158 51.8147 354.753 29.3114 354.753 29.3114L346.018 29.6148C346.018 29.6148 329.096 58.6921 337.845 68.2681C348.57 80.0093 364.315 72.8515 364.315 72.8515C364.315 72.8515 380.102 48.9415 374.673 48.9507Z" fill="white"/>
<path d="M370.701 36.0785L349.246 31.8537C348.152 31.6376 347.43 30.5113 347.627 29.3344L348.05 26.8381C348.248 25.6612 349.296 24.8797 350.39 25.0958L371.845 29.3206C372.94 29.5367 373.661 30.663 373.464 31.8399L373.041 34.3361C372.843 35.513 371.795 36.2946 370.701 36.0785Z" fill="#131F2D"/>
<path d="M356.983 35.8211L336.277 31.7434C334.847 31.4629 333.9 29.9872 334.162 28.4471L335.109 22.8753C335.371 21.3353 336.741 20.3147 338.171 20.5997L358.877 24.6775C360.307 24.9579 361.254 26.4336 360.992 27.9736L360.045 33.5455C359.783 35.0855 358.413 36.1015 356.983 35.8211Z" fill="#364154"/>
<path d="M339.849 34.0558L307.011 27.5921C305.839 27.3622 305.062 26.1532 305.278 24.8889L306.924 15.2026C307.14 13.943 308.262 13.1063 309.434 13.3362L342.272 19.7998C343.444 20.0297 344.221 21.2388 344.005 22.503L342.359 32.1893C342.148 33.4489 341.021 34.2856 339.849 34.0558Z" fill="#386EE1"/>
<path d="M305.002 28.3231L303.37 28.0013C302.474 27.8266 301.876 26.898 302.042 25.928L304.281 12.757C304.446 11.7915 305.306 11.1479 306.207 11.3272L307.839 11.649C308.735 11.8237 309.333 12.7524 309.167 13.7224L306.929 26.8934C306.763 27.8588 305.899 28.4978 305.002 28.3231Z" fill="#131F2D"/>
<path d="M350.597 20.8342C350.597 20.8342 348.391 19.786 347.513 21.9651C346.4 24.7372 347.481 29.3436 348.212 27.5967C348.855 26.0474 349.154 24.2821 349.154 24.2821C349.154 24.2821 348.28 29.8217 349.549 29.6056C350.818 29.3896 351.567 24.8797 351.567 24.8797C351.567 24.8797 351.167 30.1803 352.303 29.5597C353.443 28.9391 354.018 25.7808 354.018 25.7808C354.018 25.7808 353.452 30.0608 354.758 29.3068C356.064 28.5529 355.866 25.3716 356.063 24.0063C356.252 22.7144 355.539 22.1628 354.372 22.057C354.372 22.057 353.264 21.2203 352.482 21.3583C352.184 21.4088 351.944 21.0732 351.738 21.0089C351.347 20.8939 350.597 20.8342 350.597 20.8342Z" fill="#FF7955"/>
<path d="M386.63 142.026C386.557 142.026 386.483 141.98 386.451 141.906C383.582 135.019 377.27 134.215 377.206 134.206C377.1 134.192 377.027 134.1 377.036 133.994C377.05 133.889 377.142 133.815 377.252 133.824C377.316 133.833 383.849 134.665 386.805 141.759C386.846 141.856 386.8 141.97 386.699 142.012C386.681 142.021 386.653 142.026 386.63 142.026Z" fill="#131F2D"/>
<path d="M357.199 74.9479C357.089 74.9479 357.006 74.8605 357.006 74.7548C357.066 67.4452 357.53 62.9767 357.534 62.9354C357.548 62.8296 357.636 62.7515 357.746 62.7653C357.852 62.7745 357.93 62.871 357.916 62.9767C357.911 63.0227 357.452 67.4728 357.392 74.7594C357.392 74.8651 357.305 74.9479 357.199 74.9479Z" fill="#131F2D"/>
<path d="M378.236 49.9437C378.236 49.9437 382.805 47.9669 383.642 46.1602C384.479 44.3535 389.444 48.2151 389.407 49.4334C389.37 50.6516 380.245 57.8738 379.647 57.0463C379.045 56.2234 377.146 51.1527 378.236 49.9437Z" fill="#364154"/>
<path d="M378.236 49.9437C378.236 49.9437 377.468 48.1232 377.762 47.098C377.762 47.098 377.946 46.2016 377.243 46.2981C376.539 46.39 372.806 49.4564 372.503 50.3574C372.199 51.2539 372.305 55.4006 373.56 55.6442C374.815 55.8925 377.643 51.3091 377.974 50.8539C378.309 50.3988 378.236 49.9437 378.236 49.9437Z" fill="#364154"/>
<path d="M225.259 227.359C226.685 225.212 219.283 217.926 219.283 217.926C218.543 217.553 209.404 230.798 196.15 228.881C191.429 228.196 183.875 220.932 183.227 219.764C183.14 219.608 173.922 225.295 173.922 225.295C175.099 227.41 176 235.455 181.586 239.321C193.143 247.311 210.668 245.095 225.259 227.359Z" fill="#FF7955"/>
<path d="M175.338 378.593C175.338 378.593 175.518 382.303 177.876 383.282C180.234 384.261 187.02 385.011 184.556 387.47C183.14 388.882 176.285 388.197 174.354 388.252C172.424 388.307 170.635 389.268 169.169 387.916C167.555 386.431 168.939 378.777 168.939 378.777C168.939 378.777 170.626 379.664 172.125 379.577C174.281 379.453 175.338 378.593 175.338 378.593Z" fill="#131F2D"/>
<path d="M192.339 275.763C192.339 275.763 193.548 282.695 189.387 314.986C186.381 338.299 182.735 361.804 180.938 373.076C180.294 377.108 177.237 380.133 173.527 380.4L171.532 380.542C167.523 380.832 164.172 377.214 164.351 372.791L167.491 296.8L168.107 271.8L192.339 275.763Z" fill="#364154"/>
<path d="M153.235 379.232C153.235 379.232 153.414 382.942 155.773 383.921C158.131 384.901 164.916 385.65 162.452 388.109C161.036 389.521 154.182 388.836 152.251 388.891C150.32 388.946 148.532 389.902 147.065 388.555C145.452 387.07 146.836 379.416 146.836 379.416C146.836 379.416 148.523 380.303 150.021 380.216C152.178 380.096 153.235 379.232 153.235 379.232Z" fill="#131F2D"/>
<path d="M170.562 266.596C170.562 266.596 171.449 283.339 167.284 315.63C164.277 338.942 160.632 362.448 158.834 373.72C158.191 377.752 155.133 380.777 151.423 381.043L149.428 381.186C145.42 381.475 142.068 377.857 142.247 373.435L145.387 297.443L146.003 272.444L170.562 266.596Z" fill="#364154"/>
<path d="M143.903 285.748C143.999 287.766 156.306 283.358 170.336 282.479C184.367 281.601 193.741 276.503 193.644 274.48C193.548 272.462 183.273 273.225 169.242 274.103C155.207 274.981 143.801 283.725 143.903 285.748Z" fill="#131F2D"/>
<path d="M138.294 229.046C138.294 229.046 139.043 218.142 157.083 214.638C183.094 209.582 184.868 235.795 193.64 274.485C193.64 274.485 167.307 275.34 143.925 285.527C143.93 285.523 135.237 246.065 138.294 229.046Z" fill="#FB6504"/>
<path d="M131.389 228.802L144.321 233.607C144.321 233.607 170.553 231.267 177.209 228.761C183.866 226.256 184.868 220.482 184.868 220.482C184.868 220.482 176.244 213.724 163.487 213.889C162.287 213.903 161.055 213.981 159.786 214.128C157.657 214.376 155.556 214.804 153.534 215.443C138.115 220.316 131.389 228.802 131.389 228.802Z" fill="#FB6504"/>
<path d="M154.214 212.712L154.807 207.72L154.982 206.267L155.998 197.721L157.616 205.725L158.586 210.529L158.894 212.05C159.101 213.085 159.726 213.19 160.59 213.958C160.94 214.271 163.16 216.142 161.211 217.539C158.788 219.282 153.57 218.316 151.299 216.188C151.313 216.188 154.021 214.326 154.214 212.712Z" fill="#FF7955"/>
<path d="M192.339 275.763C192.339 275.763 180.639 275.138 145.668 286.272L145.53 291.784L191.773 292.202L192.339 275.763Z" fill="#364154"/>
<path d="M131.191 229.143C130.438 230.853 132.401 233.584 135.573 235.243C138.745 236.903 141.926 236.857 142.68 235.147C143.434 233.436 141.471 230.706 138.299 229.046C135.122 227.387 131.941 227.428 131.191 229.143Z" fill="#131F2D"/>
<path d="M137.871 290.791C136.864 277.721 136.368 258.854 139.701 243.21C140.473 239.588 140.818 238.213 141.549 236.176C142.137 234.535 140.124 231.556 137.526 230.444C135.09 229.4 131.711 230.283 131.283 231.106C130.562 232.508 129.964 235.046 129.04 239.068C125.84 253.048 125.381 270.421 127.606 292.281L137.871 290.791Z" fill="#FF7955"/>
<path d="M159.79 192.462C159.79 192.462 160.875 194.158 161.216 196.682C161.556 199.206 157.386 194.305 157.386 194.305L159.79 192.462Z" fill="#131F2D"/>
<path d="M158.658 208.852C162.225 207.554 163.782 202.834 162.135 198.311C160.489 193.787 156.263 191.172 152.696 192.471C149.129 193.769 147.572 198.488 149.219 203.012C150.865 207.535 155.091 210.15 158.658 208.852Z" fill="#FF7955"/>
<path d="M148.693 201.693L151.667 200.139C152.32 199.799 152.812 199.16 152.968 198.397C153.239 197.082 153.819 196.236 156.738 195.225C160.439 193.942 162.057 190.655 161.753 188.444C161.445 186.186 159.096 185.497 157.602 187.216C156.108 188.936 156.067 186.173 154.214 186.605C150.757 187.409 151.06 190.384 148.334 191.349C144.758 192.618 139.402 197.992 144.67 203.518L148.693 201.693Z" fill="#131F2D"/>
<path d="M155.897 200.148C155.924 200.111 155.934 200.065 155.92 200.019C155.901 199.941 155.823 199.895 155.75 199.914C155.708 199.928 154.678 200.121 154.568 201.412C154.559 201.495 154.614 201.569 154.688 201.578C154.761 201.587 154.816 201.523 154.839 201.449C155.088 200.672 155.786 200.213 155.819 200.203C155.855 200.194 155.883 200.176 155.897 200.148Z" fill="#080435"/>
<path d="M155.943 202.157C156.131 202.447 156.444 202.562 156.637 202.41C156.83 202.263 156.835 201.909 156.646 201.619C156.458 201.33 156.145 201.215 155.952 201.366C155.754 201.514 155.75 201.868 155.943 202.157Z" fill="#080435"/>
<path d="M160.545 197.859C160.572 197.84 160.59 197.808 160.59 197.762C160.59 197.689 160.54 197.611 160.476 197.592C160.439 197.583 159.57 197.243 159.211 198.268C159.188 198.332 159.216 198.42 159.276 198.466C159.335 198.512 159.391 198.484 159.427 198.429C159.791 197.9 160.448 197.854 160.476 197.863C160.503 197.877 160.526 197.873 160.545 197.859Z" fill="#080435"/>
<path d="M159.85 199.753C159.924 200.098 160.172 200.332 160.402 200.272C160.636 200.217 160.765 199.891 160.692 199.546C160.618 199.201 160.37 198.967 160.14 199.027C159.905 199.082 159.777 199.403 159.85 199.753Z" fill="#080435"/>
<path d="M144.675 203.513C144.675 203.513 148.481 207.637 151.63 206.814C151.63 206.814 147.907 203.996 152.288 199.67C152.288 199.675 147.281 200.727 144.675 203.513Z" fill="#131F2D"/>
<path d="M149.865 204.58C150.661 204.768 151.438 204.304 151.594 203.536C151.75 202.769 151.235 201.996 150.435 201.803C149.64 201.615 148.863 202.079 148.707 202.847C148.55 203.615 149.065 204.391 149.865 204.58Z" fill="#FF7955"/>
<path d="M152.288 199.675C152.288 199.675 153.281 203.996 154.334 204.474C155.387 204.952 160.692 203.256 162.779 201.298C163.721 203.955 162.77 206.998 160.471 208.4C159.713 208.865 158.871 209.191 157.989 209.361C156.182 209.706 154.279 209.595 153.005 208.175C152.619 207.743 152.164 204.327 152.164 204.327C152.164 204.327 151.769 202.373 150.435 201.799C150.435 201.803 151.217 200.226 152.288 199.675Z" fill="#131F2D"/>
<path d="M156.641 187.129C156.016 187.129 155.754 186.55 155.75 186.545L155.924 186.467C155.938 186.495 156.255 187.189 157.083 186.835L157.161 187.009C156.963 187.097 156.788 187.129 156.641 187.129Z" fill="#131F2D"/>
<path d="M157.4 193.712L157.34 193.639C157.35 193.629 158.228 192.935 159.028 191.97C159.758 191.083 160.568 189.786 160.273 188.632C160.108 187.993 159.873 187.621 159.547 187.501C159.046 187.317 158.416 187.759 157.86 188.15C157.772 188.209 157.69 188.269 157.607 188.324L157.552 188.246C157.635 188.191 157.717 188.131 157.805 188.071C158.379 187.667 159.037 187.207 159.579 187.409C159.938 187.543 160.195 187.933 160.365 188.605C160.954 190.885 157.547 193.597 157.4 193.712Z" fill="white"/>
<path d="M147.084 192.71L147.061 192.618C151.037 191.685 152.09 188.678 152.099 188.646L152.191 188.678C152.177 188.706 151.111 191.767 147.084 192.71Z" fill="white"/>
<path d="M161.708 203.477C161.708 203.477 160.002 204.511 157.956 204.865C157.956 204.865 158.701 206.736 160.632 205.78C161.758 205.228 161.708 203.477 161.708 203.477Z" fill="white"/>
<path d="M133.072 286.511C132.483 287.288 132.589 288.442 133.311 289.076L139.402 294.381C140.124 295.016 143.333 296.832 143.921 296.055C144.509 295.278 142.533 292.653 141.898 291.917C140.432 290.226 138.17 286.231 136.676 284.566C136.028 283.854 133.665 285.739 133.072 286.511Z" fill="#FF7955"/>
<path d="M127.109 286.438C127.109 286.438 126.07 290.511 126.304 296.584C126.378 298.432 137.751 298.611 138.211 296.602C138.671 294.593 136.731 288.088 136.731 288.088L127.109 286.438Z" fill="#FF7955"/>
<path d="M135.563 290.846C135.563 290.846 138.404 288.851 139.397 292.561C141.016 298.588 139.577 312.945 136.446 297.42C136.386 297.112 137.747 306.886 135.72 306.325C133.692 305.764 132.846 297.034 132.846 297.034C132.846 297.034 133.49 306.357 131.734 305.162C129.978 303.962 128.897 297.898 128.897 297.898C128.897 297.898 130.12 305.677 127.941 304.564C126.452 303.806 126.369 297.328 126.24 295.08C126.116 292.956 127.353 292.18 129.265 292.202C129.265 292.202 131.182 291.03 132.428 291.384C132.906 291.517 133.343 291.007 133.688 290.943C134.336 290.81 135.563 290.846 135.563 290.846Z" fill="#FF7955"/>
<path d="M166.617 322.195L166.305 322.158C166.323 322.02 168.024 308.297 169.311 303.369C170.608 298.395 176.57 294.106 176.63 294.064L176.809 294.322C176.75 294.363 170.879 298.593 169.61 303.452C168.337 308.357 166.636 322.057 166.617 322.195Z" fill="#131F2D"/>
<path d="M219.467 223.36C220.391 223.47 221.232 222.739 221.333 221.746L222.142 213.356C222.243 212.358 221.908 208.474 220.984 208.363C220.06 208.253 219.094 211.471 218.869 212.446C218.35 214.689 216.474 218.914 215.996 221.167C215.784 222.141 218.538 223.249 219.467 223.36Z" fill="#FF7955"/>
<path d="M222.657 228.78C222.657 228.78 226.395 227.497 230.992 223.971C232.389 222.9 226.326 212.533 224.514 213.218C222.698 213.903 218.694 219.199 218.694 219.199L222.657 228.78Z" fill="#FF7955"/>
<path d="M221.48 218.749C221.48 218.749 218.377 217.273 220.726 214.354C224.537 209.605 236.499 203.072 226.123 214.367C225.917 214.593 232.785 208.028 233.451 210.166C234.118 212.303 227.783 217.824 227.783 217.824C227.783 217.824 234.693 212.161 234.716 214.395C234.739 216.634 230.61 220.914 230.61 220.914C230.61 220.914 235.998 215.567 236.32 218.142C236.541 219.898 231.543 223.507 229.865 224.849C228.275 226.118 227.001 225.428 225.976 223.691C225.976 223.691 224.018 222.601 223.613 221.282C223.457 220.776 222.823 220.661 222.584 220.385C222.124 219.875 221.48 218.749 221.48 218.749Z" fill="#FF7955"/>
<path d="M41.417 402.227C41.417 402.227 50.5654 351.562 51.9859 350.072C53.4019 348.587 55.5948 349.907 54.8224 352.715C54.0501 355.524 43.4122 401.202 42.9662 402.227C42.5341 403.216 41.1595 403.643 41.417 402.227Z" fill="#131F2D"/>
<path d="M99.9626 335.903C100.032 326.87 79.2843 299.719 68.4763 296.335C56.2386 292.501 40.553 285.541 35.9466 298.124C31.3402 310.706 46.773 349.461 46.773 349.461C46.773 349.461 47.628 352.904 50.7587 353.29C53.8848 353.676 92.4002 355.023 92.4599 353.29C92.4967 352.178 105.406 337.747 99.9626 335.903Z" fill="#B8C1C9"/>
<path d="M94.1471 275.276C94.1471 275.276 108.518 299.42 127.688 305.093L124.259 313.414C124.259 313.414 99.9442 309.833 86.0284 284.548L94.1471 275.276Z" fill="#FF7955"/>
<path d="M109.014 396.26C109.014 396.26 108.909 400.168 111.304 401.414C113.699 402.659 120.756 404.071 117.974 406.42C116.379 407.771 109.244 406.42 107.217 406.3C105.189 406.181 103.24 407.022 101.806 405.473C100.229 403.767 102.293 395.869 102.293 395.869C102.293 395.869 103.994 396.954 105.566 397C107.837 397.069 109.014 396.26 109.014 396.26Z" fill="#131F2D"/>
<path d="M133.954 396.237C133.954 396.237 133.848 400.145 136.243 401.391C138.639 402.636 145.695 404.048 142.914 406.397C141.319 407.749 134.184 406.397 132.157 406.277C130.129 406.158 128.18 406.999 126.746 405.45C125.169 403.744 127.233 395.846 127.233 395.846C127.233 395.846 128.934 396.931 130.506 396.977C132.777 397.042 133.954 396.237 133.954 396.237Z" fill="#131F2D"/>
<path d="M136.579 389.783C134.786 364.185 134.363 346.918 126.838 335.821C118.604 323.675 96.5284 315.087 88.019 314.554C74.1401 313.681 67.5983 315.906 67.5983 315.906C57.181 339.232 73.5011 342.326 85.5687 342.965C85.9687 342.988 86.3686 343.011 86.7686 343.038C94.0781 343.535 107.07 345.535 111.989 353.35C115.883 359.542 118.586 368.236 119.726 390.652C119.947 394.955 123.298 398.292 127.298 398.173C127.307 398.168 137.227 398.986 136.579 389.783Z" fill="#364154"/>
<path d="M116.88 391.097C117.115 365.431 117.855 352.325 110.702 340.951C106.104 333.642 99.1902 328.13 90.1521 324.558C83.7022 322.011 76.1169 320.443 67.6029 319.91C53.7239 319.036 47.4855 317.23 47.4855 317.23C36.25 347.088 77.3443 340.749 88.042 353.469C92.7036 359.014 98.4777 369.555 99.6178 391.975C99.8385 396.278 103.19 399.616 107.189 399.496C107.194 399.501 116.793 400.485 116.88 391.097Z" fill="#364154"/>
<path d="M116.807 365.891C116.802 365.739 116.094 350.509 113.727 345.19C110.729 338.46 102.027 331.435 93.0347 328.484L93.0852 328.327C102.119 331.292 110.863 338.358 113.878 345.125C116.26 350.472 116.968 365.73 116.977 365.886L116.807 365.891Z" fill="#020202"/>
<path d="M57.3327 269.823C57.3327 269.823 63.2401 258.955 76.8524 262.293C90.4647 265.626 96.0135 280.594 96.9881 316.545C96.9881 316.545 84.3872 316.048 51.2736 327.872C47.3522 329.274 41.5965 328.162 43.6146 320.967C47.3567 307.594 50.9793 280.921 57.3327 269.823Z" fill="#FB6504"/>
<path d="M45.3064 272.798L56.3626 275.832C56.3626 275.832 80.8473 283.629 87.7018 283.688C94.5562 283.748 97.3926 278.351 97.3926 278.351C97.3926 278.351 91.8622 268.246 80.2773 263.484C79.1877 263.033 78.0477 262.633 76.8524 262.293C74.8434 261.723 72.8069 261.222 70.7657 261.194C47.651 260.909 45.3064 272.798 45.3064 272.798Z" fill="#FB6504"/>
<path d="M45.3063 272.798C45.3339 274.03 48.6715 275.023 52.7676 275.014C56.8591 275.004 60.1599 274.002 60.1323 272.77C60.1047 271.538 56.7671 270.545 52.671 270.554C48.5749 270.559 45.2787 271.566 45.3063 272.798Z" fill="#131F2D"/>
<path d="M65.3822 261.364C66.8533 261.043 67.9107 259.948 68.3704 258.408L69.8139 253.591L70.2323 252.193L72.6918 243.969L72.8665 252.211L72.9722 257.158L73.0044 258.569C73.0274 259.719 73.0687 261.19 74.1997 261.617C74.1997 261.617 75.6386 264.27 73.9376 264.992C71.2666 266.132 65.3776 261.364 65.3822 261.364Z" fill="#FF7955"/>
<path d="M61.7689 244.828C61.7689 244.828 62.385 246.047 62.3712 248.92C62.3482 253.122 66.904 253.531 67.6809 252.101C67.7775 251.926 65.911 245.339 65.911 245.339L64.371 244.883L61.7689 244.828Z" fill="#131F2D"/>
<path d="M69.7958 253.457C69.8004 253.503 69.8096 253.549 69.8142 253.591C70.228 256.211 72.9587 257.176 72.9587 257.176L72.9725 257.158L72.8668 252.211C72.0393 251.977 70.867 251.77 70.228 252.193C69.9016 252.414 69.7131 252.804 69.7958 253.457Z" fill="#131F2D"/>
<path d="M72.9107 254.139C76.8113 253.356 79.1369 248.554 78.1051 243.414C77.0733 238.274 73.0748 234.742 69.1742 235.525C65.2736 236.308 62.948 241.109 63.9798 246.249C65.0117 251.39 69.0102 254.922 72.9107 254.139Z" fill="#FF7955"/>
<path d="M72.0253 236.976C71.9058 237.316 74.1997 241.721 66.3477 245.256C58.4957 248.786 60.6794 236.714 66.6236 234.701C75.2065 231.795 78.066 237.698 77.8085 240.203C77.5511 242.709 72.0253 236.976 72.0253 236.976Z" fill="#131F2D"/>
<path d="M59.7921 234.462C59.7921 234.462 63.2722 235.712 61.5161 238.374C59.7599 241.036 53.7606 243.743 56.3166 246.607C58.8681 249.471 61.608 254.018 58.7163 255.544C55.8201 257.071 53.8341 257.388 53.2549 260.371C52.6756 263.355 46.7223 263.373 46.3821 260.123C46.0419 256.878 40.5942 255.54 41.8998 252.073C43.2054 248.607 47.5498 244.644 47.8394 240.544C48.129 236.434 57.0016 233.547 59.7921 234.462Z" fill="#131F2D"/>
<path d="M66.8627 243.486C66.8627 243.486 64.4997 248.244 66.6328 251.761C66.6328 251.761 64.1273 250.06 63.8653 249.228C63.6078 248.396 63.3412 245.182 63.3412 245.182L66.8627 243.486Z" fill="#131F2D"/>
<path d="M65.4421 248C66.4305 248.575 67.5477 248.336 67.9384 247.462C68.3292 246.589 67.8419 245.417 66.8535 244.842C65.8651 244.267 64.748 244.506 64.3572 245.38C63.9664 246.253 64.4537 247.426 65.4421 248Z" fill="#FF7955"/>
<path d="M48.5749 262.803L48.4232 262.61C49.0622 262.1 49.3932 261.617 49.43 261.125C49.4898 260.367 48.8508 259.668 48.1704 258.928C47.513 258.211 46.8326 257.471 46.7361 256.597C46.6119 255.485 47.775 254.892 48.8967 254.317C49.7564 253.876 50.6437 253.42 50.8505 252.768C50.9471 252.46 50.8919 252.119 50.685 251.733C50.4322 251.255 50.161 250.837 49.8989 250.432C48.7129 248.598 47.775 247.154 49.7794 242.645C52.3263 236.921 55.365 235.786 58.275 235.409C58.6244 235.363 59.7324 235.551 59.9024 236.158C60.0725 236.765 59.2312 237.487 57.4015 238.305C57.3832 238.319 54.3996 240.066 53.802 244.235C53.4939 246.396 55.1351 248.102 56.5832 249.609C57.9256 251.007 59.0842 252.211 58.013 253.319C57.4292 253.922 56.7304 254.368 56.0546 254.795C54.349 255.875 52.74 256.896 53.3744 260.353L53.1307 260.399C52.4641 256.781 54.1421 255.714 55.9213 254.593C56.5833 254.174 57.2729 253.738 57.8337 253.154C58.7394 252.216 57.7096 251.14 56.404 249.784C54.9926 248.313 53.2319 246.488 53.5583 244.208C54.1697 239.909 57.259 238.107 57.2912 238.089C59.6174 237.05 59.7278 236.443 59.668 236.232C59.5531 235.822 58.6474 235.616 58.3072 235.662C55.4707 236.025 52.5009 237.137 50.0047 242.75C48.0555 247.136 48.9565 248.534 50.1058 250.304C50.3724 250.713 50.6437 251.136 50.9057 251.623C51.1448 252.073 51.2045 252.473 51.0896 252.846C50.8505 253.6 49.9173 254.078 49.0117 254.542C47.9129 255.103 46.8785 255.632 46.9843 256.579C47.0716 257.369 47.7245 258.082 48.3543 258.772C49.0714 259.553 49.7472 260.289 49.6783 261.153C49.6323 261.709 49.2737 262.252 48.5749 262.803Z" fill="white"/>
<path d="M65.5754 242.442L65.488 242.176C68.4394 241.229 69.2991 238.19 69.3083 238.158L69.5796 238.231C69.5704 238.263 68.6693 241.454 65.5754 242.442Z" fill="white"/>
<path d="M77.7441 249.067C76.1259 249.209 74.6732 247.651 74.4985 245.587C74.4066 244.483 74.6962 243.408 75.3031 242.635C75.7812 242.019 76.4293 241.647 77.1189 241.587C78.7371 241.445 80.1899 243.003 80.3646 245.067C80.4565 246.171 80.1668 247.246 79.5646 248.019C79.1922 248.497 78.7187 248.828 78.2039 248.98C78.0521 249.021 77.9004 249.053 77.7441 249.067ZM75.4317 242.755C74.8571 243.49 74.5813 244.516 74.6686 245.573C74.8341 247.531 76.2041 249.016 77.7303 248.883C78.3739 248.823 78.9808 248.478 79.4313 247.899C80.006 247.164 80.2818 246.138 80.1945 245.081C80.029 243.123 78.659 241.638 77.1327 241.771C76.9902 241.785 76.8477 241.812 76.7098 241.849C76.2271 241.996 75.7857 242.304 75.4317 242.755Z" fill="#364154"/>
<path d="M70.7887 250.028C69.1705 250.17 67.7178 248.612 67.5431 246.548C67.4512 245.444 67.7408 244.369 68.343 243.596C68.8211 242.98 69.4693 242.608 70.1589 242.548C71.7771 242.406 73.2298 243.964 73.4045 246.028C73.4965 247.131 73.2069 248.207 72.6046 248.98C72.2323 249.458 71.7587 249.789 71.2438 249.94C71.0967 249.986 70.945 250.014 70.7887 250.028ZM68.4763 243.716C67.9016 244.451 67.6259 245.477 67.7132 246.534C67.8787 248.492 69.2486 249.977 70.7749 249.844C71.4185 249.789 72.0254 249.439 72.4759 248.86C73.0505 248.124 73.3264 247.099 73.239 246.042C73.0735 244.084 71.7036 242.599 70.1773 242.732C70.0348 242.746 69.8922 242.773 69.7543 242.81C69.2716 242.957 68.8303 243.27 68.4763 243.716Z" fill="#364154"/>
<path d="M75.4089 245.683C75.4365 245.674 75.4594 245.656 75.4686 245.624C75.487 245.578 75.464 245.522 75.4181 245.504C75.3721 245.486 74.3101 245.081 72.816 245.794C72.7747 245.817 72.7517 245.867 72.7701 245.918C72.7885 245.964 72.839 245.987 72.885 245.964C74.3101 245.283 75.3445 245.674 75.3537 245.679C75.3721 245.688 75.3905 245.688 75.4089 245.683Z" fill="#364154"/>
<path d="M76.4203 249.665C76.4203 249.665 74.0711 250.423 71.4783 250.225C71.4783 250.225 71.9196 252.791 74.5262 252.202C76.0387 251.862 76.4203 249.665 76.4203 249.665Z" fill="#E9633E"/>
<path d="M76.4203 249.665C76.4203 249.665 75.9789 250.345 74.6411 250.731C73.3034 251.117 71.4783 250.225 71.4783 250.225C71.4783 250.225 74.5446 250.225 76.4203 249.665Z" fill="white"/>
<path d="M71.7771 244.736C71.8184 244.709 71.8507 244.663 71.8552 244.603C71.8644 244.506 71.8001 244.419 71.7127 244.41C71.6621 244.405 70.4531 244.13 69.8003 245.499C69.7589 245.587 69.7865 245.693 69.8692 245.738C69.9474 245.784 70.0301 245.739 70.0899 245.665C70.6783 244.929 71.6346 244.75 71.6806 244.759C71.7127 244.764 71.7449 244.755 71.7771 244.736Z" fill="#080435"/>
<path d="M71.0047 246.966C71.0966 247.375 71.3908 247.646 71.6667 247.577C71.9425 247.508 72.0896 247.118 71.9977 246.709C71.9057 246.299 71.6115 246.028 71.3357 246.097C71.0599 246.171 70.9127 246.557 71.0047 246.966Z" fill="#080435"/>
<path d="M77.6202 243.959C77.6707 243.95 77.7167 243.923 77.7397 243.872C77.7811 243.789 77.7535 243.679 77.6753 243.633C77.6294 243.605 76.6088 242.856 75.5193 243.858C75.4503 243.923 75.4411 244.033 75.4963 244.107C75.5514 244.18 75.6434 244.175 75.7261 244.129C76.5306 243.688 77.4777 243.918 77.5145 243.941C77.5512 243.959 77.588 243.964 77.6202 243.959Z" fill="#080435"/>
<path d="M76.1167 245.706C76.057 246.12 76.2363 246.492 76.5121 246.543C76.7926 246.589 77.0684 246.29 77.1281 245.876C77.1879 245.463 77.0086 245.09 76.7328 245.04C76.4524 244.994 76.1765 245.293 76.1167 245.706Z" fill="#080435"/>
<path d="M96.4272 408.631L95.9767 408.585C95.6273 408.548 95.3653 407.928 95.3929 407.197L98.8775 314.77L105.498 311.239L97.4754 406.769C97.411 407.863 96.9513 408.686 96.4272 408.631Z" fill="#131F2D"/>
<path d="M197.184 408.631L197.635 408.585C197.984 408.548 198.246 407.928 198.219 407.197L194.734 314.77L188.114 311.239L196.136 406.769C196.2 407.863 196.66 408.686 197.184 408.631Z" fill="#131F2D"/>
<path d="M144.1 327.518C177.322 327.518 204.255 323.766 204.255 319.137C204.255 314.509 177.322 310.757 144.1 310.757C110.878 310.757 83.9458 314.509 83.9458 319.137C83.9458 323.766 110.878 327.518 144.1 327.518Z" fill="#B8C1C9"/>
<path d="M204.25 315.276H83.9458V319.142H204.25V315.276Z" fill="#B8C1C9"/>
<path d="M144.1 323.656C177.322 323.656 204.255 319.904 204.255 315.276C204.255 310.647 177.322 306.895 144.1 306.895C110.878 306.895 83.9458 310.647 83.9458 315.276C83.9458 319.904 110.878 323.656 144.1 323.656Z" fill="#D5D6DA"/>
<path d="M187.171 321.344C187.066 321.344 186.969 321.266 186.955 321.156C186.937 321.036 187.02 320.921 187.144 320.907C192.182 320.186 196.205 319.358 199.101 318.443C199.216 318.406 199.34 318.471 199.377 318.586C199.414 318.701 199.349 318.825 199.235 318.862C196.315 319.786 192.27 320.618 187.204 321.344C187.19 321.344 187.181 321.344 187.171 321.344Z" fill="#131F2D"/>
<path d="M94.1471 320.167C94.1333 320.167 94.1149 320.167 94.1011 320.163C93.8575 320.107 88.1569 318.857 85.9227 317.662C85.817 317.607 85.7756 317.469 85.8307 317.363C85.8905 317.257 86.0238 317.216 86.1295 317.271C88.3132 318.434 94.1379 319.717 94.1931 319.73C94.3126 319.758 94.3861 319.873 94.3632 319.992C94.3402 320.094 94.2482 320.167 94.1471 320.167Z" fill="#131F2D"/>
<path d="M91.2508 306.518C91.2508 306.518 98.4776 303.59 100.873 304.647C103.268 305.704 105.58 309.005 103.967 308.688C102.353 308.371 100.395 307.35 100.395 307.35C100.395 307.35 104.482 309.736 103.548 310.527C102.615 311.318 99.0799 309.203 99.0799 309.203C99.0799 309.203 103.732 312.462 102.629 312.899C101.526 313.336 98.0087 310.835 98.0087 310.835C98.0087 310.835 102.224 314.053 100.933 314.526C99.6407 315 97.4662 311.842 96.533 312.632C95.5998 313.419 93.2966 316.922 90.9474 314.398L91.2508 306.518Z" fill="#FF7955"/>
<path d="M61.5897 306.913C69.7819 314.641 77.8363 316.14 90.9383 314.398L91.2509 306.518C81.7117 307.787 75.0412 302.307 69.5475 297.131C61.7369 289.761 59.4429 278.346 58.79 273.184C58.7303 272.692 58.4223 272.283 57.9901 272.113C56.5604 271.547 53.0068 270.623 47.628 272.306C47.1499 272.457 46.8281 272.94 46.8511 273.478C47.2557 283.298 51.269 297.181 61.5897 306.913Z" fill="#FF7955"/>
<g opacity="0.3">
<path opacity="0.3" d="M63.2079 304.132C63.1527 304.132 63.1022 304.132 63.047 304.128C62.3207 304.068 61.5529 303.608 60.9967 302.9C60.0359 301.677 59.9393 300.054 60.7806 299.278C61.1162 298.97 61.5529 298.827 62.0494 298.868C62.7758 298.928 63.5435 299.388 64.0998 300.096C65.0606 301.319 65.1571 302.941 64.3159 303.718C64.017 303.99 63.6355 304.132 63.2079 304.132ZM61.8885 299.328C61.5759 299.328 61.3047 299.429 61.0932 299.622C60.4266 300.234 60.5461 301.576 61.3598 302.61C61.8379 303.222 62.4815 303.613 63.0792 303.663C63.4378 303.695 63.755 303.594 63.994 303.374C64.6606 302.762 64.5411 301.42 63.7274 300.385C63.2493 299.774 62.6057 299.383 62.0034 299.333C61.9667 299.328 61.9299 299.328 61.8885 299.328Z" fill="#EC865C"/>
</g>
<path d="M105.282 315.777H129.835C130.35 315.777 130.805 315.423 130.966 314.903L136.069 298.501C136.326 297.673 135.752 296.823 134.938 296.823H111.327C110.251 296.823 109.295 297.558 108.955 298.652L104.151 314.103C103.893 314.926 104.468 315.777 105.282 315.777Z" fill="#131F2D"/>
<path d="M106.826 315.777H131.38C131.895 315.777 132.35 315.423 132.511 314.903L137.613 298.501C137.871 297.673 137.296 296.823 136.483 296.823H112.871C111.796 296.823 110.839 297.558 110.499 298.652L105.695 314.103C105.433 314.926 106.008 315.777 106.826 315.777Z" fill="#131F2D"/>
<path d="M124.029 305.764C124.029 305.144 123.362 304.886 122.778 304.886C122.195 304.886 121.243 305.571 121.252 306.445C121.257 307.387 121.942 307.511 122.526 307.511C123.105 307.506 124.029 306.555 124.029 305.764Z" fill="#DAEBE8"/>
<path d="M97.9075 313.46H131.389V315.777H97.1536C96.7214 315.777 96.3721 315.427 96.3721 314.995C96.3721 314.149 97.057 313.46 97.9075 313.46Z" fill="#131F2D"/>
<path d="M108.573 305.111L108.412 305.07C108.463 304.868 109.635 300.137 110.421 298.606C111.221 297.052 112.205 296.749 112.246 296.735L112.292 296.892C112.283 296.896 111.336 297.195 110.568 298.68C109.791 300.202 108.587 305.065 108.573 305.111Z" fill="#366F90"/>
<path d="M104.941 313.543V313.377C105.741 313.377 105.943 313.019 105.943 313.014L107.851 306.877L108.008 306.927L106.095 313.078C106.081 313.11 105.856 313.543 104.941 313.543Z" fill="#366F90"/>
<g opacity="0.4">
<path opacity="0.4" d="M514.819 11.9387C514.819 11.9387 508.309 -1.54492 491.833 0.146853C475.356 1.83403 477.319 15.3498 469.472 14.081C461.624 12.8121 450.642 14.081 448.288 22.526C445.934 30.9711 435.342 26.3279 434.951 33.5041C434.561 40.685 447.111 45.7511 461.624 39.4162C476.138 33.0812 483.199 44.3351 503.597 42.2986C523.995 40.262 526.523 37.7244 538.595 38.9932C550.668 40.262 550.382 31.3619 544.889 25.4499C539.4 19.5379 517.172 20.1033 514.819 11.9387Z" fill="#EAEAEA"/>
</g>
<path d="M72.1127 89.3234C72.1127 89.3234 76.0663 81.1358 86.0698 82.1609C96.0733 83.1861 94.8827 91.3921 99.6454 90.6244C104.408 89.8566 111.079 90.6244 112.508 95.7549C113.938 100.885 120.37 98.0627 120.604 102.421C120.843 106.779 113.221 109.859 104.408 106.011C95.5952 102.163 91.3107 108.999 78.9258 107.763C66.541 106.526 65.0055 104.986 57.6775 105.754C50.345 106.522 50.5197 101.12 53.8573 97.5294C57.1857 93.939 70.683 94.2792 72.1127 89.3234Z" fill="#EAEAEA"/>
<path d="M570.352 60.3564C570.352 60.3564 566.532 52.4446 556.86 53.433C547.187 54.426 548.341 62.3562 543.735 61.616C539.128 60.8713 532.683 61.616 531.299 66.5718C529.915 71.5276 523.7 68.8014 523.47 73.0171C523.24 77.2327 530.61 80.2071 539.128 76.4879C547.647 72.7688 551.794 79.375 563.765 78.1797C575.736 76.9844 577.221 75.495 584.309 76.2397C591.398 76.9844 591.228 71.7574 588.006 68.2865C584.783 64.8157 571.732 65.1513 570.352 60.3564Z" fill="#EAEAEA"/>
<path d="M244.609 9.2309C244.609 9.2309 240.434 0.583576 229.87 1.66852C219.306 2.75346 220.561 11.4192 215.531 10.6055C210.502 9.79176 203.459 10.6055 201.947 16.021C200.439 21.4365 193.644 18.4575 193.396 23.0639C193.143 27.6657 201.193 30.9159 210.502 26.8566C219.811 22.7973 224.335 30.0102 237.419 28.7046C250.498 27.399 252.12 25.7716 259.862 26.5853C267.604 27.399 267.42 21.6893 263.898 17.8966C260.372 14.104 246.116 14.4671 244.609 9.2309Z" fill="#EAEAEA"/>
</svg>
