<svg width="24" height="24" viewBox="0 0 24 24" fill="none" xmlns="http://www.w3.org/2000/svg">
<path fill-rule="evenodd" clip-rule="evenodd" d="M12 0C5.37258 0 0 5.37258 0 12C0 18.6274 5.37258 24 12 24C18.6274 24 24 18.6274 24 12C24 5.37258 18.6274 0 12 0ZM9.36166 5.63857C10.0443 5.6075 10.2625 5.5999 12.0006 5.5999H11.9986C13.7373 5.5999 13.9546 5.6075 14.6373 5.63857C15.3187 5.66977 15.784 5.77764 16.192 5.93591C16.6133 6.09924 16.9693 6.31791 17.3253 6.67391C17.6813 7.02965 17.9 7.38672 18.064 7.80766C18.2214 8.2146 18.3294 8.67967 18.3614 9.36101C18.392 10.0437 18.4 10.2618 18.4 12C18.4 13.7381 18.392 13.9557 18.3614 14.6384C18.3294 15.3195 18.2214 15.7847 18.064 16.1917C17.9 16.6126 17.6813 16.9696 17.3253 17.3254C16.9697 17.6814 16.6132 17.9006 16.1924 18.064C15.7852 18.2223 15.3196 18.3302 14.6383 18.3614C13.9556 18.3924 13.7381 18.4 11.9998 18.4C10.2618 18.4 10.0438 18.3924 9.36113 18.3614C8.67992 18.3302 8.21472 18.2223 7.80751 18.064C7.38684 17.9006 7.02977 17.6814 6.67417 17.3254C6.3183 16.9696 6.09963 16.6126 5.93603 16.1916C5.77789 15.7847 5.67002 15.3196 5.63869 14.6383C5.60776 13.9556 5.60002 13.7381 5.60002 12C5.60002 10.2618 5.60802 10.0435 5.63856 9.36087C5.66922 8.6798 5.77723 8.2146 5.93589 7.80753C6.0999 7.38672 6.31856 7.02965 6.67457 6.67391C7.03031 6.31804 7.38738 6.09937 7.80831 5.93591C8.21525 5.77764 8.68032 5.66977 9.36166 5.63857Z" fill="white"/>
<path fill-rule="evenodd" clip-rule="evenodd" d="M11.4264 6.75355C11.5379 6.75338 11.6578 6.75343 11.7873 6.75349L12.0006 6.75355C13.7094 6.75355 13.9119 6.75969 14.5867 6.79035C15.2107 6.81889 15.5494 6.92315 15.775 7.01076C16.0737 7.12676 16.2866 7.26543 16.5105 7.48943C16.7345 7.71343 16.8731 7.92677 16.9894 8.22544C17.077 8.45077 17.1814 8.78944 17.2098 9.41345C17.2405 10.0881 17.2472 10.2908 17.2472 11.9988C17.2472 13.7068 17.2405 13.9095 17.2098 14.5842C17.1813 15.2082 17.077 15.5468 16.9894 15.7722C16.8734 16.0709 16.7345 16.2835 16.5105 16.5074C16.2865 16.7314 16.0738 16.8701 15.775 16.9861C15.5497 17.0741 15.2107 17.1781 14.5867 17.2066C13.9121 17.2373 13.7094 17.2439 12.0006 17.2439C10.2916 17.2439 10.0891 17.2373 9.41441 17.2066C8.7904 17.1778 8.45173 17.0735 8.22599 16.9859C7.92732 16.8699 7.71399 16.7313 7.48999 16.5073C7.26598 16.2833 7.12732 16.0705 7.01105 15.7716C6.92345 15.5463 6.81905 15.2076 6.79065 14.5836C6.75998 13.909 6.75385 13.7063 6.75385 11.9972C6.75385 10.2881 6.75998 10.0865 6.79065 9.41185C6.81918 8.78784 6.92345 8.44917 7.01105 8.22357C7.12705 7.9249 7.26598 7.71156 7.48999 7.48756C7.71399 7.26356 7.92732 7.12489 8.22599 7.00862C8.4516 6.92062 8.7904 6.81662 9.41441 6.78795C10.0048 6.76129 10.2336 6.75329 11.4264 6.75195V6.75355ZM15.4169 7.81628C14.9929 7.81628 14.6489 8.15988 14.6489 8.58402C14.6489 9.00802 14.9929 9.35203 15.4169 9.35203C15.8409 9.35203 16.1849 9.00802 16.1849 8.58402C16.1849 8.16001 15.8409 7.81601 15.4169 7.81601V7.81628ZM8.71386 12.0002C8.71386 10.1852 10.1854 8.7136 12.0004 8.71352C13.8155 8.71352 15.2867 10.1851 15.2867 12.0002C15.2867 13.8153 13.8157 15.2863 12.0006 15.2863C10.1855 15.2863 8.71386 13.8153 8.71386 12.0002Z" fill="white"/>
<path d="M12.0006 9.8667C13.1787 9.8667 14.134 10.8218 14.134 12.0001C14.134 13.1782 13.1787 14.1334 12.0006 14.1334C10.8223 14.1334 9.86725 13.1782 9.86725 12.0001C9.86725 10.8218 10.8223 9.8667 12.0006 9.8667Z" fill="white"/>
</svg>
