<svg width="23" height="23" viewBox="0 0 23 23" fill="none" xmlns="http://www.w3.org/2000/svg">
<path fill-rule="evenodd" clip-rule="evenodd" d="M16.1319 2.33331C18.3677 2.33331 20.1882 4.1529 20.1882 6.38956V16.6003C20.1882 18.8425 18.3631 20.6666 16.1218 20.6666H11.6439C9.40817 20.6666 7.58858 18.8471 7.58858 16.6104V15.7469C7.58858 15.3674 7.89658 15.0594 8.27608 15.0594C8.65558 15.0594 8.96358 15.3674 8.96358 15.7469V16.6104C8.96358 18.0881 10.1662 19.2916 11.6439 19.2916H16.1218C17.6059 19.2916 18.8132 18.0853 18.8132 16.6003V6.38956C18.8132 4.9119 17.6096 3.70831 16.1319 3.70831H11.654C10.1708 3.70831 8.96358 4.91465 8.96358 6.39781V7.25306C8.96358 7.63256 8.65558 7.94056 8.27608 7.94056C7.89658 7.94056 7.58858 7.63256 7.58858 7.25306V6.39781C7.58858 4.15656 9.41275 2.33331 11.654 2.33331H16.1319ZM12.7763 8.34023L15.4611 11.0139C15.4829 11.0357 15.5032 11.0589 15.522 11.0834L15.4612 11.0132C15.4978 11.0493 15.5298 11.0892 15.557 11.1319C15.5625 11.1426 15.5688 11.153 15.5748 11.1637C15.5852 11.1801 15.5941 11.1975 15.6022 11.2153C15.6067 11.2279 15.612 11.2405 15.6169 11.2532C15.6247 11.2706 15.6308 11.2885 15.6361 11.3067C15.6392 11.321 15.6429 11.3352 15.6461 11.3496C15.6511 11.3671 15.6543 11.3847 15.6568 11.4024C15.6569 11.4105 15.6579 11.4189 15.6588 11.4275C15.6625 11.4517 15.6638 11.4758 15.6638 11.5L15.6571 11.5724L15.6563 11.5932C15.6561 11.5948 15.6559 11.5963 15.6557 11.5979L15.6638 11.5C15.6638 11.5509 15.6581 11.6012 15.6472 11.6502C15.6429 11.6647 15.6392 11.679 15.6351 11.6931C15.6308 11.7114 15.6247 11.7294 15.618 11.747C15.612 11.7595 15.6067 11.7721 15.6011 11.7844C15.5941 11.8024 15.5852 11.8199 15.5756 11.8369C15.5688 11.8469 15.5625 11.8574 15.556 11.8677C15.5461 11.8851 15.5345 11.9017 15.5221 11.9178C15.5137 11.9273 15.5058 11.9371 15.4977 11.9466C15.4866 11.9606 15.4742 11.9739 15.4612 11.9867L12.7763 14.6588C12.6424 14.7926 12.4664 14.8596 12.2914 14.8596C12.1154 14.8596 11.9384 14.7926 11.8046 14.657C11.536 14.3875 11.5379 13.953 11.8064 13.6853L13.3104 12.1875H3.9375C3.558 12.1875 3.25 11.8795 3.25 11.5C3.25 11.1205 3.558 10.8125 3.9375 10.8125H13.3104L11.8064 9.31373C11.5379 9.04606 11.536 8.61156 11.8046 8.34206C12.0732 8.07256 12.5077 8.07256 12.7763 8.34023Z" fill="white"/>
</svg>
