<svg width="32" height="32" viewBox="0 0 32 32" fill="none" xmlns="http://www.w3.org/2000/svg">
<path fill-rule="evenodd" clip-rule="evenodd" d="M22.7373 2.66669C25.9893 2.66669 28.6373 5.31335 28.6373 8.56669V23.4187C28.6373 26.68 25.9827 29.3334 22.7227 29.3334H16.2093C12.9573 29.3334 10.3107 26.6867 10.3107 23.4334V22.1774C10.3107 21.6254 10.7587 21.1774 11.3107 21.1774C11.8627 21.1774 12.3107 21.6254 12.3107 22.1774V23.4334C12.3107 25.5827 14.06 27.3334 16.2093 27.3334H22.7227C24.8813 27.3334 26.6373 25.5787 26.6373 23.4187V8.56669C26.6373 6.41735 24.8867 4.66669 22.7373 4.66669H16.224C14.0667 4.66669 12.3107 6.42135 12.3107 8.57869V9.82269C12.3107 10.3747 11.8627 10.8227 11.3107 10.8227C10.7587 10.8227 10.3107 10.3747 10.3107 9.82269V8.57869C10.3107 5.31869 12.964 2.66669 16.224 2.66669H22.7373ZM17.8564 11.404L21.7617 15.293C21.7933 15.3247 21.8229 15.3585 21.8501 15.3942L21.7617 15.292C21.815 15.3445 21.8616 15.4025 21.9011 15.4646C21.9091 15.4802 21.9182 15.4954 21.9269 15.5108C21.9421 15.5347 21.955 15.5601 21.9668 15.5859C21.9734 15.6043 21.9811 15.6225 21.9882 15.641C21.9996 15.6664 22.0084 15.6924 22.0161 15.7188C22.0206 15.7396 22.026 15.7604 22.0307 15.7814C22.0379 15.8068 22.0426 15.8324 22.0463 15.8581C22.0463 15.8698 22.0479 15.8822 22.0492 15.8945C22.0545 15.9297 22.0564 15.9648 22.0564 16L22.0467 16.1054L22.0455 16.1357C22.0452 16.1379 22.0449 16.1402 22.0446 16.1424L22.0564 16C22.0564 16.074 22.0482 16.1473 22.0323 16.2186C22.026 16.2397 22.0206 16.2604 22.0146 16.2809C22.0084 16.3076 21.9996 16.3337 21.9897 16.3593C21.9811 16.3775 21.9734 16.3958 21.9652 16.4137C21.955 16.44 21.9421 16.4653 21.9282 16.4901C21.9182 16.5047 21.9091 16.5199 21.8996 16.5348C21.8853 16.5603 21.8684 16.5844 21.8504 16.6078C21.8381 16.6216 21.8266 16.6358 21.8148 16.6496C21.7988 16.67 21.7807 16.6894 21.7617 16.708L17.8564 20.5947C17.6617 20.7894 17.4057 20.8867 17.1511 20.8867C16.8951 20.8867 16.6377 20.7894 16.4431 20.592C16.0524 20.2 16.0551 19.568 16.4457 19.1787L18.6333 17H5C4.448 17 4 16.552 4 16C4 15.448 4.448 15 5 15H18.6333L16.4457 12.82C16.0551 12.4307 16.0524 11.7987 16.4431 11.4067C16.8337 11.0147 17.4657 11.0147 17.8564 11.404Z" fill="white"/>
</svg>
