<svg width="243" height="47" viewBox="0 0 243 47" fill="none" xmlns="http://www.w3.org/2000/svg">
<path d="M0 10.4582L23.3876 0L46.2696 10.4582L40.6476 12.2009L40.6756 20.9715C41.075 21.3139 41.3268 21.7973 41.3783 22.3208C41.3915 22.5295 41.3584 22.7385 41.2815 22.9329C41.2045 23.1273 41.0857 23.3023 40.9333 23.4454L42.7276 26.2567C42.7276 26.2567 41.4183 27.4235 40.0548 27.4235C38.6912 27.4235 37.2742 26.2567 37.2742 26.2567L38.9048 23.4454C38.6343 23.1317 38.4792 22.7349 38.4651 22.3208C38.4651 21.6698 39.1861 20.9715 39.1861 20.9715V12.5947L33.6766 14.2253V19.114C33.6766 19.114 29.4809 14.0722 23.186 14.0722C16.8911 14.0722 12.8742 19.114 12.8742 19.114V13.9441C14.2534 12.9351 15.7583 12.1102 17.3508 11.4902C19.0442 10.8925 20.8072 10.5141 22.5968 10.3643C20.6542 10.2803 18.709 10.4524 16.8114 10.876C15.057 11.332 13.3725 12.0236 11.8039 12.9321L0 10.4582Z" fill="#386EE1"/>
<path d="M23.1326 16.1323C21.6886 16.1306 20.2584 16.4138 18.924 16.9656C17.5896 17.5174 16.3772 18.327 15.3561 19.348C14.3351 20.3691 13.5255 21.5815 12.9737 22.9159C12.4219 24.2504 12.1387 25.6805 12.1404 27.1245C12.1404 34.4541 23.1326 45.4481 23.1326 45.4481C23.1326 45.4481 34.1248 34.4559 34.1248 27.1245C34.1265 25.6805 33.8433 24.2504 33.2915 22.9159C32.7397 21.5815 31.9301 20.3691 30.909 19.348C29.888 18.327 28.6755 17.5174 27.3411 16.9656C26.0067 16.4138 24.5766 16.1306 23.1326 16.1323ZM23.1326 19.7971C24.5824 19.7967 25.9999 20.2262 27.2055 21.0314C28.4112 21.8367 29.351 22.9814 29.9061 24.3208C30.4611 25.6602 30.6064 27.1341 30.3237 28.5561C30.041 29.9781 29.3428 31.2843 28.3176 32.3095C27.2924 33.3347 25.9862 34.0329 24.5642 34.3156C23.1422 34.5983 21.6683 34.453 20.3289 33.898C18.9895 33.3429 17.8448 32.4031 17.0395 31.1974C16.2343 29.9918 15.8048 28.5743 15.8052 27.1245C15.8052 25.1811 16.5772 23.3174 17.9513 21.9432C19.3255 20.5691 21.1892 19.7971 23.1326 19.7971Z" fill="#386EE1"/>
<path d="M54.403 14.1467H70.368V18.2387H64.509V35.8467H60.231V18.2387H54.403V14.1467ZM81.5348 22.1757V20.3467H85.5338V35.8467H81.5348V34.0177C80.3361 35.5264 78.6518 36.2807 76.4818 36.2807C74.4151 36.2807 72.6378 35.4954 71.1498 33.9247C69.6824 32.3334 68.9488 30.3907 68.9488 28.0967C68.9488 25.8234 69.6824 23.8911 71.1498 22.2997C72.6378 20.7084 74.4151 19.9127 76.4818 19.9127C78.6518 19.9127 80.3361 20.6671 81.5348 22.1757ZM74.1568 31.2587C74.9628 32.0647 75.9858 32.4677 77.2258 32.4677C78.4658 32.4677 79.4888 32.0647 80.2948 31.2587C81.1214 30.4321 81.5348 29.3781 81.5348 28.0967C81.5348 26.8154 81.1214 25.7717 80.2948 24.9657C79.4888 24.1391 78.4658 23.7257 77.2258 23.7257C75.9858 23.7257 74.9628 24.1391 74.1568 24.9657C73.3508 25.7717 72.9478 26.8154 72.9478 28.0967C72.9478 29.3781 73.3508 30.4321 74.1568 31.2587ZM93.1591 35.8467H89.1601V13.2167H93.1591V35.8467ZM108.599 22.1757V20.3467H112.598V35.8467H108.599V34.0177C107.401 35.5264 105.716 36.2807 103.546 36.2807C101.48 36.2807 99.7022 35.4954 98.2142 33.9247C96.7469 32.3334 96.0132 30.3907 96.0132 28.0967C96.0132 25.8234 96.7469 23.8911 98.2142 22.2997C99.7022 20.7084 101.48 19.9127 103.546 19.9127C105.716 19.9127 107.401 20.6671 108.599 22.1757ZM101.221 31.2587C102.027 32.0647 103.05 32.4677 104.29 32.4677C105.53 32.4677 106.553 32.0647 107.359 31.2587C108.186 30.4321 108.599 29.3781 108.599 28.0967C108.599 26.8154 108.186 25.7717 107.359 24.9657C106.553 24.1391 105.53 23.7257 104.29 23.7257C103.05 23.7257 102.027 24.1391 101.221 24.9657C100.415 25.7717 100.012 26.8154 100.012 28.0967C100.012 29.3781 100.415 30.4321 101.221 31.2587ZM125.246 19.9127C127.333 19.9127 129.11 20.7084 130.578 22.2997C132.066 23.8911 132.81 25.8234 132.81 28.0967C132.81 30.4114 132.066 32.3541 130.578 33.9247C129.131 35.4954 127.354 36.2807 125.246 36.2807C123.076 36.2807 121.402 35.5264 120.224 34.0177V35.8467H116.225V14.1467H120.224V22.1757C121.402 20.6671 123.076 19.9127 125.246 19.9127ZM121.433 31.2587C122.239 32.0647 123.262 32.4677 124.502 32.4677C125.742 32.4677 126.765 32.0647 127.571 31.2587C128.397 30.4321 128.811 29.3781 128.811 28.0967C128.811 26.8154 128.397 25.7717 127.571 24.9657C126.765 24.1391 125.742 23.7257 124.502 23.7257C123.262 23.7257 122.239 24.1391 121.433 24.9657C120.627 25.7717 120.224 26.8154 120.224 28.0967C120.224 29.3781 120.627 30.4321 121.433 31.2587ZM147.41 22.1757V20.3467H151.409V35.8467H147.41V34.0177C146.211 35.5264 144.527 36.2807 142.357 36.2807C140.29 36.2807 138.513 35.4954 137.025 33.9247C135.557 32.3334 134.824 30.3907 134.824 28.0967C134.824 25.8234 135.557 23.8911 137.025 22.2997C138.513 20.7084 140.29 19.9127 142.357 19.9127C144.527 19.9127 146.211 20.6671 147.41 22.1757ZM140.032 31.2587C140.838 32.0647 141.861 32.4677 143.101 32.4677C144.341 32.4677 145.364 32.0647 146.17 31.2587C146.996 30.4321 147.41 29.3781 147.41 28.0967C147.41 26.8154 146.996 25.7717 146.17 24.9657C145.364 24.1391 144.341 23.7257 143.101 23.7257C141.861 23.7257 140.838 24.1391 140.032 24.9657C139.226 25.7717 138.823 26.8154 138.823 28.0967C138.823 29.3781 139.226 30.4321 140.032 31.2587ZM172.178 19.9127C173.955 19.9127 175.371 20.4914 176.425 21.6487C177.5 22.8061 178.037 24.3561 178.037 26.2987V35.8467H174.038V26.5777C174.038 25.6477 173.811 24.9244 173.356 24.4077C172.901 23.8911 172.261 23.6327 171.434 23.6327C170.525 23.6327 169.812 23.9324 169.295 24.5317C168.799 25.1311 168.551 25.9991 168.551 27.1357V35.8467H164.552V26.5777C164.552 25.6477 164.325 24.9244 163.87 24.4077C163.415 23.8911 162.775 23.6327 161.948 23.6327C161.059 23.6327 160.346 23.9427 159.809 24.5627C159.292 25.1621 159.034 26.0197 159.034 27.1357V35.8467H155.035V20.3467H159.034V21.9897C159.964 20.6051 161.4 19.9127 163.343 19.9127C165.265 19.9127 166.67 20.6567 167.559 22.1447C168.572 20.6567 170.111 19.9127 172.178 19.9127ZM183.417 18.4867C182.756 18.4867 182.177 18.2491 181.681 17.7737C181.206 17.2777 180.968 16.6991 180.968 16.0377C180.968 15.3764 181.206 14.7977 181.681 14.3017C182.177 13.8057 182.756 13.5577 183.417 13.5577C184.099 13.5577 184.678 13.8057 185.153 14.3017C185.649 14.7977 185.897 15.3764 185.897 16.0377C185.897 16.6991 185.649 17.2777 185.153 17.7737C184.678 18.2491 184.099 18.4867 183.417 18.4867ZM185.432 35.8467H181.433V20.3467H185.432V35.8467ZM200.532 23.0127L193.96 32.0957H200.842V35.8467H188.597V33.1807L195.138 24.0977H188.907V20.3467H200.532V23.0127ZM222.3 28.7167V20.3467H226.299V35.8467H222.3V34.1107C221.35 35.5574 219.81 36.2807 217.681 36.2807C215.987 36.2807 214.581 35.7124 213.465 34.5757C212.37 33.4184 211.822 31.8477 211.822 29.8637V20.3467H215.821V29.3677C215.821 30.3804 216.09 31.1657 216.627 31.7237C217.185 32.2817 217.94 32.5607 218.89 32.5607C219.944 32.5607 220.771 32.2404 221.37 31.5997C221.99 30.9384 222.3 29.9774 222.3 28.7167ZM241.401 23.0127L234.829 32.0957H241.711V35.8467H229.466V33.1807L236.007 24.0977H229.776V20.3467H241.401V23.0127Z" fill="black"/>
<path d="M208.735 33.6147C208.735 34.3381 208.477 34.9581 207.96 35.4747C207.444 35.9914 206.824 36.2497 206.1 36.2497C205.377 36.2497 204.757 35.9914 204.24 35.4747C203.724 34.9581 203.465 34.3381 203.465 33.6147C203.465 32.8914 203.724 32.2714 204.24 31.7547C204.757 31.2381 205.377 30.9797 206.1 30.9797C206.824 30.9797 207.444 31.2381 207.96 31.7547C208.477 32.2714 208.735 32.8914 208.735 33.6147Z" fill="#FF9300"/>
</svg>
