<svg width="256" height="32" viewBox="0 0 256 32" fill="none" xmlns="http://www.w3.org/2000/svg">
<path d="M15.5482 28.6106C13.9454 30.3644 11.9292 31.2959 9.49963 31.4051C7.07008 31.5144 4.97043 30.7679 3.20069 29.1658C1.4462 27.547 0.514342 25.5228 0.405104 23.0933C0.295866 20.6637 1.04267 18.5721 2.64551 16.8183C4.26362 15.0478 6.28745 14.108 8.717 13.9987C11.1465 13.8895 13.2386 14.6443 14.993 16.2631C16.7628 17.8652 17.7023 19.8811 17.8115 22.3106C17.9208 24.7402 17.1663 26.8402 15.5482 28.6106ZM5.05864 27.2084C6.27649 28.2908 7.71657 28.7946 9.37889 28.7199C11.0572 28.6444 12.4383 28.0137 13.5221 26.8279C14.6212 25.6253 15.1319 24.1609 15.0543 22.4346C14.9767 20.7083 14.3369 19.3037 13.1351 18.2205C11.9485 17.1207 10.516 16.6086 8.83773 16.684C7.15943 16.7595 5.77073 17.3985 4.67164 18.6011C3.58781 19.787 3.0847 21.243 3.16232 22.9693C3.23922 24.6796 3.87132 26.0926 5.05864 27.2084ZM20.2665 13.7918L23.1436 13.6624L21.7456 19.9716L19.5878 20.0686L20.2665 13.7918ZM34.8649 19.67L29.6299 27.7373L35.4561 27.4753L35.566 29.9208L26.2155 30.3413L26.1378 28.615L31.3967 20.5466L26.0262 20.7881L25.9162 18.3426L34.7873 17.9437L34.8649 19.67ZM39.7834 15.4368C39.4781 15.7708 39.1017 15.9479 38.6542 15.968C38.2066 15.9882 37.8078 15.8459 37.4578 15.5413C37.123 15.2201 36.9456 14.8356 36.9255 14.3881C36.9053 13.9405 37.0479 13.5497 37.3532 13.2157C37.6578 12.8657 38.0419 12.6802 38.5054 12.6594C38.9689 12.6385 39.3681 12.7888 39.7029 13.11C40.0369 13.4154 40.214 13.7918 40.2341 14.2393C40.2542 14.6869 40.104 15.086 39.7834 15.4368ZM40.5687 29.6959L37.9793 29.8123L37.4403 17.8244L40.0297 17.708L40.5687 29.6959ZM51.7931 18.9088L46.5582 26.9761L52.3843 26.7142L52.4942 29.1597L43.1437 29.5801L43.0661 27.8539L48.325 19.7855L42.9544 20.027L42.8444 17.5815L51.7155 17.1826L51.7931 18.9088ZM67.1336 16.177C68.7799 16.103 70.2138 16.6472 71.4353 17.8095C72.6567 18.9718 73.3073 20.44 73.3871 22.2143C73.4669 23.9885 72.9507 25.5092 71.8385 26.7764C70.7262 28.0437 69.347 28.7143 67.7006 28.7883C65.8785 28.8702 64.4494 28.2538 63.4133 26.939L63.4909 28.6653L60.9015 28.7817L60.1469 11.9986L62.7363 11.8822L63.0284 18.3797C63.959 16.9925 65.3274 16.2583 67.1336 16.177ZM64.4242 25.38C65.1759 26.067 66.0951 26.386 67.182 26.3371C68.2689 26.2883 69.1558 25.888 69.8428 25.1364C70.529 24.3688 70.8473 23.4336 70.7977 22.3307C70.7481 21.2278 70.3475 20.3329 69.5959 19.6459C68.8436 18.943 67.924 18.616 66.8371 18.6649C65.7502 18.7137 64.8636 19.122 64.1774 19.8896C63.4905 20.6412 63.1718 21.5684 63.2214 22.6713C63.2702 23.7582 63.6712 24.6611 64.4242 25.38ZM77.8075 13.7271C77.5022 14.0612 77.1258 14.2383 76.6783 14.2584C76.2307 14.2785 75.8319 14.1363 75.4819 13.8317C75.1471 13.5104 74.9697 13.126 74.9495 12.6784C74.9294 12.2309 75.072 11.8401 75.3773 11.506C75.6819 11.156 76.066 10.9706 76.5295 10.9497C76.993 10.9289 77.3922 11.0791 77.7269 11.4004C78.061 11.7057 78.2381 12.0821 78.2582 12.5297C78.2783 12.9772 78.1281 13.3764 77.8075 13.7271ZM78.5928 27.9863L76.0034 28.1027L75.4644 16.1148L78.0538 15.9984L78.5928 27.9863ZM84.1887 27.7346L81.5993 27.8511L80.8124 10.3488L83.4018 10.2323L84.1887 27.7346ZM96.2272 16.887L96.1506 15.1847L98.74 15.0683L99.279 27.0562L96.6896 27.1726L96.612 25.4463C95.6981 26.8488 94.3301 27.591 92.5079 27.6729C90.8616 27.7469 89.4277 27.2028 88.2062 26.0405C86.9848 24.8782 86.3342 23.4099 86.2544 21.6357C86.1746 19.8615 86.6909 18.3408 87.8031 17.0735C88.9153 15.8063 90.2945 15.1357 91.9409 15.0617C93.763 14.9797 95.1918 15.5882 96.2272 16.887ZM90.0467 24.228C90.7983 24.9149 91.7175 25.234 92.8044 25.1851C93.8913 25.1362 94.7783 24.736 95.4652 23.9844C96.1514 23.2168 96.4697 22.2815 96.4201 21.1786C96.3706 20.0757 95.97 19.1808 95.2183 18.4939C94.466 17.791 93.5464 17.464 92.4595 17.5128C91.3726 17.5617 90.486 17.9699 89.7998 18.7375C89.1129 19.4891 88.7942 20.4164 88.8438 21.5193C88.8927 22.6062 89.2936 23.5091 90.0467 24.228ZM104.162 18.1398C104.179 18.5074 104.384 18.8025 104.779 19.025C105.172 19.2315 105.742 19.4222 106.486 19.5969C107.051 19.6996 107.545 19.8136 107.967 19.9387C108.389 20.0639 108.838 20.2599 109.315 20.5268C109.79 20.7777 110.159 21.1295 110.419 21.5822C110.695 22.0183 110.839 22.5404 110.85 23.1485C110.902 24.2993 110.495 25.2225 109.629 25.9181C108.764 26.6137 107.667 26.9913 106.341 27.051C105.158 27.1041 104.132 26.902 103.262 26.4446C102.393 25.9872 101.747 25.3276 101.324 24.4657L103.495 23.0708C103.946 24.2036 104.859 24.7392 106.234 24.6774C107.593 24.6163 108.252 24.1382 108.212 23.2431C108.182 22.5877 107.4 22.1104 105.865 21.811C105.283 21.6931 104.789 21.5711 104.383 21.4452C103.993 21.3186 103.552 21.1302 103.06 20.8801C102.585 20.6292 102.209 20.2857 101.933 19.8497C101.673 19.4129 101.538 18.8985 101.527 18.3063C101.478 17.2035 101.853 16.2977 102.654 15.589C103.471 14.8796 104.503 14.4968 105.75 14.4408C106.741 14.3962 107.63 14.5805 108.417 14.9935C109.22 15.3899 109.847 15.9703 110.297 16.7348L108.171 18.0557C107.73 17.1626 106.958 16.7408 105.855 16.7904C105.344 16.8134 104.925 16.9443 104.6 17.1832C104.29 17.4213 104.144 17.7402 104.162 18.1398ZM114.942 12.0575C114.637 12.3915 114.26 12.5686 113.813 12.5887C113.365 12.6089 112.966 12.4666 112.616 12.1621C112.281 11.8408 112.104 11.4564 112.084 11.0088C112.064 10.5613 112.206 10.1705 112.512 9.83641C112.816 9.48637 113.2 9.30093 113.664 9.28009C114.127 9.25925 114.527 9.40947 114.861 9.73076C115.195 10.0361 115.372 10.4125 115.393 10.86C115.413 11.3076 115.262 11.7067 114.942 12.0575ZM115.727 26.3166L113.138 26.433L112.599 14.4451L115.188 14.3287L115.727 26.3166ZM126.952 15.5296L121.717 23.5968L127.543 23.3349L127.653 25.7804L118.302 26.2008L118.225 24.4746L123.483 16.4062L118.113 16.6477L118.003 14.2022L126.874 13.8033L126.952 15.5296ZM140.923 21.8924L143.601 13.0512L146.358 12.9273L142.311 25.5057C141.299 28.6583 139.416 30.2165 136.659 30.1803L136.55 27.7588C137.352 27.7708 137.991 27.5738 138.47 27.1679C138.948 26.7621 139.336 26.128 139.633 25.2658L139.742 25.0206L134.13 13.477L136.959 13.3498L140.923 21.8924ZM158.122 22.8969C156.962 24.1663 155.494 24.8409 153.72 24.9207C151.946 25.0005 150.424 24.4603 149.155 23.3001C147.869 22.1247 147.186 20.6579 147.107 18.8996C147.028 17.1414 147.576 15.6193 148.752 14.3332C149.912 13.0638 151.379 12.3892 153.153 12.3094C154.927 12.2296 156.449 12.7698 157.718 13.93C159.005 15.1054 159.687 16.5722 159.766 18.3305C159.845 20.0887 159.297 21.6108 158.122 22.8969ZM149.696 18.7832C149.745 19.8701 150.145 20.757 150.897 21.444C151.649 22.1309 152.552 22.4507 153.607 22.4032C154.662 22.3558 155.533 21.9563 156.22 21.2047C156.907 20.453 157.226 19.5338 157.177 18.4469C157.128 17.36 156.728 16.4731 155.976 15.7861C155.224 15.0992 154.321 14.7794 153.266 14.8269C152.211 14.8743 151.34 15.2738 150.653 16.0254C149.967 16.7771 149.648 17.6963 149.696 18.7832ZM171.41 13.5306L171.332 11.8043L173.922 11.6879L174.676 28.471L172.087 28.5874L171.795 22.09C170.88 23.4764 169.512 24.2106 167.69 24.2926C166.043 24.3666 164.61 23.8225 163.388 22.6601C162.167 21.4978 161.516 20.0296 161.436 18.2554C161.357 16.4971 161.874 14.9844 162.986 13.7172C164.113 12.4332 165.492 11.7546 167.123 11.6813C168.945 11.5994 170.374 12.2158 171.41 13.5306ZM165.229 20.8476C165.98 21.5346 166.899 21.8536 167.986 21.8047C169.073 21.7559 169.96 21.3556 170.647 20.604C171.333 19.8364 171.652 18.9012 171.602 17.7983C171.552 16.6954 171.152 15.8005 170.4 15.1136C169.648 14.4106 168.728 14.0836 167.641 14.1325C166.554 14.1814 165.668 14.5896 164.982 15.3572C164.295 16.1088 163.976 17.0361 164.026 18.1389C164.075 19.2258 164.475 20.1287 165.229 20.8476ZM190.017 10.6519C191.375 10.5909 192.49 10.9812 193.361 11.8229C194.231 12.6647 194.7 13.8288 194.767 15.3153L195.101 22.7478L192.512 22.8642L192.185 15.5995C192.149 14.7844 191.912 14.1544 191.476 13.7095C191.039 13.2647 190.461 13.0584 189.742 13.0907C188.927 13.1274 188.3 13.4279 187.861 13.9922C187.421 14.5405 187.224 15.3341 187.271 16.3731L187.573 23.0863L184.983 23.2027L184.657 15.938C184.619 15.1069 184.391 14.4765 183.971 14.0469C183.567 13.6006 183.005 13.3937 182.286 13.426C181.486 13.4619 180.851 13.7628 180.38 14.3285C179.925 14.8935 179.721 15.6875 179.767 16.7105L180.068 23.4237L177.479 23.5401L176.94 11.5522L179.529 11.4358L179.594 12.8743C180.309 11.673 181.425 11.0382 182.944 10.97C184.478 10.901 185.642 11.4813 186.434 12.711C187.16 11.413 188.354 10.7267 190.017 10.6519ZM206.904 11.9107L206.828 10.2084L209.417 10.092L209.956 22.0799L207.367 22.1963L207.289 20.47C206.375 21.8725 205.007 22.6147 203.185 22.6966C201.539 22.7706 200.105 22.2265 198.883 21.0642C197.662 19.9019 197.011 18.4336 196.932 16.6594C196.852 14.8852 197.368 13.3645 198.48 12.0973C199.593 10.83 200.972 10.1594 202.618 10.0854C204.44 10.0034 205.869 10.6119 206.904 11.9107ZM200.724 19.2517C201.476 19.9386 202.395 20.2577 203.482 20.2088C204.569 20.1599 205.456 19.7597 206.142 19.0081C206.829 18.2405 207.147 17.3052 207.097 16.2023C207.048 15.0995 206.647 14.2045 205.896 13.5176C205.143 12.8147 204.224 12.4877 203.137 12.5365C202.05 12.5854 201.163 12.9936 200.477 13.7612C199.79 14.5129 199.471 15.4401 199.521 16.543C199.57 17.6299 199.971 18.5328 200.724 19.2517ZM214.84 13.1635C214.856 13.5312 215.062 13.8262 215.456 14.0487C215.85 14.2553 216.419 14.4459 217.163 14.6206C217.729 14.7233 218.222 14.8373 218.644 14.9624C219.066 15.0876 219.516 15.2836 219.992 15.5505C220.468 15.8014 220.836 16.1532 221.097 16.606C221.372 17.042 221.516 17.5641 221.527 18.1722C221.579 19.323 221.172 20.2462 220.306 20.9418C219.441 21.6374 218.345 22.015 217.018 22.0747C215.835 22.1278 214.809 21.9257 213.94 21.4683C213.07 21.0109 212.424 20.3513 212.001 19.4894L214.172 18.0945C214.624 19.2273 215.537 19.7629 216.911 19.7011C218.27 19.64 218.929 19.1619 218.889 18.2668C218.859 17.6115 218.077 17.1341 216.542 16.8348C215.96 16.7168 215.466 16.5948 215.06 16.4689C214.67 16.3423 214.229 16.154 213.738 15.9038C213.262 15.6529 212.886 15.3094 212.61 14.8734C212.35 14.4366 212.215 13.9222 212.204 13.3301C212.155 12.2272 212.531 11.3214 213.331 10.6127C214.148 9.90328 215.18 9.52054 216.427 9.46449C217.418 9.41993 218.307 9.60418 219.095 10.0172C219.897 10.4136 220.524 10.994 220.975 11.7585L218.848 13.0794C218.407 12.1863 217.636 11.7645 216.533 11.8141C216.021 11.8371 215.603 11.968 215.277 12.2069C214.967 12.4451 214.822 12.7639 214.84 13.1635ZM232.683 10.7516L232.607 9.04934L235.196 8.93291L235.735 20.9208L233.146 21.0372L233.068 19.311C232.154 20.7134 230.786 21.4556 228.964 21.5376C227.317 21.6116 225.884 21.0674 224.662 19.9051C223.441 18.7428 222.79 17.2746 222.71 15.5004C222.631 13.7261 223.147 12.2054 224.259 10.9382C225.371 9.67095 226.75 9.00032 228.397 8.9263C230.219 8.84437 231.648 9.45281 232.683 10.7516ZM226.503 18.0926C227.254 18.7796 228.173 19.0986 229.26 19.0497C230.347 19.0009 231.234 18.6006 231.921 17.849C232.607 17.0814 232.926 16.1462 232.876 15.0433C232.826 13.9404 232.426 13.0455 231.674 12.3586C230.922 11.6556 230.002 11.3286 228.915 11.3775C227.828 11.4263 226.942 11.8346 226.256 12.6022C225.569 13.3538 225.25 14.281 225.3 15.3839C225.349 16.4708 225.75 17.3737 226.503 18.0926ZM244.035 10.025C244.012 9.5135 244.161 9.08238 244.481 8.73163C244.817 8.36418 245.241 8.16895 245.752 8.14595C246.246 8.09171 246.678 8.24848 247.047 8.61629C247.416 8.98409 247.611 9.39975 247.631 9.86329C247.652 10.3268 247.496 10.7583 247.161 11.1577C246.793 11.5266 246.378 11.7215 245.914 11.7423C245.451 11.7632 245.019 11.6064 244.62 11.272C244.22 10.9376 244.025 10.5219 244.035 10.025ZM246.157 17.1369C246.652 17.1146 247.084 17.2714 247.451 17.6072C247.819 17.943 248.013 18.3587 248.036 18.8542C248.058 19.3497 247.901 19.7812 247.565 20.1486C247.23 20.5161 246.814 20.711 246.318 20.7332C245.823 20.7555 245.391 20.5987 245.024 20.2629C244.656 19.9271 244.462 19.5114 244.439 19.0159C244.417 18.5204 244.566 18.0893 244.886 17.7225C245.222 17.3551 245.645 17.1599 246.157 17.1369ZM256.001 22.412L253.411 22.5285C251.495 19.0911 250.454 15.5342 250.289 11.8579C250.124 8.18165 250.841 4.54575 252.441 0.950254L255.031 0.833829C253.43 4.42933 252.713 8.06522 252.878 11.7415C253.044 15.4178 254.084 18.9746 256.001 22.412Z" fill="url(#paint0_linear)"/>
<defs>
<linearGradient id="paint0_linear" x1="127.37" y1="4.77189" x2="128.673" y2="33.7426" gradientUnits="userSpaceOnUse">
<stop stop-color="#011F3B"/>
<stop offset="1" stop-color="#011F3B" stop-opacity="0"/>
</linearGradient>
</defs>
</svg>
