<svg width="23" height="23" viewBox="0 0 23 23" fill="none" xmlns="http://www.w3.org/2000/svg">
<path fill-rule="evenodd" clip-rule="evenodd" d="M13.3109 2.33362C13.3503 2.33362 13.3889 2.33693 13.4265 2.3433L13.5519 2.34407C13.7389 2.34407 13.9177 2.42015 14.0478 2.5549L18.6908 7.39215C18.8136 7.51957 18.8825 7.69098 18.8825 7.8679V16.2701C18.8988 18.57 17.1077 20.4492 14.8041 20.5427L7.45334 20.5436H7.35343C5.10765 20.4928 3.30649 18.6765 3.25162 16.4526L3.25134 6.44982C3.30451 4.17557 5.18276 2.34407 7.44051 2.34407L13.1954 2.3433C13.233 2.33693 13.2716 2.33362 13.3109 2.33362ZM12.6233 3.7187L7.44234 3.71907C5.92343 3.71907 4.66209 4.94923 4.62634 6.46632V16.2701C4.59243 17.8403 5.82993 19.1337 7.38459 19.1686H14.7766C16.3065 19.1053 17.5183 17.8339 17.5074 16.2756L17.5073 8.7347L15.6649 8.73562C13.9874 8.73103 12.6234 7.36337 12.6234 5.6877L12.6233 3.7187ZM13.1397 13.891C13.5192 13.891 13.8272 14.199 13.8272 14.5785C13.8272 14.958 13.5192 15.266 13.1397 15.266H8.1897C7.8102 15.266 7.5022 14.958 7.5022 14.5785C7.5022 14.199 7.8102 13.891 8.1897 13.891H13.1397ZM11.2652 10.4517C11.6447 10.4517 11.9527 10.7597 11.9527 11.1392C11.9527 11.5187 11.6447 11.8267 11.2652 11.8267H8.18888C7.80938 11.8267 7.50138 11.5187 7.50138 11.1392C7.50138 10.7597 7.80938 10.4517 8.18888 10.4517H11.2652ZM13.9983 4.48962L13.9984 5.6877C13.9984 6.60803 14.7474 7.35787 15.6668 7.36062L16.7538 7.3597L13.9983 4.48962Z" fill="white"/>
</svg>
