<svg width="32" height="32" viewBox="0 0 32 32" fill="none" xmlns="http://www.w3.org/2000/svg">
<path fill-rule="evenodd" clip-rule="evenodd" d="M18.634 2.66705C18.6912 2.66705 18.7474 2.67187 18.802 2.68113L18.9845 2.68225C19.2565 2.68225 19.5165 2.79292 19.7058 2.98892L26.4592 10.0249C26.6378 10.2103 26.738 10.4596 26.738 10.7169V22.9383C26.7618 26.2836 24.1565 29.0169 20.8058 29.1529L10.1138 29.1543H9.9685C6.70191 29.0804 4.08205 26.4385 4.00223 23.2038L4.00183 8.65425C4.07916 5.34625 6.81116 2.68225 10.0952 2.68225L18.4659 2.68113C18.5206 2.67187 18.5767 2.66705 18.634 2.66705ZM17.6338 4.68172L10.0978 4.68225C7.8885 4.68225 6.05383 6.47159 6.00183 8.67825V22.9383C5.9525 25.2223 7.7525 27.1036 10.0138 27.1543H20.7658C22.9912 27.0623 24.7538 25.2129 24.7379 22.9463L24.7378 11.9777L22.058 11.9791C19.618 11.9724 17.634 9.98305 17.634 7.54572L17.6338 4.68172ZM18.3849 19.4779C18.9369 19.4779 19.3849 19.9259 19.3849 20.4779C19.3849 21.0299 18.9369 21.4779 18.3849 21.4779H11.1849C10.6329 21.4779 10.1849 21.0299 10.1849 20.4779C10.1849 19.9259 10.6329 19.4779 11.1849 19.4779H18.3849ZM15.6584 14.4752C16.2104 14.4752 16.6584 14.9232 16.6584 15.4752C16.6584 16.0272 16.2104 16.4752 15.6584 16.4752H11.1837C10.6317 16.4752 10.1837 16.0272 10.1837 15.4752C10.1837 14.9232 10.6317 14.4752 11.1837 14.4752H15.6584ZM19.6338 5.80305L19.634 7.54572C19.634 8.88439 20.7233 9.97505 22.0606 9.97905L23.6418 9.97772L19.6338 5.80305Z" fill="white"/>
</svg>
