<svg width="32" height="32" viewBox="0 0 32 32" fill="none" xmlns="http://www.w3.org/2000/svg">
<path fill-rule="evenodd" clip-rule="evenodd" d="M16.6448 2.66669C18.1555 2.66669 26.0821 5.38802 27.1315 6.43735C28.0061 7.31202 27.9928 8.01869 27.9315 11.4054C27.9075 12.7627 27.8741 14.612 27.8741 17.172C27.8741 26.348 17.3808 29.6307 16.9341 29.7654C16.8395 29.7947 16.7421 29.808 16.6448 29.808C16.5475 29.808 16.4501 29.7947 16.3555 29.7654C15.9088 29.6307 5.41548 26.348 5.41548 17.172C5.41548 14.616 5.38214 12.7667 5.35814 11.4094C5.34719 10.8039 5.33777 10.284 5.33467 9.83345L5.33429 9.32504C5.34573 7.65485 5.50248 7.09335 6.15948 6.43735C7.20614 5.38802 15.1328 2.66669 16.6448 2.66669ZM16.6448 4.66669C15.5141 4.66669 8.38081 7.17869 7.55814 7.86535C7.31548 8.10935 7.30614 8.53335 7.35814 11.372C7.38214 12.74 7.41548 14.5987 7.41548 17.172C7.41548 24.1067 15.0448 27.1854 16.6435 27.752C18.2408 27.1827 25.8741 24.0867 25.8741 17.172C25.8741 14.596 25.9075 12.736 25.9328 11.368C25.9835 8.53202 25.9741 8.10802 25.7168 7.85202C24.9101 7.17869 17.7755 4.66669 16.6448 4.66669ZM21.6068 12.4527C21.9975 12.8434 21.9975 13.4767 21.6068 13.8674L16.4095 19.066C16.2601 19.2164 16.0673 19.3139 15.8603 19.3469L15.7028 19.3594C15.4375 19.3594 15.1828 19.254 14.9948 19.066L12.4721 16.5407C12.0828 16.15 12.0828 15.5154 12.4735 15.126C12.8628 14.7354 13.4975 14.7354 13.8881 15.126L15.7028 16.9434L20.1935 12.4527C20.5841 12.062 21.2161 12.062 21.6068 12.4527Z" fill="white"/>
</svg>
