<svg width="251" height="102" viewBox="0 0 251 102" fill="none" xmlns="http://www.w3.org/2000/svg">
<g filter="url(#filter0_d)">
<path d="M35.1096 64.791C34.5715 64.791 34.0463 64.7849 33.5125 64.7743C32.4064 64.7615 31.303 64.6763 30.2112 64.5193C29.1932 64.3641 28.207 64.0755 27.2851 63.6628C26.3718 63.2536 25.5387 62.7171 24.8178 62.0737C24.0865 61.438 23.4777 60.7006 23.0154 59.8908C22.5481 59.0757 22.2246 58.2021 22.0564 57.3003C21.8747 56.3313 21.7764 55.3515 21.7623 54.3694C21.7511 54.0397 21.7365 52.942 21.7365 52.942V16.8321C21.7365 16.8321 21.7521 15.7513 21.7624 15.4338C21.7759 14.4532 21.8736 13.4749 22.0547 12.5074C22.2233 11.6032 22.547 10.727 23.0146 9.90932C23.4751 9.10009 24.0806 8.36215 24.8075 7.72409C25.5336 7.07998 26.3693 6.54066 27.2843 6.12581C28.204 5.71451 29.1883 5.42789 30.2043 5.27554C31.2997 5.11698 32.407 5.03126 33.5168 5.01909L35.1104 5H216.617L218.23 5.01985C219.33 5.03142 220.427 5.11638 221.512 5.27401C222.539 5.42827 223.533 5.71689 224.463 6.13039C226.296 6.96644 227.788 8.28915 228.729 9.91313C229.189 10.7252 229.508 11.5942 229.674 12.4907C229.857 13.4661 229.96 14.452 229.981 15.4407C229.986 15.8834 229.986 16.3589 229.986 16.8321C230 17.4183 230 17.9762 230 18.5388V51.2537C230 51.8216 230 52.3757 229.986 52.9344C229.986 53.4427 229.986 53.9084 229.979 54.3877C229.959 55.3587 229.858 56.327 229.677 57.285C229.513 58.1933 229.191 59.0737 228.724 59.8955C228.258 60.6965 227.653 61.4275 226.93 62.0615C226.208 62.7084 225.374 63.2481 224.458 63.6599C223.531 64.0757 222.537 64.3654 221.512 64.5193C220.421 64.6771 219.317 64.7623 218.211 64.7743C217.694 64.7849 217.152 64.791 216.626 64.791L214.711 64.7941L35.1096 64.791Z" fill="white"/>
</g>
<path d="M71.6288 35.3684C71.6456 34.0639 71.9921 32.7849 72.636 31.6504C73.2799 30.5158 74.2004 29.5626 75.3117 28.8794C74.6057 27.8711 73.6743 27.0413 72.5915 26.456C71.5088 25.8706 70.3044 25.5458 69.0742 25.5073C66.4498 25.2318 63.9056 27.0777 62.5682 27.0777C61.205 27.0777 59.146 25.5346 56.9287 25.5802C55.4946 25.6266 54.0968 26.0436 52.8718 26.7908C51.6467 27.5379 50.636 28.5896 49.9383 29.8435C46.9158 35.0765 49.1703 42.7673 52.0656 46.9973C53.5142 49.0686 55.2072 51.3823 57.4224 51.3002C59.5902 51.2103 60.3998 49.9179 63.0165 49.9179C65.6088 49.9179 66.3684 51.3002 68.6286 51.2481C70.9547 51.2103 72.4202 49.1676 73.818 47.0766C74.8588 45.6008 75.6597 43.9696 76.1911 42.2435C74.8397 41.672 73.6864 40.7152 72.8751 39.4926C72.0638 38.27 71.6303 36.8357 71.6288 35.3684Z" fill="#122052"/>
<path d="M67.3596 22.7243C68.6279 21.2018 69.2527 19.2448 69.1014 17.269C67.1638 17.4726 65.3739 18.3986 64.0885 19.8627C63.46 20.578 62.9787 21.4101 62.672 22.3115C62.3653 23.2129 62.2392 24.1659 62.3011 25.116C63.2702 25.126 64.229 24.916 65.1053 24.5017C65.9815 24.0874 66.7523 23.4797 67.3596 22.7243Z" fill="#122052"/>
<path d="M99.0304 46.0548H91.6329L89.8564 51.3004H86.7231L93.7299 31.8931H96.9853L103.992 51.3004H100.805L99.0304 46.0548ZM92.399 43.6342H98.2628L95.3722 35.121H95.2913L92.399 43.6342Z" fill="#122052"/>
<path d="M119.124 44.2269C119.124 48.6239 116.771 51.4489 113.219 51.4489C112.32 51.496 111.425 51.2887 110.638 50.8509C109.85 50.4131 109.202 49.7624 108.767 48.9734H108.7V55.9817H105.796V37.1514H108.607V39.5048H108.661C109.115 38.7195 109.774 38.0722 110.568 37.6317C111.361 37.1913 112.259 36.9741 113.166 37.0033C116.757 37.0034 119.124 39.8421 119.124 44.2269ZM116.139 44.2269C116.139 41.3622 114.659 39.4789 112.4 39.4789C110.181 39.4789 108.688 41.4019 108.688 44.2269C108.688 47.0779 110.181 48.9871 112.4 48.9871C114.659 48.9871 116.139 47.1175 116.139 44.2269Z" fill="#122052"/>
<path d="M134.698 44.2269C134.698 48.6239 132.345 51.4489 128.793 51.4489C127.894 51.4959 126.999 51.2887 126.212 50.8509C125.424 50.4131 124.776 49.7624 124.341 48.9734H124.274V55.9817H121.37V37.1514H124.181V39.5048H124.234C124.689 38.7195 125.348 38.0722 126.142 37.6317C126.935 37.1913 127.833 36.9741 128.74 37.0033C132.331 37.0033 134.698 39.8421 134.698 44.2269ZM131.713 44.2269C131.713 41.3622 130.232 39.4788 127.974 39.4788C125.755 39.4788 124.262 41.4019 124.262 44.2269C124.262 47.0778 125.755 48.9871 127.974 48.9871C130.232 48.9871 131.713 47.1175 131.713 44.2269H131.713Z" fill="#122052"/>
<path d="M144.991 45.8938C145.206 47.8184 147.076 49.082 149.63 49.082C152.078 49.082 153.84 47.8183 153.84 46.083C153.84 44.5767 152.777 43.6747 150.262 43.0566L147.747 42.4506C144.183 41.5899 142.529 39.9232 142.529 37.2188C142.529 33.8703 145.447 31.5703 149.591 31.5703C153.692 31.5703 156.503 33.8703 156.598 37.2188H153.666C153.49 35.282 151.889 34.113 149.549 34.113C147.21 34.113 145.609 35.2958 145.609 37.0174C145.609 38.3894 146.631 39.1968 149.133 39.8148L151.271 40.3399C155.253 41.2815 156.907 42.881 156.907 45.7197C156.907 49.3506 154.015 51.6246 149.415 51.6246C145.111 51.6246 142.205 49.404 142.018 45.8937L144.991 45.8938Z" fill="#122052"/>
<path d="M163.175 33.8037V37.1522H165.866V39.4522H163.175V47.2526C163.175 48.4645 163.714 49.0292 164.897 49.0292C165.216 49.0236 165.535 49.0012 165.852 48.962V51.2482C165.321 51.3476 164.78 51.3926 164.239 51.3825C161.375 51.3825 160.257 50.3065 160.257 47.5624V39.4522H158.2V37.1522H160.257V33.8037H163.175Z" fill="#122052"/>
<path d="M167.425 44.2273C167.425 39.7753 170.047 36.9778 174.135 36.9778C178.238 36.9778 180.848 39.7753 180.848 44.2273C180.848 48.6914 178.251 51.4767 174.135 51.4767C170.021 51.4767 167.425 48.6914 167.425 44.2273ZM177.888 44.2273C177.888 41.1733 176.489 39.3709 174.135 39.3709C171.782 39.3709 170.384 41.1871 170.384 44.2273C170.384 47.2934 171.782 49.0821 174.135 49.0821C176.489 49.0821 177.888 47.2934 177.888 44.2273H177.888Z" fill="#122052"/>
<path d="M183.242 37.1513H186.012V39.5596H186.079C186.267 38.8074 186.707 38.1427 187.327 37.6771C187.947 37.2116 188.708 36.9736 189.483 37.0032C189.817 37.002 190.151 37.0384 190.478 37.1116V39.8282C190.055 39.6991 189.614 39.6398 189.173 39.6527C188.751 39.6356 188.33 39.71 187.94 39.8708C187.549 40.0316 187.198 40.2749 186.911 40.5842C186.623 40.8935 186.406 41.2613 186.274 41.6625C186.142 42.0636 186.099 42.4885 186.146 42.9081V51.3007H183.242L183.242 37.1513Z" fill="#122052"/>
<path d="M203.869 47.1454C203.478 49.714 200.976 51.4767 197.776 51.4767C193.66 51.4767 191.105 48.7189 191.105 44.2944C191.105 39.8562 193.673 36.9778 197.654 36.9778C201.569 36.9778 204.03 39.667 204.03 43.9571V44.9522H194.037V45.1277C193.991 45.6485 194.056 46.1731 194.228 46.6667C194.4 47.1603 194.675 47.6116 195.035 47.9907C195.395 48.3697 195.832 48.6678 196.316 48.8652C196.8 49.0626 197.321 49.1548 197.843 49.1355C198.529 49.1998 199.218 49.0409 199.807 48.6823C200.396 48.3237 200.853 47.7847 201.111 47.1454L203.869 47.1454ZM194.05 42.9224H201.124C201.15 42.4541 201.079 41.9856 200.916 41.5461C200.752 41.1066 200.5 40.7057 200.174 40.3685C199.848 40.0313 199.456 39.7651 199.022 39.5866C198.589 39.4081 198.123 39.3211 197.654 39.3312C197.181 39.3284 196.712 39.4192 196.274 39.5986C195.837 39.7779 195.439 40.0421 195.104 40.376C194.769 40.7099 194.503 41.1068 194.322 41.5438C194.142 41.9809 194.049 42.4494 194.05 42.9224V42.9224Z" fill="#122052"/>
<path d="M92.0348 17.2848C92.6437 17.2411 93.2547 17.333 93.8238 17.5541C94.3928 17.7751 94.9057 18.1197 95.3255 18.563C95.7453 19.0062 96.0614 19.5371 96.2511 20.1173C96.4409 20.6976 96.4995 21.3127 96.4227 21.9183C96.4227 24.8975 94.8125 26.6099 92.0348 26.6099H88.6665V17.2848H92.0348ZM90.1149 25.2912H91.8731C92.3082 25.3172 92.7436 25.2458 93.1476 25.0823C93.5517 24.9188 93.9142 24.6673 94.2088 24.346C94.5034 24.0248 94.7226 23.6419 94.8505 23.2252C94.9785 22.8085 95.0119 22.3685 94.9484 21.9373C95.0073 21.5078 94.9705 21.0706 94.8406 20.6569C94.7107 20.2433 94.4909 19.8635 94.197 19.5448C93.9031 19.2261 93.5423 18.9764 93.1405 18.8135C92.7388 18.6505 92.3059 18.5785 91.8731 18.6026H90.1149V25.2912Z" fill="#122052"/>
<path d="M98.0588 23.0881C98.0145 22.6257 98.0675 22.1591 98.2141 21.7182C98.3608 21.2774 98.5979 20.8721 98.9104 20.5283C99.2229 20.1845 99.6038 19.9098 100.029 19.7218C100.453 19.5339 100.913 19.4368 101.378 19.4368C101.842 19.4368 102.302 19.5339 102.726 19.7218C103.151 19.9098 103.532 20.1845 103.845 20.5283C104.157 20.8721 104.394 21.2774 104.541 21.7182C104.688 22.1591 104.741 22.6257 104.696 23.0881C104.741 23.5511 104.689 24.0183 104.543 24.4599C104.397 24.9014 104.16 25.3075 103.847 25.652C103.534 25.9964 103.153 26.2717 102.728 26.4601C102.303 26.6484 101.843 26.7458 101.378 26.7458C100.912 26.7458 100.452 26.6484 100.027 26.4601C99.6018 26.2717 99.2207 25.9964 98.9081 25.652C98.5956 25.3075 98.3585 24.9014 98.2123 24.4599C98.066 24.0183 98.0137 23.5511 98.0588 23.0881ZM103.268 23.0881C103.268 21.5627 102.582 20.6706 101.38 20.6706C100.173 20.6706 99.4935 21.5627 99.4935 23.0882C99.4935 24.6258 100.173 25.511 101.38 25.511C102.582 25.511 103.268 24.6197 103.268 23.0881H103.268Z" fill="#122052"/>
<path d="M113.519 26.6103H112.078L110.624 21.4273H110.514L109.066 26.6103H107.639L105.699 19.573H107.108L108.368 24.9429H108.472L109.919 19.573H111.251L112.698 24.9429H112.808L114.063 19.573H115.451L113.519 26.6103Z" fill="#122052"/>
<path d="M117.083 19.5734H118.42V20.6914H118.524C118.7 20.2899 118.997 19.9533 119.373 19.7285C119.749 19.5038 120.187 19.4021 120.624 19.4376C120.966 19.4118 121.31 19.4635 121.63 19.5887C121.949 19.7138 122.237 19.9093 122.471 20.1607C122.705 20.4121 122.879 20.7129 122.981 21.0408C123.083 21.3687 123.11 21.7153 123.059 22.055V26.6107H121.671V22.4038C121.671 21.2729 121.179 20.7105 120.152 20.7105C119.919 20.6996 119.687 20.7392 119.472 20.8265C119.256 20.9137 119.062 21.0466 118.902 21.216C118.742 21.3854 118.621 21.5873 118.547 21.8078C118.473 22.0284 118.447 22.2624 118.472 22.4938V26.6108H117.083L117.083 19.5734Z" fill="#122052"/>
<path d="M125.273 16.8262H126.661V26.6107H125.273V16.8262Z" fill="#122052"/>
<path d="M128.592 23.0883C128.548 22.6258 128.601 22.1591 128.747 21.7183C128.894 21.2774 129.131 20.8721 129.444 20.5283C129.756 20.1845 130.137 19.9098 130.562 19.7218C130.987 19.5339 131.447 19.4368 131.911 19.4368C132.376 19.4368 132.835 19.5339 133.26 19.7218C133.685 19.9098 134.066 20.1845 134.378 20.5283C134.691 20.8721 134.928 21.2774 135.075 21.7183C135.222 22.1591 135.274 22.6258 135.23 23.0883C135.275 23.5512 135.223 24.0185 135.077 24.46C134.93 24.9016 134.693 25.3076 134.381 25.6521C134.068 25.9965 133.687 26.2718 133.262 26.4602C132.836 26.6485 132.376 26.7459 131.911 26.7459C131.446 26.7459 130.986 26.6485 130.561 26.4602C130.135 26.2718 129.754 25.9965 129.442 25.6521C129.129 25.3076 128.892 24.9016 128.746 24.46C128.599 24.0185 128.547 23.5512 128.592 23.0883ZM133.801 23.0883C133.801 21.5628 133.116 20.6708 131.913 20.6708C130.706 20.6708 130.027 21.5628 130.027 23.0883C130.027 24.6259 130.706 25.5111 131.913 25.5111C133.116 25.5111 133.801 24.6198 133.801 23.0883H133.801Z" fill="#122052"/>
<path d="M136.692 24.6198C136.692 23.353 137.636 22.6227 139.31 22.5189L141.216 22.409V21.8016C141.216 21.0584 140.725 20.6387 139.775 20.6387C139 20.6387 138.463 20.9233 138.309 21.4208H136.964C137.106 20.2121 138.243 19.4368 139.839 19.4368C141.604 19.4368 142.599 20.3151 142.599 21.8016V26.6099H141.262V25.621H141.152C140.929 25.9757 140.616 26.2649 140.244 26.459C139.873 26.6532 139.457 26.7452 139.038 26.7259C138.743 26.7566 138.444 26.7251 138.162 26.6334C137.879 26.5416 137.619 26.3917 137.398 26.1933C137.177 25.9948 137 25.7523 136.878 25.4813C136.757 25.2103 136.693 24.9168 136.692 24.6198ZM141.216 24.0184V23.4301L139.497 23.54C138.528 23.6048 138.089 23.9345 138.089 24.5549C138.089 25.1883 138.638 25.5568 139.394 25.5568C139.615 25.5792 139.839 25.5569 140.051 25.4911C140.264 25.4253 140.461 25.3175 140.631 25.1739C140.801 25.0304 140.94 24.8541 141.041 24.6556C141.141 24.4571 141.201 24.2404 141.216 24.0184Z" fill="#122052"/>
<path d="M144.424 23.089C144.424 20.8653 145.567 19.4566 147.345 19.4566C147.785 19.4363 148.222 19.5417 148.604 19.7603C148.986 19.979 149.298 20.3018 149.503 20.6913H149.607V16.8262H150.996V26.6107H149.665V25.4988H149.555C149.334 25.8856 149.011 26.2045 148.622 26.4209C148.232 26.6373 147.791 26.7431 147.345 26.7267C145.555 26.7267 144.424 25.318 144.424 23.089ZM145.859 23.089C145.859 24.5816 146.562 25.4798 147.739 25.4798C148.91 25.4798 149.633 24.5687 149.633 23.0951C149.633 21.6284 148.902 20.7043 147.739 20.7043C146.57 20.7043 145.859 21.6086 145.859 23.089H145.859Z" fill="#122052"/>
<path d="M156.742 23.0881C156.698 22.6257 156.751 22.1591 156.898 21.7182C157.044 21.2774 157.281 20.8721 157.594 20.5283C157.906 20.1845 158.287 19.9098 158.712 19.7218C159.137 19.5339 159.596 19.4368 160.061 19.4368C160.526 19.4368 160.985 19.5339 161.41 19.7218C161.835 19.9098 162.216 20.1845 162.528 20.5283C162.841 20.8721 163.078 21.2774 163.224 21.7182C163.371 22.1591 163.424 22.6257 163.38 23.0881C163.425 23.5511 163.372 24.0183 163.226 24.4599C163.08 24.9014 162.843 25.3075 162.53 25.652C162.218 25.9964 161.837 26.2717 161.411 26.4601C160.986 26.6484 160.526 26.7458 160.061 26.7458C159.596 26.7458 159.136 26.6484 158.711 26.4601C158.285 26.2717 157.904 25.9964 157.592 25.652C157.279 25.3075 157.042 24.9014 156.896 24.4599C156.749 24.0183 156.697 23.5511 156.742 23.0881ZM161.951 23.0881C161.951 21.5627 161.266 20.6706 160.063 20.6706C158.856 20.6706 158.177 21.5627 158.177 23.0882C158.177 24.6258 158.856 25.511 160.063 25.511C161.266 25.511 161.951 24.6197 161.951 23.0881Z" fill="#122052"/>
<path d="M165.243 19.5734H166.58V20.6914H166.684C166.86 20.2899 167.157 19.9533 167.533 19.7285C167.91 19.5038 168.347 19.4021 168.784 19.4376C169.127 19.4118 169.47 19.4635 169.79 19.5887C170.11 19.7138 170.397 19.9093 170.631 20.1607C170.865 20.4121 171.04 20.7129 171.141 21.0408C171.243 21.3687 171.27 21.7153 171.22 22.055V26.6107H169.831V22.4038C169.831 21.2729 169.34 20.7105 168.313 20.7105C168.08 20.6996 167.848 20.7392 167.632 20.8265C167.416 20.9137 167.222 21.0466 167.062 21.216C166.903 21.3854 166.782 21.5873 166.707 21.8078C166.633 22.0284 166.608 22.2624 166.632 22.4938V26.6108H165.243V19.5734Z" fill="#122052"/>
<path d="M179.068 17.8213V19.6054H180.592V20.7753H179.068V24.3939C179.068 25.1311 179.372 25.4539 180.063 25.4539C180.24 25.4533 180.417 25.4426 180.592 25.4218V26.5787C180.343 26.6233 180.09 26.647 179.837 26.6496C178.292 26.6496 177.677 26.1063 177.677 24.7495V20.7752H176.56V19.6054H177.677V17.8213H179.068Z" fill="#122052"/>
<path d="M182.49 16.8262H183.866V20.7043H183.976C184.161 20.299 184.466 19.9605 184.85 19.7349C185.234 19.5093 185.678 19.4076 186.122 19.4436C186.462 19.4251 186.803 19.482 187.119 19.6102C187.435 19.7384 187.719 19.9348 187.951 20.1854C188.182 20.436 188.355 20.7345 188.458 21.0598C188.561 21.3851 188.591 21.7291 188.545 22.0672V26.6107H187.155V22.4098C187.155 21.2857 186.632 20.7165 185.65 20.7165C185.412 20.6969 185.172 20.7297 184.947 20.8126C184.722 20.8955 184.518 21.0265 184.349 21.1965C184.181 21.3664 184.051 21.5712 183.97 21.7964C183.888 22.0217 183.857 22.262 183.878 22.5006V26.6107H182.49L182.49 16.8262Z" fill="#122052"/>
<path d="M196.643 24.7099C196.455 25.3531 196.046 25.9094 195.488 26.2816C194.931 26.6538 194.26 26.8182 193.594 26.7459C193.13 26.7581 192.67 26.6693 192.244 26.4856C191.818 26.302 191.437 26.0278 191.128 25.6822C190.819 25.3366 190.588 24.9278 190.453 24.4843C190.317 24.0407 190.28 23.573 190.343 23.1135C190.282 22.6527 190.319 22.1839 190.455 21.739C190.59 21.2941 190.819 20.8835 191.127 20.5348C191.434 20.1862 191.813 19.9078 192.238 19.7183C192.663 19.5289 193.123 19.4329 193.588 19.4369C195.546 19.4369 196.727 20.7747 196.727 22.9845V23.4691H191.758V23.547C191.736 23.8052 191.769 24.0652 191.853 24.3101C191.938 24.5551 192.073 24.7797 192.249 24.9695C192.426 25.1593 192.64 25.3102 192.878 25.4124C193.116 25.5146 193.373 25.5659 193.632 25.563C193.964 25.6029 194.301 25.5431 194.599 25.3912C194.897 25.2393 195.143 25.0021 195.306 24.7099L196.643 24.7099ZM191.758 22.442H195.313C195.33 22.2058 195.298 21.9686 195.218 21.7455C195.139 21.5225 195.013 21.3185 194.85 21.1469C194.687 20.9752 194.49 20.8395 194.271 20.7486C194.052 20.6577 193.817 20.6135 193.58 20.6189C193.34 20.6159 193.102 20.661 192.879 20.7516C192.657 20.8421 192.455 20.9763 192.285 21.1462C192.115 21.3161 191.981 21.5183 191.89 21.7408C191.8 21.9634 191.755 22.2018 191.758 22.442H191.758Z" fill="#122052"/>
<defs>
<filter id="filter0_d" x="0.73645" y="0" width="250.264" height="101.794" filterUnits="userSpaceOnUse" color-interpolation-filters="sRGB">
<feFlood flood-opacity="0" result="BackgroundImageFix"/>
<feColorMatrix in="SourceAlpha" type="matrix" values="0 0 0 0 0 0 0 0 0 0 0 0 0 0 0 0 0 0 127 0" result="hardAlpha"/>
<feOffset dy="16"/>
<feGaussianBlur stdDeviation="10.5"/>
<feComposite in2="hardAlpha" operator="out"/>
<feColorMatrix type="matrix" values="0 0 0 0 0 0 0 0 0 0 0 0 0 0 0 0 0 0 0.09 0"/>
<feBlend mode="normal" in2="BackgroundImageFix" result="effect1_dropShadow"/>
<feBlend mode="normal" in="SourceGraphic" in2="effect1_dropShadow" result="shape"/>
</filter>
</defs>
</svg>
