<svg width="18" height="18" viewBox="0 0 18 18" fill="none" xmlns="http://www.w3.org/2000/svg">
<g clip-path="url(#clip0)">
<path d="M17.1914 7.98075H17.1562V2.21513C17.1557 1.62778 16.9221 1.06466 16.5068 0.649362C16.0915 0.234063 15.5283 0.000521252 14.941 0L13.5703 0C12.9831 0.0006328 12.4201 0.234185 12.0049 0.649412C11.5897 1.06464 11.3561 1.62762 11.3555 2.21484V3.40059H11.0538C11.017 3.40063 10.9806 3.40891 10.9474 3.42482C10.9142 3.44074 10.885 3.46388 10.8619 3.49256L10.6875 3.71053C10.3046 4.18922 10.0738 4.77155 10.0247 5.38256C9.82323 5.4001 9.6356 5.49246 9.4988 5.64144C9.36199 5.79042 9.28594 5.98524 9.28561 6.1875V6.68602C9.28559 6.71834 9.29194 6.75035 9.3043 6.78021C9.31666 6.81008 9.33479 6.83722 9.35765 6.86007C9.3805 6.88293 9.40764 6.90105 9.4375 6.91341C9.46737 6.92578 9.49938 6.93213 9.5317 6.93211H14.7956C14.8279 6.93213 14.8599 6.92578 14.8898 6.91341C14.9196 6.90105 14.9468 6.88293 14.9696 6.86007C14.9925 6.83722 15.0106 6.81008 15.023 6.78021C15.0353 6.75035 15.0417 6.71834 15.0417 6.68602V6.1875C15.0414 5.98523 14.9654 5.79041 14.8286 5.6414C14.6918 5.49239 14.5042 5.39999 14.3027 5.38242C14.2538 4.77158 14.0232 4.18934 13.6406 3.71067L13.4661 3.49298C13.4431 3.46424 13.4138 3.44104 13.3806 3.4251C13.3474 3.40915 13.311 3.40088 13.2742 3.40088H12.9722V2.21513C12.9723 2.05654 13.0353 1.90447 13.1475 1.79235C13.2596 1.68023 13.4117 1.61722 13.5703 1.61719H14.9414C15.0999 1.61734 15.2518 1.68035 15.3638 1.7924C15.4759 1.90445 15.5389 2.05638 15.5391 2.21484V7.98047H8.05514C8.05514 7.97752 8.05514 7.97442 8.05514 7.97161C8.05529 7.71517 7.97803 7.46465 7.83346 7.25284C7.68889 7.04103 7.48374 6.8778 7.24487 6.7845C7.006 6.6912 6.74453 6.67218 6.49468 6.72993C6.24482 6.78768 6.01821 6.91951 5.84452 7.10817C5.64112 6.97805 5.40206 6.91491 5.16094 6.92761C5.04101 6.58905 4.81915 6.29595 4.52587 6.08862C4.23258 5.88128 3.88227 5.76988 3.5231 5.76975C3.16393 5.76961 2.81354 5.88073 2.52009 6.08784C2.22665 6.29495 2.00456 6.58788 1.88437 6.92634C1.60026 6.93453 1.329 7.04661 1.12198 7.24137C0.914963 7.43613 0.78655 7.70005 0.761063 7.98314C0.555438 7.99532 0.362205 8.08548 0.220779 8.23524C0.0793541 8.385 0.000391884 8.58308 0 8.78906L0 9.21094C0.000223355 9.42532 0.085486 9.63086 0.237078 9.78245C0.388671 9.93404 0.59421 10.0193 0.808594 10.0195H0.84375V12.832C0.844284 13.5055 1.03245 14.1656 1.38716 14.7381C1.74186 15.3107 2.24906 15.7731 2.85188 16.0734L2.59509 16.6794C2.49684 16.9115 2.4948 17.1731 2.58944 17.4067C2.68408 17.6403 2.86763 17.8267 3.09973 17.925C3.33182 18.0232 3.59344 18.0253 3.82703 17.9306C4.06063 17.836 4.24706 17.6524 4.34531 17.4203L4.75453 16.4531H13.2455L13.655 17.4202C13.7552 17.6494 13.9418 17.8298 14.1742 17.9223C14.4066 18.0148 14.6661 18.0119 14.8964 17.9143C15.1267 17.8167 15.3093 17.6323 15.4045 17.401C15.4997 17.1696 15.4998 16.9101 15.4049 16.6787L15.1481 16.0734C15.7509 15.7731 16.2581 15.3107 16.6128 14.7382C16.9675 14.1658 17.1557 13.5058 17.1562 12.8323V10.0198H17.1914C17.4058 10.0196 17.6114 9.93429 17.763 9.78263C17.9146 9.63098 17.9999 9.42537 18 9.21094V8.78906C17.9997 8.57473 17.9144 8.36926 17.7628 8.21773C17.6112 8.0662 17.4057 7.98097 17.1914 7.98075ZM14.5495 6.1875V6.44062H9.7778V6.1875C9.77791 6.10362 9.81128 6.0232 9.87059 5.96389C9.92991 5.90458 10.0103 5.87121 10.0942 5.87109H14.2331C14.317 5.87121 14.3974 5.90458 14.4567 5.96389C14.516 6.0232 14.5494 6.10362 14.5495 6.1875ZM13.2557 4.0185C13.5684 4.40869 13.7607 4.88142 13.8094 5.37905H10.5188C10.5672 4.88154 10.7593 4.40887 11.0717 4.01864L11.1725 3.89306H13.1553L13.2557 4.0185ZM14.941 1.125H13.5703C13.2814 1.12533 13.0044 1.24027 12.8 1.44458C12.5957 1.64889 12.4808 1.9259 12.4805 2.21484V3.40059H11.8477V2.21513C11.8481 1.75835 12.0297 1.32039 12.3526 0.997376C12.6756 0.674359 13.1135 0.492672 13.5703 0.492188H14.9414C15.3981 0.492671 15.836 0.67432 16.159 0.997276C16.4819 1.32023 16.6636 1.75812 16.6641 2.21484V7.98047H16.0312V2.21484C16.0309 1.92583 15.9159 1.64875 15.7115 1.44443C15.5071 1.2401 15.23 1.12522 14.941 1.125ZM1.91602 7.41811C1.95279 7.41845 1.98947 7.42179 2.0257 7.42809C2.08781 7.43834 2.15148 7.42436 2.20357 7.38904C2.25567 7.35371 2.29222 7.29974 2.30569 7.23825C2.3672 6.95975 2.52239 6.71078 2.74533 6.5329C2.96828 6.35502 3.24549 6.259 3.5307 6.26085C3.8159 6.26271 4.09184 6.36235 4.31245 6.54312C4.53305 6.72389 4.68498 6.97486 4.74286 7.25414C4.74961 7.28699 4.76301 7.31811 4.78223 7.34559C4.80145 7.37308 4.82609 7.39634 4.85463 7.41395C4.88317 7.43155 4.91501 7.44314 4.9482 7.44799C4.98138 7.45284 5.01521 7.45086 5.04759 7.44216C5.16434 7.40865 5.28814 7.40851 5.40496 7.44177C5.52177 7.47502 5.62694 7.54034 5.70853 7.63031C5.73483 7.65856 5.7674 7.68023 5.80361 7.69356C5.83983 7.70688 5.87868 7.7115 5.91701 7.70704C5.95534 7.70258 5.99209 7.68916 6.02427 7.66786C6.05646 7.64657 6.08318 7.618 6.10228 7.58447C6.18765 7.43452 6.32023 7.31702 6.47936 7.2503C6.63848 7.18358 6.81522 7.17138 6.982 7.2156C7.14879 7.25983 7.29625 7.35799 7.40142 7.49479C7.50658 7.63159 7.56352 7.79934 7.56337 7.97189V7.98075H1.25634C1.28159 7.82391 1.36182 7.68118 1.48269 7.57809C1.60355 7.47501 1.75716 7.41829 1.91602 7.41811ZM3.8918 17.2284C3.85675 17.3113 3.79803 17.382 3.72299 17.4316C3.64794 17.4813 3.55991 17.5077 3.46992 17.5075C3.39428 17.5076 3.3198 17.4889 3.25313 17.4532C3.18647 17.4174 3.1297 17.3657 3.08791 17.3027C3.04612 17.2396 3.02061 17.1672 3.01365 17.0919C3.00669 17.0166 3.01851 16.9407 3.04805 16.8711L3.30553 16.2633C3.31734 16.2674 3.32958 16.2703 3.34153 16.2743C3.38864 16.2897 3.43631 16.3039 3.48441 16.3174C3.50494 16.3232 3.52533 16.3295 3.54586 16.335C3.61181 16.3523 3.67833 16.3679 3.74569 16.3814C3.76509 16.3853 3.78464 16.3883 3.80405 16.392C3.85453 16.4012 3.90516 16.4098 3.95634 16.417C3.98123 16.4205 4.00612 16.4236 4.03116 16.4265C4.08009 16.4325 4.12931 16.4371 4.17881 16.4406C4.19358 16.4419 4.20834 16.444 4.22311 16.445L3.8918 17.2284ZM14.6942 16.2633L14.9517 16.8711C14.9812 16.9407 14.993 17.0166 14.9861 17.0919C14.9791 17.1672 14.9536 17.2396 14.9118 17.3027C14.87 17.3657 14.8132 17.4174 14.7466 17.4532C14.6799 17.4889 14.6054 17.5076 14.5298 17.5075C14.4398 17.5077 14.3518 17.4812 14.2768 17.4316C14.2017 17.3819 14.143 17.3113 14.1079 17.2284L13.7763 16.4454C13.7911 16.4444 13.8056 16.4423 13.8202 16.4412C13.8703 16.4372 13.92 16.4323 13.9695 16.4264C13.9937 16.4235 14.0179 16.4205 14.0421 16.4171C14.0944 16.4098 14.1463 16.4011 14.1978 16.3915C14.2163 16.388 14.2349 16.3853 14.2533 16.3815C14.3206 16.368 14.3873 16.3524 14.4534 16.335C14.4742 16.3295 14.4948 16.3232 14.5155 16.3174C14.5633 16.3039 14.6108 16.2895 14.6579 16.2743C14.6701 16.2703 14.6822 16.2674 14.6942 16.2633ZM16.6641 12.832C16.6633 13.4543 16.4773 14.0623 16.1297 14.5785C15.7821 15.0947 15.2887 15.4956 14.7123 15.7303C14.628 15.7649 14.5412 15.7963 14.4539 15.8231C14.4442 15.8261 14.434 15.8286 14.4242 15.8316C14.3355 15.8579 14.2459 15.8808 14.1552 15.8989C14.1467 15.9008 14.1383 15.9019 14.1299 15.9036C14.0365 15.9216 13.9424 15.9359 13.8473 15.9457C13.8434 15.9457 13.8393 15.9458 13.8354 15.9466C13.7361 15.956 13.636 15.9607 13.5352 15.9607H4.46484C4.36556 15.9607 4.26713 15.9555 4.16953 15.9466L4.15139 15.9452C4.05788 15.9359 3.9652 15.9217 3.87338 15.904C3.86367 15.9022 3.85383 15.9008 3.84413 15.8988C3.75427 15.8806 3.66525 15.858 3.57694 15.8318C3.56653 15.8287 3.55612 15.8261 3.54586 15.823C3.45867 15.7961 3.37275 15.7649 3.28767 15.7303C2.71137 15.4957 2.21798 15.0947 1.87039 14.5786C1.5228 14.0625 1.33674 13.4546 1.33594 12.8323V10.0198H16.6641V12.832ZM17.5078 9.21094C17.5077 9.29482 17.4743 9.37523 17.415 9.43455C17.3557 9.49386 17.2753 9.52723 17.1914 9.52734H0.808594C0.724712 9.52723 0.644298 9.49386 0.584984 9.43455C0.525671 9.37523 0.492299 9.29482 0.492188 9.21094V8.78906C0.492299 8.70518 0.525671 8.62477 0.584984 8.56545C0.644298 8.50614 0.724712 8.47277 0.808594 8.47266H17.1914C17.2753 8.47277 17.3557 8.50614 17.415 8.56545C17.4743 8.62477 17.5077 8.70518 17.5078 8.78906V9.21094Z" fill="#FB6504"/>
</g>
<defs>
<clipPath id="clip0">
<rect width="18" height="18" fill="white"/>
</clipPath>
</defs>
</svg>
