<svg width="18" height="18" viewBox="0 0 18 18" fill="none" xmlns="http://www.w3.org/2000/svg">
<g clip-path="url(#clip0)">
<path d="M17.6256 5.25027H15.0007V1.09545L15.591 0.682234C15.7602 0.563583 15.8019 0.329938 15.6825 0.16003C15.5639 -0.00987767 15.3303 -0.0509044 15.1603 0.0684846L0.160569 10.5683C-0.00863542 10.687 -0.0503653 10.9206 0.0690237 11.0905C0.141515 11.1945 0.257986 11.2502 0.375898 11.2502C0.450604 11.2502 0.52531 11.2282 0.591228 11.1821L2.25086 10.0203V14.2501H1.12588C0.918598 14.2501 0.75087 14.4179 0.75087 14.6252C0.75087 14.8324 0.918598 15.0002 1.12588 15.0002H1.50088V17.6251C1.50088 17.8324 1.66861 18.0001 1.87589 18.0001H17.6257C17.833 18.0001 18.0007 17.8324 18.0007 17.6251V5.62528C18.0006 5.418 17.8329 5.25027 17.6256 5.25027ZM3.00084 9.49533L14.2507 1.62044V5.25027H13.1257C12.9184 5.25027 12.7507 5.418 12.7507 5.62528C12.7507 5.83255 12.9184 6.00028 13.1257 6.00028H13.5007V7.50027H10.1258C9.91848 7.50027 9.75075 7.668 9.75075 7.87528C9.75075 8.08256 9.91848 8.25029 10.1258 8.25029H10.5008V9.75028H7.12581C6.91853 9.75028 6.7508 9.91801 6.7508 10.1253C6.7508 10.3326 6.91853 10.5003 7.12581 10.5003H7.50081V12.0003H4.12586C3.91858 12.0003 3.75085 12.168 3.75085 12.3753C3.75085 12.5826 3.91858 12.7503 4.12586 12.7503H4.50087V14.2503H3.00084V9.49533ZM17.2507 17.2501H2.25086V15.0002H4.87584C5.08312 15.0002 5.25084 14.8324 5.25084 14.6252V12.7502H7.87582C8.0831 12.7502 8.25083 12.5825 8.25083 12.3752V10.5002H10.8758C11.0831 10.5002 11.2508 10.3325 11.2508 10.1252V8.25025H13.8758C14.0831 8.25025 14.2508 8.08252 14.2508 7.87525V6.00028H17.2507V17.2501H17.2507Z" fill="#FB6504"/>
</g>
<defs>
<clipPath id="clip0">
<rect width="18" height="18" fill="white"/>
</clipPath>
</defs>
</svg>
