<svg width="189" height="112" viewBox="0 0 189 112" fill="none" xmlns="http://www.w3.org/2000/svg">
<path d="M62 14.6917L94.8551 0L127 14.6917L119.102 17.1399L119.141 29.461C119.703 29.942 120.056 30.6211 120.129 31.3565C120.147 31.6497 120.101 31.9432 119.993 32.2163C119.885 32.4894 119.718 32.7353 119.503 32.9364L122.024 36.8856C122.024 36.8856 120.185 38.5249 118.269 38.5249C116.354 38.5249 114.363 36.8856 114.363 36.8856L116.654 32.9364C116.274 32.4956 116.056 31.9382 116.036 31.3565C116.036 30.4419 117.049 29.461 117.049 29.461V17.6932L109.309 19.9839V26.8515C109.309 26.8515 103.415 19.7688 94.5719 19.7688C85.7287 19.7688 80.0858 26.8515 80.0858 26.8515V19.5888C82.0234 18.1713 84.1374 17.0125 86.3745 16.1415C88.7535 15.3019 91.2302 14.7703 93.7442 14.5598C91.0152 14.4419 88.2827 14.6836 85.6168 15.2788C83.1522 15.9193 80.7858 16.8909 78.5823 18.1671L62 14.6917Z" fill="#386EE1"/>
<path d="M94.4969 22.6631C92.4684 22.6607 90.4593 23.0585 88.5847 23.8337C86.7101 24.6089 85.0069 25.7462 83.5725 27.1806C82.1381 28.615 81.0007 30.3183 80.2255 32.1929C79.4503 34.0674 79.0526 36.0765 79.0549 38.1051C79.0549 48.4018 94.4969 63.8462 94.4969 63.8462C94.4969 63.8462 109.939 48.4043 109.939 38.1051C109.941 36.0765 109.543 34.0674 108.768 32.1929C107.993 30.3183 106.856 28.615 105.421 27.1806C103.987 25.7462 102.284 24.6089 100.409 23.8337C98.5345 23.0585 96.5254 22.6607 94.4969 22.6631ZM94.4969 27.8115C96.5337 27.8108 98.5249 28.4143 100.219 29.5455C101.912 30.6766 103.233 32.2847 104.012 34.1663C104.792 36.048 104.996 38.1185 104.599 40.1162C104.202 42.1139 103.221 43.9488 101.781 45.3891C100.341 46.8293 98.5057 47.81 96.508 48.2072C94.5104 48.6044 92.4398 48.4002 90.5582 47.6205C88.6766 46.8408 87.0685 45.5205 85.9373 43.8268C84.8061 42.133 84.2027 40.1418 84.2033 38.1051C84.2033 35.375 85.2878 32.7568 87.2182 30.8264C89.1486 28.896 91.7669 27.8115 94.4969 27.8115Z" fill="#386EE1"/>
<path d="M0.403 78.5446H16.368V82.6366H10.509V100.245H6.231V82.6366H0.403V78.5446ZM27.5348 86.5736V84.7446H31.5338V100.245H27.5348V98.4156C26.3361 99.9243 24.6518 100.679 22.4818 100.679C20.4151 100.679 18.6378 99.8933 17.1498 98.3226C15.6824 96.7313 14.9488 94.7886 14.9488 92.4946C14.9488 90.2213 15.6824 88.289 17.1498 86.6976C18.6378 85.1063 20.4151 84.3106 22.4818 84.3106C24.6518 84.3106 26.3361 85.065 27.5348 86.5736ZM20.1568 95.6566C20.9628 96.4626 21.9858 96.8656 23.2258 96.8656C24.4658 96.8656 25.4888 96.4626 26.2948 95.6566C27.1214 94.83 27.5348 93.776 27.5348 92.4946C27.5348 91.2133 27.1214 90.1696 26.2948 89.3636C25.4888 88.537 24.4658 88.1236 23.2258 88.1236C21.9858 88.1236 20.9628 88.537 20.1568 89.3636C19.3508 90.1696 18.9478 91.2133 18.9478 92.4946C18.9478 93.776 19.3508 94.83 20.1568 95.6566ZM39.1591 100.245H35.1601V77.6146H39.1591V100.245ZM54.5992 86.5736V84.7446H58.5982V100.245H54.5992V98.4156C53.4006 99.9243 51.7162 100.679 49.5462 100.679C47.4796 100.679 45.7022 99.8933 44.2142 98.3226C42.7469 96.7313 42.0132 94.7886 42.0132 92.4946C42.0132 90.2213 42.7469 88.289 44.2142 86.6976C45.7022 85.1063 47.4796 84.3106 49.5462 84.3106C51.7162 84.3106 53.4006 85.065 54.5992 86.5736ZM47.2212 95.6566C48.0272 96.4626 49.0502 96.8656 50.2902 96.8656C51.5302 96.8656 52.5532 96.4626 53.3592 95.6566C54.1859 94.83 54.5992 93.776 54.5992 92.4946C54.5992 91.2133 54.1859 90.1696 53.3592 89.3636C52.5532 88.537 51.5302 88.1236 50.2902 88.1236C49.0502 88.1236 48.0272 88.537 47.2212 89.3636C46.4152 90.1696 46.0122 91.2133 46.0122 92.4946C46.0122 93.776 46.4152 94.83 47.2212 95.6566ZM71.2455 84.3106C73.3328 84.3106 75.1102 85.1063 76.5775 86.6976C78.0655 88.289 78.8095 90.2213 78.8095 92.4946C78.8095 94.8093 78.0655 96.752 76.5775 98.3226C75.1308 99.8933 73.3535 100.679 71.2455 100.679C69.0755 100.679 67.4015 99.9243 66.2235 98.4156V100.245H62.2245V78.5446H66.2235V86.5736C67.4015 85.065 69.0755 84.3106 71.2455 84.3106ZM67.4325 95.6566C68.2385 96.4626 69.2615 96.8656 70.5015 96.8656C71.7415 96.8656 72.7645 96.4626 73.5705 95.6566C74.3972 94.83 74.8105 93.776 74.8105 92.4946C74.8105 91.2133 74.3972 90.1696 73.5705 89.3636C72.7645 88.537 71.7415 88.1236 70.5015 88.1236C69.2615 88.1236 68.2385 88.537 67.4325 89.3636C66.6265 90.1696 66.2235 91.2133 66.2235 92.4946C66.2235 93.776 66.6265 94.83 67.4325 95.6566ZM93.4098 86.5736V84.7446H97.4088V100.245H93.4098V98.4156C92.2111 99.9243 90.5268 100.679 88.3568 100.679C86.2901 100.679 84.5128 99.8933 83.0248 98.3226C81.5574 96.7313 80.8238 94.7886 80.8238 92.4946C80.8238 90.2213 81.5574 88.289 83.0248 86.6976C84.5128 85.1063 86.2901 84.3106 88.3568 84.3106C90.5268 84.3106 92.2111 85.065 93.4098 86.5736ZM86.0318 95.6566C86.8378 96.4626 87.8608 96.8656 89.1008 96.8656C90.3408 96.8656 91.3638 96.4626 92.1698 95.6566C92.9964 94.83 93.4098 93.776 93.4098 92.4946C93.4098 91.2133 92.9964 90.1696 92.1698 89.3636C91.3638 88.537 90.3408 88.1236 89.1008 88.1236C87.8608 88.1236 86.8378 88.537 86.0318 89.3636C85.2258 90.1696 84.8228 91.2133 84.8228 92.4946C84.8228 93.776 85.2258 94.83 86.0318 95.6566ZM118.178 84.3106C119.955 84.3106 121.371 84.8893 122.425 86.0466C123.5 87.204 124.037 88.754 124.037 90.6966V100.245H120.038V90.9756C120.038 90.0456 119.811 89.3223 119.356 88.8056C118.901 88.289 118.261 88.0306 117.434 88.0306C116.525 88.0306 115.812 88.3303 115.295 88.9296C114.799 89.529 114.551 90.397 114.551 91.5336V100.245H110.552V90.9756C110.552 90.0456 110.325 89.3223 109.87 88.8056C109.415 88.289 108.775 88.0306 107.948 88.0306C107.059 88.0306 106.346 88.3406 105.809 88.9606C105.292 89.56 105.034 90.4176 105.034 91.5336V100.245H101.035V84.7446H105.034V86.3876C105.964 85.003 107.4 84.3106 109.343 84.3106C111.265 84.3106 112.67 85.0546 113.559 86.5426C114.572 85.0546 116.111 84.3106 118.178 84.3106ZM129.417 82.8846C128.756 82.8846 128.177 82.647 127.681 82.1716C127.206 81.6756 126.968 81.097 126.968 80.4356C126.968 79.7743 127.206 79.1956 127.681 78.6996C128.177 78.2036 128.756 77.9556 129.417 77.9556C130.099 77.9556 130.678 78.2036 131.153 78.6996C131.649 79.1956 131.897 79.7743 131.897 80.4356C131.897 81.097 131.649 81.6756 131.153 82.1716C130.678 82.647 130.099 82.8846 129.417 82.8846ZM131.432 100.245H127.433V84.7446H131.432V100.245ZM146.532 87.4106L139.96 96.4936H146.842V100.245H134.597V97.5786L141.138 88.4956H134.907V84.7446H146.532V87.4106ZM168.3 93.1146V84.7446H172.299V100.245H168.3V98.5086C167.35 99.9553 165.81 100.679 163.681 100.679C161.987 100.679 160.581 100.11 159.465 98.9736C158.37 97.8163 157.822 96.2456 157.822 94.2616V84.7446H161.821V93.7656C161.821 94.7783 162.09 95.5636 162.627 96.1216C163.185 96.6796 163.94 96.9586 164.89 96.9586C165.944 96.9586 166.771 96.6383 167.37 95.9976C167.99 95.3363 168.3 94.3753 168.3 93.1146ZM187.401 87.4106L180.829 96.4936H187.711V100.245H175.466V97.5786L182.007 88.4956H175.776V84.7446H187.401V87.4106Z" fill="white"/>
<path d="M154.735 98.0126C154.735 98.736 154.477 99.356 153.96 99.8726C153.444 100.389 152.824 100.648 152.1 100.648C151.377 100.648 150.757 100.389 150.24 99.8726C149.724 99.356 149.465 98.736 149.465 98.0126C149.465 97.2893 149.724 96.6693 150.24 96.1526C150.757 95.636 151.377 95.3776 152.1 95.3776C152.824 95.3776 153.444 95.636 153.96 96.1526C154.477 96.6693 154.735 97.2893 154.735 98.0126Z" fill="#FF9300"/>
</svg>
