<svg width="120" height="120" viewBox="0 0 120 120" fill="none" xmlns="http://www.w3.org/2000/svg">
<g filter="url(#filter0_d)">
<rect x="30" y="15" width="60" height="60" rx="20" fill="#386EE1"/>
</g>
<path d="M74.0943 38.6806C74.0942 38.6805 74.0941 38.6805 74.094 38.6804L73.2167 38.0074C72.9697 37.8181 72.6145 37.8648 72.425 38.1118L71.492 39.3281L71.4489 39.295C71.1484 39.0644 70.7162 39.1213 70.4854 39.422L59.9556 53.1483C59.9556 53.1485 59.9555 53.1485 59.9554 53.1487C59.9554 53.1487 59.9553 53.1488 59.9552 53.1489C59.9471 53.1596 59.9406 53.1713 59.9335 53.1827C59.9277 53.1917 59.9212 53.2002 59.9161 53.2096C59.9047 53.2309 59.8949 53.2531 59.8869 53.276L58.5097 57.2389C58.5096 57.2391 58.5096 57.2393 58.5095 57.2395L58.5086 57.242C58.4316 57.4636 58.5051 57.7084 58.6912 57.8512C58.7886 57.9258 58.905 57.9635 59.0216 57.9635C59.1278 57.9635 59.2342 57.9322 59.3267 57.8695L59.3293 57.8677C59.3294 57.8677 59.3294 57.8677 59.3294 57.8677L62.8001 55.5108C62.8196 55.4976 62.8382 55.4827 62.8556 55.4663C62.8629 55.4595 62.8691 55.4515 62.8759 55.4442C62.8849 55.4345 62.8946 55.4253 62.9028 55.415C62.9034 55.4142 62.9039 55.4133 62.9046 55.4125C62.9049 55.4121 62.9053 55.4117 62.9057 55.4113L72.3822 43.058L72.6646 43.2746L68.783 48.3345C68.6299 48.534 68.6676 48.8199 68.8672 48.973C68.9499 49.0364 69.0472 49.0671 69.144 49.0671C69.2808 49.0671 69.416 49.0057 69.5057 48.8888L73.5059 43.6742C73.7461 43.3611 73.6869 42.9109 73.3736 42.6706L72.9366 42.3353L73.4356 41.6848C73.666 41.3842 73.6091 40.9521 73.3085 40.7214L73.2654 40.6883L74.1982 39.4722C74.3877 39.2254 74.3411 38.8703 74.0943 38.6806ZM59.7333 56.4925L60.5406 54.1694L61.7679 55.1109L59.7333 56.4925ZM62.4609 54.4946L60.9563 53.3404L71.072 40.1538L72.5767 41.3081L62.4609 54.4946ZM72.5427 40.134L72.2147 39.8825L72.937 38.9408L73.265 39.1924L72.5427 40.134Z" fill="white"/>
<path d="M66.8968 42.3457H48.9437C48.6922 42.3457 48.4883 42.5496 48.4883 42.8011C48.4883 43.0526 48.6922 43.2566 48.9437 43.2566H66.8968C67.1484 43.2565 67.3523 43.0526 67.3523 42.8011C67.3523 42.5496 67.1484 42.3457 66.8968 42.3457Z" fill="white"/>
<path d="M62.545 47.0449H48.9437C48.6922 47.0449 48.4883 47.2488 48.4883 47.5004C48.4883 47.7519 48.6922 47.9558 48.9437 47.9558H62.545C62.7966 47.9557 63.0005 47.7519 63.0005 47.5004C63.0005 47.2489 62.7966 47.0449 62.545 47.0449Z" fill="white"/>
<path d="M57.1613 56.4436H48.9437C48.6922 56.4436 48.4883 56.6475 48.4883 56.899C48.4883 57.1506 48.6922 57.3545 48.9437 57.3545H57.1613C57.4128 57.3545 57.6167 57.1506 57.6167 56.899C57.6167 56.6475 57.4128 56.4436 57.1613 56.4436Z" fill="white"/>
<path d="M66.8968 56.4436H62.869C62.6174 56.4436 62.4136 56.6475 62.4136 56.899C62.4136 57.1506 62.6174 57.3545 62.869 57.3545H66.8968C67.1484 57.3545 67.3523 57.1506 67.3523 56.899C67.3523 56.6475 67.1484 56.4436 66.8968 56.4436Z" fill="white"/>
<path d="M69.8611 39.267C70.1127 39.267 70.3166 39.0631 70.3166 38.8116V35.7274C70.3166 35.7222 70.316 35.7171 70.3158 35.712C70.3156 35.7069 70.3154 35.7018 70.3151 35.6968C70.3137 35.6773 70.3116 35.658 70.3079 35.6391C70.3078 35.6389 70.3078 35.6387 70.3078 35.6385C70.304 35.6192 70.2984 35.6004 70.2922 35.5818C70.2906 35.5771 70.2889 35.5724 70.2872 35.5677C70.2806 35.5501 70.2732 35.5329 70.2645 35.5162C70.2641 35.5153 70.2637 35.5144 70.2632 35.5135C70.254 35.4961 70.2432 35.4795 70.2317 35.4634C70.2288 35.4593 70.2258 35.4553 70.2228 35.4514C70.2106 35.4354 70.1977 35.4198 70.1832 35.4054L62.9112 28.1334C62.8968 28.119 62.8813 28.1061 62.8653 28.0938C62.8613 28.0908 62.8573 28.0878 62.8532 28.0848C62.8371 28.0734 62.8206 28.0626 62.8032 28.0534C62.8021 28.0528 62.8011 28.0524 62.8 28.0519C62.7835 28.0432 62.7664 28.0359 62.749 28.0294C62.7442 28.0276 62.7394 28.0259 62.7346 28.0243C62.7161 28.0181 62.6974 28.0126 62.6783 28.0088C62.6776 28.0086 62.6769 28.0086 62.6762 28.0084C62.6579 28.0049 62.6391 28.0027 62.6202 28.0015C62.6148 28.0011 62.6094 28.0009 62.604 28.0007C62.5991 28.0006 62.5942 28 62.5892 28H46.6312C46.1097 28 45.6853 28.4243 45.6853 28.9459V59.0541C45.6853 59.5757 46.1096 60 46.6312 60H69.3706C69.8921 60 70.3165 59.5757 70.3165 59.0541V49.9174C70.3165 49.6659 70.1126 49.4621 69.8611 49.4621C69.6095 49.4621 69.4056 49.6659 69.4056 49.9175V59.0541C69.4056 59.0734 69.3899 59.0892 69.3705 59.0892H46.6312C46.6119 59.0892 46.5961 59.0734 46.5961 59.0541V28.9459C46.5961 28.9266 46.6119 28.9108 46.6312 28.9108H62.1338V35.2204C62.1338 35.7511 62.5655 36.1827 63.0961 36.1827H69.4057V38.8116C69.4057 39.0631 69.6096 39.267 69.8611 39.267ZM63.0961 35.2719C63.0677 35.2719 63.0446 35.2488 63.0446 35.2204V29.5549H63.0446L68.7616 35.2719H63.0961Z" fill="white"/>
<path d="M56.9067 34.4934L53.0985 30.916C52.9232 30.7513 52.6502 30.7513 52.475 30.916L48.6668 34.4934C48.4835 34.6656 48.4745 34.9538 48.6467 35.1371C48.8189 35.3204 49.107 35.3294 49.2904 35.1572L52.7867 31.8728L56.283 35.1572C56.371 35.2397 56.483 35.2807 56.5948 35.2807C56.7162 35.2807 56.8372 35.2325 56.9268 35.1371C57.099 34.9538 57.09 34.6656 56.9067 34.4934Z" fill="white"/>
<path d="M55.6333 35.0805L53.3024 32.8906C53.0134 32.6191 52.5604 32.6191 52.2714 32.8906L49.9404 35.0805C49.7895 35.2222 49.703 35.4222 49.703 35.6291V38.8145C49.703 39.2296 50.0408 39.5674 50.4559 39.5674H55.1179C55.533 39.5674 55.8708 39.2296 55.8708 38.8145V35.6291C55.8708 35.4222 55.7843 35.2222 55.6333 35.0805ZM53.1209 38.6566H52.4529V37.0778H53.1209V38.6566ZM54.0317 38.6566V36.7893C54.0317 36.4461 53.7526 36.167 53.4095 36.167H52.1644C51.8213 36.167 51.5422 36.4461 51.5422 36.7893V38.6566H50.6138V35.6975L52.7869 33.6561L54.9599 35.6975V38.6566H54.0317Z" fill="white"/>
<path d="M58.4924 51.7444H53.4121C53.1605 51.7444 52.9567 51.9483 52.9567 52.1998C52.9567 52.4514 53.1605 52.6553 53.4121 52.6553H58.4924C58.7439 52.6552 58.9478 52.4513 58.9478 52.1998C58.9478 51.9483 58.7439 51.7444 58.4924 51.7444Z" fill="white"/>
<path d="M50.5826 51.7444H48.9996C48.7481 51.7444 48.5442 51.9483 48.5442 52.1998C48.5442 52.4514 48.7481 52.6553 48.9996 52.6553H50.5826C50.8342 52.6553 51.0381 52.4514 51.0381 52.1998C51.0381 51.9483 50.8342 51.7444 50.5826 51.7444Z" fill="white"/>
<defs>
<filter id="filter0_d" x="0" y="0" width="120" height="120" filterUnits="userSpaceOnUse" color-interpolation-filters="sRGB">
<feFlood flood-opacity="0" result="BackgroundImageFix"/>
<feColorMatrix in="SourceAlpha" type="matrix" values="0 0 0 0 0 0 0 0 0 0 0 0 0 0 0 0 0 0 127 0" result="hardAlpha"/>
<feOffset dy="15"/>
<feGaussianBlur stdDeviation="15"/>
<feComposite in2="hardAlpha" operator="out"/>
<feColorMatrix type="matrix" values="0 0 0 0 0.219608 0 0 0 0 0.431373 0 0 0 0 0.882353 0 0 0 0.25 0"/>
<feBlend mode="normal" in2="BackgroundImageFix" result="effect1_dropShadow"/>
<feBlend mode="normal" in="SourceGraphic" in2="effect1_dropShadow" result="shape"/>
</filter>
</defs>
</svg>
