<svg width="120" height="120" viewBox="0 0 120 120" fill="none" xmlns="http://www.w3.org/2000/svg">
<g filter="url(#filter0_d)">
<rect x="30" y="15" width="60" height="60" rx="20" fill="#FF5151"/>
</g>
<g clip-path="url(#clip0)">
<path d="M75.9978 56.4586L75.9763 55.9669C75.9653 55.7156 75.7528 55.5203 75.5015 55.5319C75.2503 55.5429 75.0556 55.7555 75.0666 56.0067L75.0883 56.5025C75.0884 56.5055 75.0885 56.5085 75.0888 56.5115C75.0946 56.6031 75.0633 56.6904 75.0005 56.7572C74.9382 56.8237 74.8537 56.8604 74.7627 56.8604H72.0987V52.5196C72.0987 52.2681 71.8948 52.0642 71.6434 52.0642C71.3919 52.0642 71.188 52.2681 71.188 52.5196V56.8604H65.5642L64.8848 50.7803L65.0767 50.1039L65.7901 50.6249C65.9337 50.7298 66.1001 50.7806 66.2651 50.7806C66.502 50.7806 66.7359 50.6758 66.8949 50.4761L69.2933 47.4636L72.7855 48.6978C73.969 49.1161 74.7858 50.1963 74.8673 51.4506L74.9423 53.1667C74.9533 53.418 75.1671 53.6122 75.4171 53.6017C75.6683 53.5907 75.8631 53.3782 75.8521 53.127L75.7768 51.4063C75.7767 51.4033 75.7765 51.4003 75.7763 51.3973C75.6733 49.7764 74.6183 48.3797 73.0888 47.8392L67.9911 46.0375C67.9576 46.0257 67.9237 46.0165 67.8894 46.0097C67.8759 46.007 67.8624 46.0051 67.8488 46.0031C67.8452 46.0026 67.8416 46.0018 67.8381 46.0014C67.6143 45.9735 67.3846 46.0493 67.2219 46.2121L67.1044 46.3298L66.1022 45.8268L66.1022 44.9482C66.4051 44.7397 66.6903 44.491 66.9492 44.2135C66.9522 44.2103 66.9553 44.207 66.9583 44.2038C67.6131 43.4987 68.0962 42.6108 68.2599 41.7288C68.2639 41.707 68.268 41.6852 68.2717 41.6635C68.2759 41.6385 68.2799 41.6137 68.2835 41.5887C68.2892 41.55 68.2942 41.5114 68.2987 41.4728C68.3 41.4617 68.3017 41.4506 68.3028 41.4395C68.3074 41.3962 68.3113 41.3528 68.3142 41.3097H68.5032C69.0901 41.3097 69.5677 40.8322 69.5677 40.2452V39.0521C69.5677 38.8794 69.492 38.7282 69.4122 38.6168V36.5573C69.4122 36.2589 69.3819 35.9676 69.324 35.6861C68.9197 33.7154 67.172 32.2288 65.0836 32.2288H61.9563C60.192 32.2288 58.672 33.2903 57.9985 34.8077L55.7367 32.6889C55.1954 32.1818 54.3484 32.1829 53.8085 32.6916L50.9476 35.3867L50.9471 35.0716C50.9469 34.891 50.8763 34.7213 50.7484 34.5938C50.6208 34.4665 50.4513 34.3964 50.2711 34.3964C50.2708 34.3964 50.2704 34.3964 50.2701 34.3964L48.1253 34.3994C47.7526 34.4 47.4497 34.7037 47.4501 35.0766L47.456 38.6759L44.4426 41.5147C44.1688 41.7725 44.0118 42.1216 44.0006 42.4975C43.9894 42.8735 44.1253 43.2313 44.3831 43.505C44.641 43.7788 44.99 43.9357 45.366 43.9469C45.3805 43.9473 45.3948 43.9475 45.4091 43.9475C45.7692 43.9475 46.1103 43.8123 46.3735 43.5643L47.394 42.603L47.3984 45.795C47.3988 46.0463 47.6026 46.2497 47.8538 46.2497C47.854 46.2497 47.8542 46.2497 47.8544 46.2497C48.1059 46.2493 48.3094 46.0452 48.3091 45.7938L48.3034 41.7463L54.7767 35.6482L57.6277 38.3189V38.6168C57.5478 38.7282 57.4722 38.8795 57.4722 39.0522V40.2453C57.4722 40.8322 57.9497 41.3098 58.5367 41.3098H58.725C58.728 41.355 58.732 41.4004 58.7368 41.446C58.738 41.4576 58.7397 41.4693 58.741 41.481C58.7455 41.5198 58.7506 41.5587 58.7563 41.5977C58.7595 41.6196 58.7629 41.6414 58.7665 41.6633C58.7713 41.6916 58.7765 41.7199 58.7819 41.7483C58.7919 41.8014 58.8032 41.8545 58.8155 41.9076C58.8183 41.92 58.821 41.9325 58.824 41.9449C58.8329 41.9817 58.8425 42.0183 58.8525 42.055C58.8548 42.0637 58.8572 42.0723 58.8597 42.081C58.9405 42.3723 59.0542 42.6615 59.1955 42.9421C59.1975 42.9462 59.1996 42.9504 59.2018 42.9545C59.2578 43.065 59.318 43.1741 59.3823 43.2814C59.3916 43.2971 59.401 43.3128 59.4105 43.3284C59.4276 43.3564 59.445 43.3842 59.4626 43.4119C59.4773 43.4348 59.4922 43.4577 59.5071 43.4804C59.5221 43.5032 59.5369 43.5262 59.5523 43.5488C59.5815 43.592 59.6116 43.6347 59.6421 43.6772C59.6543 43.694 59.6668 43.7107 59.6791 43.7274C59.7024 43.759 59.726 43.7904 59.75 43.8216C59.762 43.8371 59.7739 43.8526 59.786 43.868C59.8189 43.9098 59.8523 43.9513 59.8865 43.9923C59.8893 43.9956 59.8919 43.999 59.8946 44.0022C59.9314 44.046 59.969 44.0892 60.0071 44.1319C60.0194 44.1456 60.0318 44.1592 60.0441 44.1727C60.0714 44.2027 60.099 44.2323 60.1269 44.2617C60.1407 44.2762 60.1545 44.2908 60.1685 44.3052C60.2031 44.3408 60.2382 44.376 60.2738 44.4106C60.294 44.4303 60.3145 44.4495 60.335 44.4688C60.3568 44.4895 60.3788 44.5101 60.401 44.5303C60.4249 44.5521 60.449 44.5736 60.4732 44.5949C60.4879 44.6078 60.5026 44.6205 60.5174 44.6332C60.6529 44.7498 60.7932 44.8583 60.9375 44.9578L60.9375 45.8268L59.9355 46.33L59.818 46.2123C59.6178 46.0117 59.3158 45.9431 59.0488 46.0375L57.3306 46.6448L57.3261 43.403C57.3255 42.9855 56.9857 42.6462 56.5682 42.6462C56.5678 42.6462 56.5675 42.6462 56.5672 42.6462L53.0056 42.6512C52.8032 42.6515 52.6129 42.7306 52.47 42.874C52.3271 43.0173 52.2485 43.2077 52.2487 43.4102L52.2565 48.9868C52.2445 49.0004 52.2331 49.0146 52.2212 49.0284C52.2019 49.0511 52.1824 49.0737 52.1636 49.0968C52.1517 49.1113 52.1404 49.1263 52.1287 49.1411C52.1103 49.1643 52.0917 49.1874 52.0739 49.2111C52.0624 49.2262 52.0516 49.2418 52.0403 49.2571C52.0229 49.2808 52.0052 49.3044 51.9882 49.3286C51.9773 49.3442 51.9669 49.3602 51.9562 49.3759C51.9397 49.4003 51.9229 49.4244 51.9069 49.4491C51.8964 49.4653 51.8865 49.4819 51.8762 49.4983C51.8607 49.523 51.8449 49.5476 51.83 49.5726C51.8199 49.5894 51.8104 49.6066 51.8006 49.6236C51.7861 49.6486 51.7714 49.6734 51.7574 49.6988C51.7479 49.7161 51.7389 49.7338 51.7296 49.7513C51.7161 49.7768 51.7024 49.8021 51.6894 49.8278C51.6804 49.8457 51.6719 49.8639 51.6632 49.8819C51.6507 49.9076 51.6379 49.9333 51.626 49.9593C51.6173 49.9781 51.6093 49.9973 51.6009 50.0163C51.5896 50.0419 51.5781 50.0674 51.5672 50.0933C51.5592 50.1125 51.5519 50.1321 51.5441 50.1514C51.5337 50.1774 51.5231 50.2033 51.5133 50.2296C51.5058 50.2496 51.499 50.2698 51.4918 50.2899C51.4825 50.3159 51.473 50.3418 51.4642 50.3681C51.4573 50.3888 51.4511 50.4098 51.4446 50.4306C51.4363 50.4566 51.4278 50.4826 51.4201 50.5088C51.4139 50.53 51.4084 50.5515 51.4024 50.5729C51.3952 50.5991 51.3877 50.6251 51.381 50.6514C51.3754 50.6734 51.3706 50.6956 51.3653 50.7176C51.3591 50.7437 51.3527 50.7698 51.347 50.796C51.3421 50.8186 51.3379 50.8416 51.3334 50.8643C51.3283 50.8903 51.3229 50.9161 51.3182 50.9422C51.3141 50.9656 51.3107 50.9893 51.3069 51.0128C51.3028 51.0386 51.2984 51.0643 51.2947 51.0903C51.2914 51.1142 51.2888 51.1383 51.2859 51.1623C51.2827 51.1881 51.2792 51.2138 51.2766 51.2397C51.2741 51.2642 51.2724 51.2891 51.2703 51.3137C51.2683 51.3372 51.2659 51.3605 51.2643 51.3841L48.3352 51.3881C48.3249 51.3881 48.3166 51.3798 48.3166 51.3696L48.3128 48.6226C48.3124 48.3713 48.1087 48.1679 47.8575 48.1679C47.8573 48.1679 47.8571 48.1679 47.8569 48.1679C47.6054 48.1683 47.4018 48.3724 47.4022 48.6239L47.406 51.3709C47.4068 51.8828 47.8234 52.2987 48.3353 52.2987C48.3357 52.2987 48.3361 52.2987 48.3365 52.2987L51.2241 52.2947L51.042 56.4585C51.0218 56.7972 51.1432 57.1329 51.3753 57.3803C51.6082 57.6285 51.937 57.7709 52.2772 57.7709H74.7622C75.1024 57.7709 75.4311 57.6285 75.6641 57.3803C75.8967 57.133 76.018 56.7973 75.9978 56.4586ZM50.037 35.3072L50.0385 36.2431L48.3654 37.8192L48.3613 35.3096L50.037 35.3072ZM57.687 35.8479C57.6825 35.8753 57.6779 35.9027 57.6739 35.9302C57.6679 35.9715 57.6629 36.0129 57.6581 36.0543C57.6548 36.0824 57.6513 36.1103 57.6485 36.1385C57.6442 36.1834 57.6412 36.2284 57.6382 36.2734C57.6366 36.298 57.6344 36.3224 57.6332 36.3471C57.6298 36.417 57.6279 36.4871 57.6279 36.5572V37.071L55.0874 34.6911C54.9119 34.5268 54.6389 34.5271 54.4639 34.6919L45.7492 42.9014C45.6525 42.9925 45.5268 43.041 45.3933 43.0365C45.2606 43.0325 45.1373 42.9771 45.0461 42.8804C44.955 42.7837 44.9071 42.6573 44.911 42.5245C44.915 42.3918 44.9704 42.2685 45.0671 42.1773L54.4332 33.3542C54.5288 33.2642 54.6515 33.2192 54.7742 33.2192C54.8965 33.2192 55.0189 33.2639 55.1143 33.3533L57.6987 35.7744C57.6943 35.7987 57.691 35.8234 57.687 35.8479ZM68.6572 40.2451C68.6572 40.3299 68.5882 40.3989 68.5034 40.3989H68.3216V39.1617C68.4292 39.1998 68.5415 39.2254 68.6572 39.2355V40.2451ZM58.5369 40.399C58.4521 40.399 58.383 40.33 58.383 40.2452V39.2345C58.4988 39.2244 58.611 39.1989 58.7187 39.1607V40.399H58.5369ZM59.4523 36.9157L59.3022 36.8717C59.2885 36.8677 59.2745 36.8648 59.2605 36.8621C59.135 36.8377 59.0044 36.8668 58.9011 36.9442C58.815 37.0087 58.7555 37.1007 58.731 37.2032C58.7229 37.2374 58.7187 37.2727 58.7187 37.3086V37.8721C58.7187 37.9946 58.6708 38.1097 58.584 38.1962C58.5696 38.2106 58.5544 38.2239 58.5385 38.236V38.1214V36.5572C58.5385 36.4922 58.5407 36.4272 58.5444 36.3625C58.5456 36.3418 58.5476 36.3214 58.5491 36.3008C58.5523 36.257 58.5562 36.2132 58.5611 36.1696C58.5639 36.1447 58.5672 36.1199 58.5706 36.0951C58.5758 36.0566 58.5817 36.0182 58.5883 35.9799C58.5929 35.9529 58.5975 35.9258 58.6028 35.899C58.6097 35.8637 58.6176 35.8287 58.6256 35.7937C58.9735 34.2756 60.3343 33.1393 61.9564 33.1393H65.0838C66.7328 33.1393 68.1129 34.3131 68.4321 35.8692C68.4777 36.0915 68.5017 36.3216 68.5017 36.5571V38.237C68.4858 38.2249 68.4706 38.2115 68.4562 38.1972C68.3694 38.1107 68.3216 37.9955 68.3216 37.8729V37.3086C68.3216 37.2727 68.3173 37.2374 68.3092 37.2032C68.2848 37.1007 68.2252 37.0086 68.1391 36.9441C68.1389 36.944 68.1387 36.9439 68.1385 36.9437C68.1209 36.9306 68.1022 36.9193 68.0832 36.9089C68.0776 36.9059 68.0721 36.9032 68.0664 36.9004C68.0511 36.8929 68.0354 36.8863 68.0194 36.8806C68.0144 36.8787 68.0096 36.8767 68.0046 36.8751C67.9841 36.8686 67.9632 36.8634 67.9421 36.8599C67.9376 36.8591 67.9329 36.8588 67.9284 36.8582C67.9111 36.8558 67.8938 36.8544 67.8764 36.854C67.8729 36.8539 67.8696 36.8532 67.8661 36.8532C67.8628 36.8532 67.8596 36.8538 67.8562 36.8539C67.8427 36.8542 67.8292 36.8552 67.8157 36.8567C67.8094 36.8574 67.803 36.8579 67.7966 36.8589C67.7769 36.8619 67.7573 36.8659 67.738 36.8716L67.6434 36.8994L67.2264 37.0217C64.8017 37.7329 62.2384 37.7329 59.8137 37.0217L59.4523 36.9157ZM59.6464 41.3838C59.6456 41.3775 59.645 41.3712 59.6443 41.365C59.64 41.3259 59.6366 41.2868 59.6343 41.248C59.634 41.2428 59.6335 41.2375 59.6332 41.2323C59.6308 41.1884 59.6293 41.1446 59.6293 41.1012V37.9165C62.1766 38.6492 64.8636 38.6492 67.4109 37.9165V41.0917C67.4109 41.1351 67.4096 41.1788 67.4071 41.2227C67.4068 41.2285 67.4063 41.2345 67.4059 41.2404C67.4036 41.2782 67.4003 41.316 67.3962 41.3541C67.3954 41.3618 67.3945 41.3695 67.3936 41.3772C67.3887 41.4188 67.3831 41.4605 67.3761 41.5024C67.3759 41.5037 67.3757 41.5051 67.3755 41.5064C67.2137 42.4802 66.517 43.5194 65.6631 44.1423C65.6569 44.1467 65.6509 44.1512 65.6447 44.1556C65.6176 44.1752 65.5902 44.1938 65.5627 44.2126C65.5477 44.2227 65.5329 44.2332 65.5179 44.2432C65.5097 44.2485 65.5015 44.2535 65.4934 44.2588C65.4657 44.2767 65.4381 44.2944 65.4101 44.3115C65.4087 44.3123 65.4074 44.3135 65.406 44.3143C65.1521 44.4687 64.8883 44.5847 64.6236 44.6505L64.5761 44.6623C63.6048 44.9038 63.3819 44.9034 62.4069 44.6575C62.1448 44.5914 61.8835 44.476 61.6321 44.3228C61.6315 44.3224 61.631 44.3219 61.6303 44.3215C61.6193 44.3148 61.6085 44.3076 61.5975 44.3007C61.5688 44.2828 61.5403 44.2649 61.512 44.246C61.5042 44.2409 61.4965 44.2355 61.4888 44.2303C60.5458 43.5924 59.769 42.4353 59.6464 41.3838ZM56.416 43.557L56.4207 46.9663L53.9513 47.8391C53.9035 47.8559 53.8563 47.8736 53.8095 47.8921C53.7946 47.8981 53.78 47.9046 53.7652 47.9106C53.7534 47.9155 53.7415 47.9204 53.7298 47.9254C53.7101 47.9336 53.6902 47.9415 53.6707 47.95C53.6466 47.9606 53.623 47.972 53.5992 47.983C53.5777 47.9929 53.556 48.0024 53.5347 48.0128C53.5127 48.0234 53.4912 48.0348 53.4694 48.0459C53.4468 48.0573 53.424 48.0684 53.4017 48.0802C53.3822 48.0906 53.363 48.1016 53.3437 48.1123C53.3197 48.1256 53.2955 48.1385 53.2719 48.1522C53.2535 48.1628 53.2357 48.174 53.2176 48.1849C53.2005 48.1951 53.1834 48.2052 53.1665 48.2157L53.16 43.5615L56.416 43.557ZM61.4761 56.8603H55.8523V52.5195C55.8523 52.2681 55.6484 52.0642 55.397 52.0642C55.1455 52.0642 54.9417 52.2681 54.9417 52.5195V56.8603H52.2777C52.1867 56.8603 52.1022 56.8237 52.0398 56.7572C51.9771 56.6903 51.9457 56.603 51.9516 56.5114C51.9517 56.5084 51.9519 56.5054 51.9521 56.5024L52.173 51.4507C52.2214 50.7059 52.529 50.0225 53.0186 49.5026C53.021 49.5001 53.0235 49.4977 53.0259 49.4951C53.0309 49.4904 53.0362 49.4859 53.041 49.4809C53.3329 49.1768 53.6874 48.9331 54.0745 48.7682C54.0826 48.7648 54.0907 48.7614 54.0989 48.758C54.1504 48.7366 54.2022 48.7162 54.2548 48.6976L57.7469 47.4635L60.1453 50.476C60.3043 50.6758 60.5382 50.7804 60.7751 50.7804C60.9401 50.7804 61.1066 50.7296 61.2502 50.6248L61.9636 50.1038L62.1555 50.7801L61.4761 56.8603ZM60.7948 49.8298L58.6553 47.1425L59.2504 46.9321L59.526 47.2082C59.5855 47.2678 59.6465 47.3253 59.7081 47.3818C59.7257 47.398 59.7435 47.4138 59.7613 47.4297C59.8096 47.4728 59.8585 47.515 59.9079 47.5563C59.9241 47.5698 59.9401 47.5836 59.9564 47.597C60.0203 47.6491 60.085 47.6998 60.1508 47.7489C60.1636 47.7584 60.1766 47.7674 60.1895 47.7768C60.2441 47.8168 60.2993 47.8558 60.3552 47.8936C60.3755 47.9074 60.3958 47.921 60.4163 47.9345C60.4735 47.9723 60.5314 48.0089 60.5898 48.0444C60.6022 48.052 60.6144 48.0599 60.6268 48.0673C60.6968 48.1091 60.7676 48.149 60.8391 48.1876C60.8583 48.1979 60.8776 48.2077 60.8969 48.2178C60.9525 48.247 61.0086 48.2752 61.0651 48.3024C61.0863 48.3126 61.1074 48.3229 61.1287 48.3329C61.2026 48.3673 61.277 48.4006 61.3523 48.4318C61.3565 48.4336 61.3608 48.4351 61.3651 48.4368C61.4367 48.4663 61.5091 48.4938 61.5819 48.5203C61.6044 48.5284 61.627 48.5363 61.6496 48.5441C61.7098 48.5651 61.7703 48.585 61.8313 48.6039C61.8506 48.6099 61.8698 48.6163 61.8892 48.6221C61.9673 48.6454 62.0458 48.6671 62.125 48.687C62.1416 48.6912 62.1584 48.6948 62.175 48.6988C62.2174 48.7091 62.2598 48.7196 62.3024 48.7289L60.7948 49.8298ZM62.326 47.7976C62.2702 47.7832 62.2146 47.7681 62.1595 47.7518C62.1338 47.7441 62.1085 47.7358 62.083 47.7278C62.0408 47.7145 61.9986 47.7008 61.9568 47.6863C61.9289 47.6766 61.9011 47.6666 61.8734 47.6564C61.834 47.6419 61.7948 47.6268 61.7558 47.6113C61.7281 47.6002 61.7004 47.5892 61.673 47.5776C61.6325 47.5606 61.5925 47.5426 61.5525 47.5244C61.5278 47.5131 61.5028 47.5024 61.4782 47.4906C61.4174 47.4616 61.3571 47.4315 61.2976 47.3999C61.2735 47.3871 61.25 47.3733 61.2262 47.3601C61.1883 47.3392 61.1505 47.3182 61.1132 47.2962C61.0853 47.2797 61.0577 47.2625 61.0301 47.2454C60.9975 47.2252 60.9649 47.2048 60.9327 47.1837C60.9046 47.1654 60.8768 47.1467 60.8491 47.1278C60.8173 47.106 60.7858 47.0837 60.7545 47.0611C60.7281 47.0421 60.7016 47.0231 60.6755 47.0035C60.6687 46.9983 60.6621 46.9928 60.6553 46.9876L61.3847 46.6213C61.6638 46.5153 61.8483 46.2505 61.8484 45.9483L61.8484 45.4366C61.9594 45.4774 62.0715 45.5122 62.1841 45.5406C62.7434 45.6816 63.1201 45.752 63.4976 45.752C63.8707 45.752 64.2444 45.6832 64.7958 45.5461L64.8433 45.5343C64.9602 45.5053 65.0764 45.4691 65.1916 45.4268L65.1916 45.9484C65.1917 46.2506 65.3762 46.5155 65.6554 46.6214L66.385 46.9876C66.384 46.9884 66.3831 46.9892 66.3821 46.99C66.3721 46.9975 66.3624 47.0053 66.3524 47.0128C66.3365 47.0247 66.3204 47.0362 66.3044 47.0479C66.2967 47.0535 66.2888 47.0589 66.2811 47.0645C66.2484 47.0879 66.2158 47.1113 66.1826 47.1338C66.1813 47.1348 66.1799 47.1356 66.1786 47.1365C66.1475 47.1576 66.1161 47.178 66.0845 47.1983C66.0626 47.2125 66.0405 47.2265 66.0183 47.2403C65.9814 47.2631 65.9444 47.2858 65.9069 47.3076C65.8954 47.3143 65.8837 47.3207 65.8722 47.3273C65.7317 47.4075 65.5874 47.4806 65.4393 47.5459C65.4354 47.5476 65.4314 47.5494 65.4275 47.5511C65.2164 47.6434 64.9981 47.7204 64.7739 47.7813C64.7727 47.7816 64.7714 47.7819 64.7703 47.7823C64.7151 47.7972 64.6594 47.8111 64.6036 47.8241C64.5999 47.825 64.5963 47.8258 64.5926 47.8266C64.5378 47.8392 64.4826 47.851 64.4271 47.8616C64.3558 47.8754 64.2836 47.8874 64.2123 47.8978C64.2034 47.8991 64.1944 47.9003 64.1854 47.9016C64.1686 47.9039 64.1517 47.9058 64.1348 47.9079C64.1024 47.9121 64.07 47.9163 64.0374 47.9198C64.023 47.9214 64.0086 47.9228 63.9941 47.9242C63.9733 47.9263 63.9525 47.928 63.9316 47.9298C63.8909 47.9332 63.8501 47.9363 63.8091 47.9387C63.8029 47.9391 63.7967 47.9394 63.7905 47.9398C63.7694 47.941 63.7483 47.9423 63.7272 47.9432C63.6584 47.9461 63.5894 47.9482 63.5201 47.9482C63.4468 47.9482 63.3738 47.9461 63.3011 47.9429C63.2778 47.9418 63.2546 47.9401 63.2314 47.9387C63.1817 47.9358 63.132 47.9323 63.0826 47.9278C63.0559 47.9254 63.0294 47.9226 63.0029 47.9198C62.9563 47.9148 62.9098 47.9091 62.8634 47.9028C62.8371 47.8991 62.8108 47.8956 62.7846 47.8916C62.7353 47.884 62.6864 47.8754 62.6376 47.8663C62.6156 47.8622 62.5934 47.8585 62.5715 47.8541C62.5021 47.8402 62.4331 47.825 62.3646 47.808C62.3517 47.8048 62.3389 47.8009 62.326 47.7976ZM64.2925 49.5313L64.0783 50.2866H62.9621L62.7478 49.5313L63.5201 48.9673L64.2925 49.5313ZM62.3924 56.8603L63.0252 51.1972H64.015L64.6478 56.8603H62.3924ZM64.7475 48.725C65.199 48.626 65.6339 48.4724 66.0446 48.2675C66.0539 48.2628 66.0632 48.2581 66.0726 48.2534C66.2266 48.1755 66.3771 48.0903 66.5237 47.9981C66.5492 47.9821 66.5748 47.9662 66.6 47.9498C66.6368 47.9258 66.6734 47.9013 66.7097 47.8763C66.7446 47.8524 66.7791 47.8278 66.8136 47.8031C66.8426 47.7822 66.8719 47.7618 66.9007 47.7402C66.9612 47.6949 67.0207 47.6483 67.0795 47.6005C67.1005 47.5833 67.1211 47.5656 67.1419 47.5482C67.1871 47.5103 67.2319 47.4717 67.2761 47.4323C67.2956 47.4149 67.3151 47.3975 67.3344 47.3798C67.3946 47.3246 67.4541 47.2684 67.5121 47.2103C67.5129 47.2096 67.5137 47.2089 67.5144 47.2081L67.6522 47.0701L67.7901 46.9321L68.385 47.1425L66.2456 49.8298L64.7364 48.7277C64.74 48.7268 64.7437 48.7258 64.7475 48.725Z" fill="white"/>
</g>
<defs>
<filter id="filter0_d" x="0" y="0" width="120" height="120" filterUnits="userSpaceOnUse" color-interpolation-filters="sRGB">
<feFlood flood-opacity="0" result="BackgroundImageFix"/>
<feColorMatrix in="SourceAlpha" type="matrix" values="0 0 0 0 0 0 0 0 0 0 0 0 0 0 0 0 0 0 127 0" result="hardAlpha"/>
<feOffset dy="15"/>
<feGaussianBlur stdDeviation="15"/>
<feComposite in2="hardAlpha" operator="out"/>
<feColorMatrix type="matrix" values="0 0 0 0 1 0 0 0 0 0.317647 0 0 0 0 0.317647 0 0 0 0.25 0"/>
<feBlend mode="normal" in2="BackgroundImageFix" result="effect1_dropShadow"/>
<feBlend mode="normal" in="SourceGraphic" in2="effect1_dropShadow" result="shape"/>
</filter>
<clipPath id="clip0">
<rect width="32" height="32" fill="white" transform="translate(44 29)"/>
</clipPath>
</defs>
</svg>
