<svg width="683" height="513" viewBox="0 0 683 513" fill="none" xmlns="http://www.w3.org/2000/svg">
<path d="M398.616 456.879C398.616 456.879 474.172 256.051 524.017 280.168C573.862 304.289 445.693 402.662 425.417 461.877L398.616 456.879Z" fill="#E1E1E1"/>
<path d="M424.082 429.735C424.082 429.735 556.658 240.721 613.096 283.417C669.533 326.114 492.636 387.764 456.006 444.175L424.082 429.735Z" fill="#EAEAEA"/>
<path d="M441.874 437.979C466.511 398.527 505.674 365.116 534.188 344.035C565.102 321.182 590.488 307.499 590.742 307.365L589.954 305.665C589.7 305.803 564.199 319.539 533.187 342.468C504.547 363.642 465.203 397.218 440.409 436.919L441.874 437.979Z" fill="#F3F3F3"/>
<path d="M644.744 406.646C620.676 415.224 628.755 454.907 599.938 450.687C575.563 447.104 573.333 444.976 565.841 453.286C563.273 456.135 561.141 459.398 559.413 462.906C557.344 467.108 553.168 473.433 546.095 475.623C502.86 489.017 435.655 425.795 477.782 381.848C480.822 378.674 485.549 377.045 490.811 375.527C519.343 367.315 529.808 380.615 549.011 341.168C568.223 301.712 604.487 350.939 623.765 346.839C643.039 342.744 659.567 334.487 676.931 354.94C694.304 375.416 668.817 398.086 644.744 406.646Z" fill="#E1E1E1"/>
<g opacity="0.5">
<g opacity="0.5">
<g opacity="0.5">
<path opacity="0.5" d="M496.887 431.27L495.814 429.895C496.375 429.388 553.591 378.75 681.049 360.843L681.267 362.623C554.286 380.464 497.448 430.763 496.887 431.27Z" fill="#F3F3F3"/>
</g>
</g>
<g opacity="0.5">
<g opacity="0.5">
<path opacity="0.5" d="M571.12 369.006C552.648 354.615 548.397 341.992 548.223 341.462L549.799 340.87C549.839 340.994 554.099 353.529 572.1 367.555L571.12 369.006Z" fill="#68A1BF"/>
</g>
</g>
<g opacity="0.5">
<g opacity="0.5">
<path opacity="0.5" d="M575.95 387.929C570.324 379.489 569.487 366.487 573.533 350.338C576.56 338.244 581.305 328.482 581.354 328.388L582.827 329.225C582.64 329.604 564.368 367.479 577.308 386.887L575.95 387.929Z" fill="#68A1BF"/>
</g>
</g>
</g>
<path d="M548.352 268.047C551.192 263.623 553.743 263.578 555.853 265.145C557.963 266.712 558.826 269.298 555.986 273.723C550.814 281.784 544.502 282.839 544.502 282.839C544.502 282.839 543.109 276.224 548.352 268.047Z" fill="#EAEAEA"/>
<path d="M266.169 358.608C266.169 358.608 268.604 264.762 244.928 265.007C221.252 265.252 256.239 328.282 254.725 355.577L266.169 358.608Z" fill="#E1E1E1"/>
<path d="M265.831 366.015C265.831 366.015 235.736 239.582 198.612 248.377C161.489 257.173 239.257 328.989 246.748 366.051L265.831 366.015Z" fill="#EAEAEA"/>
<path d="M255.157 366.14C250.416 340.443 237.103 314.496 226.767 297.256C215.563 278.566 205.352 265.799 205.249 265.675L205.984 264.989C206.086 265.118 216.337 277.938 227.581 296.691C237.962 314.011 251.338 340.082 256.109 365.939L255.157 366.14Z" fill="#F3F3F3"/>
<path d="M199.28 390.533C184.515 388.895 195.96 393.542 178.226 392.46C174.464 400.152 153.512 392.037 146.969 380.526C138.627 365.859 138.632 369.229 113.358 371.744C95.2276 373.538 94.4531 356.405 87.8251 343.461C87.7049 343.225 87.5803 342.989 87.4602 342.753C84.8873 337.95 81.4287 333.792 75.8557 331.513C69.9444 329.096 63.9753 325.678 58.8296 321.614C58.4023 321.28 57.9795 320.937 57.5655 320.59C47.4033 312.133 40.9623 301.174 45.694 290.869C45.8053 290.624 45.921 290.379 46.0456 290.139C46.9136 288.443 48.0977 286.76 49.6155 285.118C65.4798 267.994 79.5948 275.868 96.2558 280.235C105.465 282.643 119.781 271.061 133.335 266.164C133.526 266.093 133.722 266.026 133.918 265.96C144.668 262.225 154.883 262.902 161.627 278.352C161.627 278.356 161.627 278.356 161.627 278.356C161.765 278.668 161.903 278.98 162.037 279.287C177.144 313.334 186.786 302.442 211.156 310.695C215.688 312.235 219.752 313.851 222.293 316.744C245.983 343.696 226.135 376.249 199.28 390.533Z" fill="#EAEAEA"/>
<path d="M203.892 359.04L204.875 357.887C204.404 357.42 156.312 310.926 45.8187 290.094L45.5695 291.639C155.645 312.391 203.42 358.577 203.892 359.04Z" fill="#F3F3F3"/>
<path d="M141.369 301.712C157.986 289.921 162.139 279.091 162.308 278.632L160.955 278.049C160.915 278.156 156.757 288.91 140.568 300.399L141.369 301.712Z" fill="#F3F3F3"/>
<path d="M136.491 318.013C141.694 310.886 142.883 299.584 139.927 285.336C137.715 274.666 133.922 265.964 133.887 265.879L132.574 266.547C132.721 266.885 147.316 300.653 135.351 317.047L136.491 318.013Z" fill="#F3F3F3"/>
<path d="M138.725 230.675C135.64 225.645 136.21 223.094 138.04 221.794C139.869 220.494 142.273 220.935 145.357 225.965C150.975 235.126 150.374 241.909 150.374 241.909C150.374 241.909 144.427 239.969 138.725 230.675Z" fill="#E1E1E1"/>
<path d="M132.996 248.662C127.508 247.487 126.221 245.257 126.649 242.942C127.076 240.628 129.057 239.096 134.545 240.276C144.547 242.417 148.602 247.652 148.602 247.652C148.602 247.652 143.145 250.839 132.996 248.662Z" fill="#E1E1E1"/>
<path d="M348.589 513C527.302 513 672.177 494.219 672.177 471.051C672.177 447.884 527.302 429.103 348.589 429.103C169.876 429.103 25 447.884 25 471.051C25 494.219 169.876 513 348.589 513Z" fill="#EAEAEA"/>
<path d="M199.138 152.101C199.138 152.101 415.772 235.473 482.941 291.808C563.665 359.507 346.719 353.792 343.016 375.87C339.308 397.948 565.481 438.286 565.481 438.286C555.043 471.051 402.511 486.76 286.868 463.208C242.27 454.123 183.127 426.801 187.377 378.114C194.326 298.583 340.884 323.581 336.25 294.955C331.616 266.329 188.036 169.964 188.036 169.964L199.138 152.101Z" fill="#00A3FE"/>
<path d="M223.602 142.299C206.812 130.156 145.18 116.865 144.254 124.111C143.328 131.358 175.128 199.547 183.5 197.433C191.878 195.318 196.703 162.472 196.703 162.472C196.703 162.472 232.673 148.856 223.602 142.299Z" fill="#00A3FE"/>
<path d="M541.244 386.602C542.25 387.831 543.736 390.746 544.72 391.997C545.147 392.54 546.469 394.472 546.033 395.006C545.655 395.469 543.937 394.481 543.171 393.898C543.616 398.589 542.343 405.645 540.758 395.887C540.754 395.887 540.749 395.887 540.745 395.892C540.821 396.893 541.252 402.475 539.984 402.057C538.867 401.692 538.408 397.708 538.266 396.061C538.252 396.061 538.239 396.061 538.221 396.061C538.235 397.748 538.168 401.825 537.206 401.104C536.004 400.196 535.403 395.847 535.403 395.847C535.403 395.847 536.058 401.425 534.549 400.561C533.699 400.076 533.632 396.84 533.614 394.828C533.61 394.405 533.61 394.036 533.605 393.76C533.601 393.528 533.619 393.323 533.659 393.137C533.828 389.767 534.455 387.635 534.455 387.635C534.455 387.635 534.78 384.986 537.473 384.737C539.196 384.572 540.807 386.068 541.244 386.602Z" fill="#FF7955"/>
<path d="M544.849 387.813C554.321 381.114 545.174 358.069 549.109 343.754C550.022 340.438 550.413 339.187 551.201 337.34C551.833 335.853 550.124 332.96 547.778 331.767C545.575 330.645 540.287 331.384 539.868 332.136C533.49 343.594 530.432 362.263 533.61 386.273C533.61 386.268 540.781 390.688 544.849 387.813Z" fill="#F3F3F3"/>
<path d="M559.948 472.396C559.948 472.396 559.868 475.85 557.695 476.825C555.523 477.799 549.234 478.681 551.584 480.902C552.933 482.175 559.289 481.351 561.087 481.351C562.881 481.351 564.568 482.193 565.904 480.902C567.372 479.478 565.904 472.396 565.904 472.396C565.904 472.396 564.354 473.264 562.961 473.223C560.949 473.166 559.948 472.396 559.948 472.396Z" fill="#131F2D"/>
<path d="M541.212 368.116C541.212 368.116 540.781 383.709 545.401 413.626C548.739 435.223 552.679 456.981 554.611 467.415C555.301 471.145 558.216 473.873 561.67 474.025L563.526 474.105C567.261 474.265 570.292 470.811 570.021 466.702L565.334 396.119L564.176 372.888L541.212 368.116Z" fill="#364154"/>
<path d="M587.042 471.897C587.042 471.897 588.289 475.08 586.686 476.931C585.079 478.783 579.68 482.371 582.676 483.355C584.394 483.92 589.873 480.35 591.507 479.553C593.145 478.756 595.001 478.779 595.722 477.007C596.515 475.062 592.469 469.258 592.469 469.258C592.469 469.258 591.387 470.735 590.105 471.318C588.249 472.155 587.042 471.897 587.042 471.897Z" fill="#131F2D"/>
<path d="M560.406 369.567C560.406 369.567 561.163 385.147 568.045 414.552C573.012 435.78 578.594 457.123 581.314 467.348C582.289 471.007 585.4 473.468 588.854 473.313L590.71 473.228C594.445 473.059 597.205 469.346 596.622 465.278L586.58 395.349L583.66 372.296L560.406 369.567Z" fill="#364154"/>
<path d="M587.016 385.209C586.971 387.092 576.404 387.84 563.335 387.399C550.266 386.958 539.824 385.013 539.868 383.135C539.913 381.252 550.431 380.148 563.5 380.588C576.569 381.02 587.06 383.326 587.016 385.209Z" fill="#131F2D"/>
<path d="M583.815 331.945C583.815 331.945 581.505 322.086 564.452 321.983C539.864 321.841 542.138 346.162 539.864 383.13C539.864 383.13 564.074 379.907 587.011 385.204C587.016 385.209 589.157 347.013 583.815 331.945Z" fill="#F3F3F3"/>
<path d="M590.11 330.53L578.973 337.162C578.973 337.162 554.588 339.548 548.116 338.399C541.644 337.251 539.868 332.132 539.868 332.132C539.868 332.132 546.763 324.454 558.479 322.402C559.578 322.206 560.722 322.063 561.906 321.983C563.896 321.845 565.886 321.872 567.831 322.112C582.685 323.911 590.11 330.53 590.11 330.53Z" fill="#F3F3F3"/>
<path d="M541.925 384.652C541.925 384.652 556.084 380.166 585.413 386.326L585.64 390.866L542.65 392.504L541.925 384.652Z" fill="#364154"/>
<path d="M591.227 385.36C590.203 373.208 582.872 340.785 581.901 339.045C581.118 337.643 582.52 334.567 584.732 333.098C586.807 331.723 589.491 329.964 590.114 330.53C598.878 338.484 605.471 368.583 603.094 384.692L591.227 385.36Z" fill="#F3F3F3"/>
<path d="M561.697 301.236C561.697 301.236 560.526 302.678 559.961 304.97C559.396 307.263 563.736 303.217 563.736 303.217L561.697 301.236Z" fill="#5C305D"/>
<path d="M569.99 322.415C568.227 324.756 565.058 324.427 562.578 323.247C560.584 322.299 560.869 322.317 561.145 321.974C561.822 321.12 562.378 320.915 562.414 319.931L562.463 318.645L562.467 318.484L562.529 316.806L562.641 313.913L562.93 306.301L565.133 313.953L565.507 315.257L566.794 319.731C567.217 321.169 569.976 322.41 569.99 322.415Z" fill="#FF7955"/>
<path d="M565.855 316.455C565.855 316.455 564.715 318.289 562.463 318.645L562.467 318.484L562.529 316.806C563.754 316.677 565.855 316.455 565.855 316.455Z" fill="#131F2D"/>
<path d="M570.536 311.982C572.426 307.953 571.35 303.464 568.134 301.956C564.917 300.447 560.778 302.491 558.889 306.519C557 310.548 558.075 315.037 561.292 316.545C564.508 318.053 568.647 316.01 570.536 311.982Z" fill="#FF7955"/>
<path d="M563.469 308.282C563.438 308.255 563.424 308.215 563.424 308.166C563.429 308.091 563.491 308.033 563.562 308.037C563.602 308.042 564.573 308.015 564.893 309.172C564.915 309.244 564.875 309.324 564.809 309.346C564.742 309.368 564.684 309.324 564.648 309.257C564.292 308.598 563.58 308.313 563.544 308.313C563.513 308.313 563.487 308.3 563.469 308.282Z" fill="#080435"/>
<path d="M560.375 306.608C560.348 306.595 560.331 306.56 560.331 306.519C560.331 306.448 560.375 306.377 560.433 306.359C560.469 306.35 561.265 306.016 561.621 306.96C561.644 307.018 561.621 307.103 561.568 307.143C561.515 307.187 561.461 307.16 561.43 307.111C561.083 306.631 560.469 306.604 560.442 306.613C560.415 306.622 560.393 306.617 560.375 306.608Z" fill="#080435"/>
<path d="M564.412 323.621C564.412 323.621 561.417 322.624 560.62 323.399C559.823 324.173 560.411 327.716 561.791 328.028C563.17 328.344 565.779 324.476 564.412 323.621Z" fill="#00A3FE"/>
<path d="M562.654 322.784C562.654 322.784 566.562 321.298 567.328 319.806C568.089 318.32 572.14 321.756 572.069 322.784C571.997 323.813 564.706 329.506 564.23 328.789C563.754 328.068 561.702 323.759 562.654 322.784Z" fill="#364154"/>
<path d="M562.654 322.784C562.654 322.784 562.071 321.222 562.351 320.376C562.351 320.376 562.538 319.633 561.942 319.682C561.345 319.735 558.105 322.17 557.82 322.913C557.535 323.657 557.486 327.147 558.537 327.405C559.587 327.663 562.111 323.915 562.409 323.541C562.703 323.172 562.654 322.784 562.654 322.784Z" fill="#364154"/>
<path d="M560.954 326.657C560.954 326.657 550.649 355.417 551.335 367.471C551.335 367.471 552.06 374.504 556.694 378.3C556.694 378.3 562.943 373.889 563.785 367.471C564.475 362.196 561.421 331.633 563.184 327.414L560.954 326.657Z" fill="#00A3FE"/>
<path d="M561.813 328.104C561.804 328.104 561.795 328.104 561.791 328.104C560.878 328.086 560.384 326.176 560.362 326.092L560.504 326.056C560.509 326.074 560.989 327.939 561.791 327.957C561.8 327.957 561.804 327.957 561.813 327.957C562.628 327.957 563.358 327.142 563.362 327.133L563.473 327.231C563.442 327.267 562.694 328.104 561.813 328.104Z" fill="#131F2D"/>
<path d="M569.18 306.043C569.18 306.043 566.745 307.614 563.691 306.159C563.691 306.159 563.402 305.825 564.079 305.754C564.755 305.678 565.93 305.113 565.872 304.712C565.819 304.312 562.111 306.355 559.89 304.948C559.89 304.948 556.752 303.11 559.561 302.059C561.301 301.409 562.485 295.774 570.319 299.429C571.463 299.963 573.796 301.414 573.831 303.751C573.831 303.751 576.907 305.282 575.687 309.555C573.853 315.983 567.804 315.44 567.804 315.44C567.804 315.44 571.396 311.082 569.714 310.989C567.555 310.873 567.119 309.288 568.396 308.607C569.674 307.931 570.871 305.87 569.18 306.043Z" fill="#131F2D"/>
<path d="M569.665 313.579C568.908 313.664 568.241 313.143 568.174 312.413C568.103 311.687 568.659 311.029 569.416 310.944C570.172 310.859 570.84 311.38 570.907 312.11C570.974 312.84 570.417 313.495 569.665 313.579Z" fill="#FF7955"/>
<path d="M576.173 305.313C576.11 305.313 576.052 305.273 576.03 305.211C575.616 303.867 574.187 303.524 574.174 303.519C574.094 303.502 574.045 303.421 574.063 303.341C574.08 303.261 574.16 303.212 574.241 303.23C574.307 303.243 575.847 303.613 576.315 305.122C576.337 305.202 576.297 305.282 576.217 305.309C576.204 305.309 576.19 305.313 576.173 305.313Z" fill="#131F2D"/>
<path d="M574.134 302.531C574.107 302.531 574.081 302.522 574.054 302.509C573.987 302.464 573.965 302.375 574.009 302.304C574.027 302.273 574.419 301.61 573.591 300.702C573.538 300.639 573.542 300.546 573.6 300.492C573.662 300.435 573.756 300.444 573.809 300.501C574.802 301.587 574.281 302.429 574.259 302.464C574.232 302.509 574.183 302.531 574.134 302.531Z" fill="#131F2D"/>
<path d="M597.379 388.179C600.655 387.971 603.22 386.378 603.108 384.622C602.997 382.865 600.251 381.609 596.976 381.817C593.701 382.025 591.136 383.617 591.247 385.374C591.359 387.131 594.104 388.386 597.379 388.179Z" fill="#131F2D"/>
<path d="M539.721 383.143C539.699 382.881 537.723 356.721 544.769 340.514L545.041 340.634C538.021 356.774 539.993 382.859 540.015 383.121L539.721 383.143Z" fill="#131F2D"/>
<path d="M587.301 359.672C585.445 351.508 581.594 345.708 581.559 345.65L581.803 345.486C581.843 345.544 585.721 351.393 587.59 359.605L587.301 359.672Z" fill="#131F2D"/>
<path d="M559.948 308.131C559.859 308.407 559.934 308.692 560.121 308.763C560.308 308.834 560.535 308.665 560.624 308.389C560.713 308.113 560.638 307.828 560.451 307.757C560.264 307.686 560.037 307.855 559.948 308.131Z" fill="#080435"/>
<path d="M562.877 309.796C562.788 310.072 562.863 310.356 563.05 310.428C563.237 310.499 563.464 310.33 563.553 310.054C563.642 309.778 563.567 309.493 563.38 309.422C563.193 309.346 562.97 309.515 562.877 309.796Z" fill="#080435"/>
<path d="M565.619 404.705C565.605 404.647 564.381 398.638 563.224 393.884C562.093 389.255 557.633 388.018 557.589 388.009L557.704 387.572C557.753 387.586 562.472 388.894 563.665 393.777C564.826 398.54 566.05 404.554 566.064 404.616L565.619 404.705Z" fill="#020202"/>
<path d="M593.528 406.357L591.681 406.321L591.828 398.496C591.899 396.511 593.288 394.846 595.131 394.516L600.931 393.479C602.631 393.177 604.314 394.049 605.115 395.656L605.128 395.687L608.831 403.815L607.153 404.581L603.459 396.47C603.023 395.611 602.141 395.144 601.26 395.3L595.46 396.337C594.467 396.515 593.715 397.445 593.675 398.549L593.528 406.357Z" fill="#131F2D"/>
<path d="M588.961 430.928L616.216 428.844C618.139 428.698 619.586 426.921 619.466 424.869L618.224 404.073C618.095 401.897 616.256 400.299 614.231 400.601L581.568 405.547C579.32 405.885 577.962 408.382 578.799 410.634L585.449 428.568C586.014 430.091 587.434 431.043 588.961 430.928Z" fill="#FB6504"/>
<path d="M599.386 417.547L599.319 417.534L579.827 413.728L579.912 413.31L599.333 417.102L618.375 408.004L618.562 408.391L599.386 417.547Z" fill="#131F2D"/>
<path d="M599.328 419.239C599.947 419.127 600.365 418.495 600.263 417.837L600.08 416.679C599.978 416.02 599.386 415.571 598.767 415.678C598.149 415.789 597.73 416.421 597.833 417.08L598.015 418.237C598.117 418.9 598.709 419.35 599.328 419.239Z" fill="#131F2D"/>
<path d="M590.221 394.058C590.648 393.168 591.124 391.694 591.596 390.283C591.979 389.148 592.362 388.053 592.718 387.345C592.905 386.98 594.125 385.262 597.049 385.285C599.996 385.307 600.33 386.566 600.33 386.566C600.33 386.566 601.518 388.672 602.497 392.215C602.582 392.402 602.649 392.616 602.702 392.865C603.049 394.583 603.837 396.956 602.862 397.868C601.799 398.861 601.135 397.152 600.868 396.212C601.051 397.071 601.264 398.727 600.481 399.662C599.653 400.646 598.709 397.957 598.295 396.586C598.291 396.586 598.286 396.586 598.286 396.591C598.58 397.819 598.985 400.201 597.944 400.846C596.711 401.612 595.763 397.953 595.509 397.116C595.478 397.116 595.447 397.12 595.42 397.12C594.699 402.328 592.771 399.698 592.335 395.687C591.627 396.519 590.029 398.015 589.513 397.632C588.908 397.178 589.887 394.752 590.221 394.058Z" fill="#FF7955"/>
<path d="M560.7 312.502C560.602 312.867 560.344 313.107 560.126 313.041C559.908 312.974 559.81 312.622 559.908 312.257C560.006 311.892 560.264 311.652 560.482 311.719C560.7 311.785 560.798 312.137 560.7 312.502Z" fill="#F3F3F3"/>
<path d="M315.672 376.925C314.821 378.39 313.744 381.688 312.925 383.17C312.569 383.811 311.505 386.063 312.044 386.535C312.511 386.949 314.136 385.601 314.835 384.857C315.12 389.811 317.568 396.902 317.661 386.477C317.666 386.477 317.67 386.477 317.679 386.477C317.759 387.532 318.204 393.404 319.451 392.736C320.55 392.148 320.39 387.929 320.279 386.193C320.292 386.188 320.31 386.188 320.323 386.184C320.581 387.937 321.302 392.157 322.179 391.231C323.283 390.065 323.208 385.44 323.208 385.44C323.208 385.44 323.421 391.352 324.846 390.176C325.647 389.513 325.202 386.144 324.899 384.052C324.837 383.611 324.779 383.228 324.739 382.939C324.708 382.698 324.654 382.489 324.588 382.302C323.875 378.839 322.883 376.734 322.883 376.734C322.883 376.734 322.126 374.045 319.286 374.285C317.47 374.437 316.037 376.293 315.672 376.925Z" fill="#FF7955"/>
<path d="M313.526 377.637C303.261 370.377 314.287 347.894 310.023 332.381C309.035 328.785 308.607 327.432 307.753 325.428C307.067 323.817 308.919 320.683 311.465 319.388C313.855 318.173 319.584 318.974 320.038 319.789C326.951 332.208 329.186 352.59 325.74 378.612C325.736 378.612 317.933 380.753 313.526 377.637Z" fill="#FB6504"/>
<path d="M298.276 471.799C298.276 471.799 298.365 475.543 300.715 476.602C303.07 477.657 309.889 478.61 307.339 481.018C305.879 482.398 298.984 481.507 297.039 481.507C295.093 481.507 293.268 482.42 291.822 481.018C290.233 479.478 291.822 471.799 291.822 471.799C291.822 471.799 293.5 472.743 295.009 472.698C297.19 472.636 298.276 471.799 298.276 471.799Z" fill="#131F2D"/>
<path d="M318.578 358.786C318.578 358.786 319.046 375.688 314.038 408.106C310.424 431.511 306.15 455.098 304.058 466.404C303.311 470.45 300.15 473.406 296.407 473.566L294.395 473.655C290.344 473.829 287.059 470.085 287.357 465.634L292.441 389.139L293.691 363.963L318.578 358.786Z" fill="#364154"/>
<path d="M275.984 471.799C275.984 471.799 276.073 475.543 278.423 476.602C280.778 477.657 287.597 478.61 285.047 481.018C283.587 482.398 276.692 481.507 274.747 481.507C272.801 481.507 270.976 482.42 269.53 481.018C267.941 479.478 269.53 471.799 269.53 471.799C269.53 471.799 271.208 472.743 272.717 472.698C274.898 472.636 275.984 471.799 275.984 471.799Z" fill="#131F2D"/>
<path d="M296.291 358.786C296.291 358.786 296.758 375.688 291.751 408.106C288.136 431.511 283.863 455.098 281.771 466.404C281.023 470.45 277.863 473.406 274.119 473.566L272.107 473.655C268.057 473.829 264.771 470.085 265.07 465.634L270.153 389.139L271.404 363.963L296.291 358.786Z" fill="#364154"/>
<path d="M268.938 377.308C268.987 379.347 280.44 380.157 294.604 379.68C308.768 379.204 320.087 377.094 320.038 375.056C319.989 373.017 308.594 371.819 294.43 372.296C280.266 372.772 268.889 375.269 268.938 377.308Z" fill="#131F2D"/>
<path d="M272.405 319.579C272.405 319.579 274.912 308.892 293.389 308.785C320.038 308.629 317.572 334.99 320.038 375.055C320.038 375.055 293.789 371.058 268.925 376.805C268.925 376.805 266.619 335.911 272.405 319.579Z" fill="#FB6504"/>
<path d="M265.582 318.048L277.649 325.237C277.649 325.237 304.076 327.819 311.091 326.577C318.107 325.33 320.034 319.784 320.034 319.784C320.034 319.784 312.56 311.46 299.861 309.239C298.668 309.03 297.43 308.874 296.148 308.785C293.994 308.634 291.835 308.665 289.73 308.923C273.634 310.877 265.582 318.048 265.582 318.048Z" fill="#FB6504"/>
<path d="M317.804 376.707C317.804 376.707 302.456 371.846 270.674 378.519L270.429 383.442L317.025 385.213L317.804 376.707Z" fill="#364154"/>
<path d="M263.272 376.805C264.384 363.634 273.429 329.163 274.48 327.276C275.33 325.758 273.808 322.419 271.413 320.83C269.165 319.339 266.258 317.434 265.582 318.048C256.083 326.67 247.906 358.181 250.483 375.639L263.272 376.805Z" fill="#FB6504"/>
<path d="M287.388 309.253C289.302 311.79 292.734 311.429 295.423 310.152C297.582 309.123 297.275 309.146 296.976 308.772C296.246 307.846 295.641 307.623 295.601 306.56L295.547 305.166L295.543 304.993L295.476 303.172L295.356 300.034L295.044 291.781L292.654 300.074L292.249 301.485L290.856 306.333C290.397 307.904 287.402 309.248 287.388 309.253Z" fill="#FF7955"/>
<path d="M291.955 302.731C291.955 302.731 293.104 304.779 295.548 305.166L295.543 304.993L295.476 303.172C294.15 303.034 291.955 302.731 291.955 302.731Z" fill="#131F2D"/>
<path d="M307.597 358.078C307.597 358.078 306.827 365.699 301.797 369.821C301.797 369.821 298.668 367.617 296.407 364.016C295.298 362.334 294.408 360.335 294.119 358.083C293.998 357.072 293.976 355.207 294.021 352.795C294.092 350.85 294.212 348.544 294.332 346.029C294.55 341.622 294.862 336.619 295.08 331.905C295.2 329.314 295.298 326.799 295.343 324.543C295.441 319.749 295.321 315.992 294.764 314.67L297.172 313.864C297.172 313.864 298.209 316.74 299.629 321.12C300.159 322.802 300.76 324.694 301.388 326.719C302.349 329.96 303.386 333.561 304.325 337.189C304.833 339.183 305.336 341.204 305.745 343.176C306.636 347.244 307.312 351.134 307.526 354.397C307.646 355.746 307.673 356.961 307.597 358.078Z" fill="#00A3FE"/>
<path d="M250.487 375.639C250.412 377.544 253.229 379.253 256.777 379.453C260.329 379.654 263.267 378.269 263.343 376.364C263.418 374.459 260.601 372.75 257.053 372.549C253.501 372.349 250.563 373.729 250.487 375.639Z" fill="#131F2D"/>
<path d="M320.194 375.069L319.874 375.042C319.896 374.757 322.032 346.483 314.425 328.994L314.719 328.865C322.362 346.429 320.216 374.784 320.194 375.069Z" fill="#131F2D"/>
<path d="M268.626 349.63L268.315 349.559C270.34 340.656 274.542 334.318 274.586 334.255L274.853 334.433C274.809 334.496 270.638 340.785 268.626 349.63Z" fill="#131F2D"/>
<path d="M297.84 286.524C297.84 286.524 298.917 288.247 299.233 290.793C299.549 293.344 295.401 288.349 295.401 288.349L297.84 286.524Z" fill="#131F2D"/>
<path d="M296.535 303.045C300.14 301.768 301.749 297.023 300.128 292.446C298.507 287.87 294.27 285.195 290.664 286.472C287.058 287.749 285.449 292.495 287.071 297.071C288.692 301.648 292.929 304.323 296.535 303.045Z" fill="#FF7955"/>
<path d="M286.556 295.69L289.57 294.158C290.233 293.82 290.731 293.188 290.9 292.418C291.19 291.096 291.782 290.25 294.737 289.266C298.481 288.02 300.146 284.726 299.87 282.492C299.585 280.213 297.226 279.487 295.699 281.201C294.172 282.914 294.159 280.128 292.289 280.542C288.795 281.308 289.071 284.312 286.311 285.256C282.692 286.489 277.235 291.844 282.488 297.479L286.556 295.69Z" fill="#131F2D"/>
<path d="M294.261 293.727C294.288 293.691 294.297 293.642 294.288 293.597C294.27 293.517 294.194 293.468 294.119 293.491C294.074 293.504 293.037 293.682 292.912 294.986C292.903 295.066 292.957 295.142 293.033 295.155C293.108 295.164 293.162 295.102 293.188 295.026C293.447 294.247 294.154 293.793 294.19 293.784C294.217 293.771 294.243 293.749 294.261 293.727Z" fill="#080435"/>
<path d="M294.279 295.747C294.466 296.041 294.782 296.161 294.978 296.014C295.174 295.868 295.182 295.511 294.995 295.218C294.808 294.924 294.493 294.804 294.297 294.951C294.101 295.098 294.092 295.458 294.279 295.747Z" fill="#080435"/>
<path d="M298.588 291.287C298.615 291.265 298.628 291.229 298.623 291.185C298.615 291.109 298.557 291.038 298.49 291.029C298.45 291.025 297.546 290.793 297.297 291.866C297.279 291.933 297.319 292.017 297.382 292.053C297.444 292.089 297.497 292.057 297.528 291.999C297.836 291.425 298.485 291.301 298.521 291.305C298.548 291.31 298.57 291.301 298.588 291.287Z" fill="#080435"/>
<path d="M298.094 293.268C298.205 293.606 298.476 293.807 298.703 293.722C298.93 293.638 299.024 293.295 298.913 292.956C298.801 292.618 298.53 292.418 298.303 292.502C298.08 292.587 297.982 292.93 298.094 293.268Z" fill="#080435"/>
<path d="M282.483 297.479C282.483 297.479 286.28 301.681 289.463 300.893C289.463 300.893 285.737 298.004 290.202 293.7C290.202 293.7 285.145 294.701 282.483 297.479Z" fill="#131F2D"/>
<path d="M287.704 298.619C288.506 298.819 289.289 298.356 289.458 297.586C289.627 296.816 289.111 296.028 288.31 295.828C287.509 295.627 286.725 296.09 286.556 296.86C286.391 297.63 286.903 298.418 287.704 298.619Z" fill="#FF7955"/>
<path d="M298.783 282.047C298.107 282.047 297.791 281.535 297.72 281.223C297.697 281.138 297.751 281.049 297.84 281.027C297.924 281.005 298.013 281.058 298.036 281.143C298.053 281.219 298.245 281.864 299.046 281.695C299.135 281.677 299.22 281.73 299.237 281.819C299.255 281.909 299.202 281.993 299.113 282.011C298.988 282.038 298.881 282.047 298.783 282.047Z" fill="#00A3FE"/>
<path d="M295.418 287.753L295.36 287.677C295.396 287.651 298.917 284.909 298.37 282.665C298.209 282.015 297.973 281.641 297.648 281.517C297.145 281.325 296.504 281.766 295.939 282.153C295.85 282.216 295.766 282.273 295.681 282.327L295.628 282.247C295.712 282.193 295.797 282.131 295.886 282.073C296.469 281.673 297.137 281.219 297.684 281.428C298.045 281.566 298.298 281.962 298.467 282.643C298.699 283.6 298.249 284.788 297.154 286.079C296.331 287.05 295.427 287.749 295.418 287.753Z" fill="#F3F3F3"/>
<path d="M285.029 286.618L285.007 286.524C289.026 285.634 290.117 282.612 290.126 282.581L290.219 282.612C290.21 282.643 289.102 285.719 285.029 286.618Z" fill="#F3F3F3"/>
<path d="M260.921 376.956C262.087 378.14 263.908 381.038 265.052 382.249C265.55 382.774 267.108 384.657 266.699 385.262C266.343 385.787 264.455 384.928 263.601 384.403C264.491 389.273 263.792 396.8 261.251 386.74C261.246 386.74 261.242 386.744 261.237 386.744C261.406 387.786 262.359 393.586 260.997 393.283C259.795 393.016 258.954 388.89 258.655 387.181C258.642 387.181 258.624 387.185 258.611 387.185C258.776 388.952 259.074 393.23 258.006 392.576C256.666 391.748 255.646 387.252 255.646 387.252C255.646 387.252 256.83 393.025 255.179 392.282C254.244 391.859 253.884 388.48 253.683 386.371C253.643 385.93 253.608 385.543 253.577 385.249C253.55 385.008 253.554 384.79 253.577 384.59C253.452 381.042 253.915 378.741 253.915 378.741C253.915 378.741 254.017 375.932 256.817 375.389C258.593 375.038 260.414 376.44 260.921 376.956Z" fill="#FF7955"/>
<path d="M290.883 414.293L290.678 414.253C290.722 414.017 295.227 390.439 296.197 386.74C297.181 382.983 300.76 382.111 300.796 382.102L300.845 382.302C300.809 382.311 297.35 383.157 296.398 386.789C295.432 390.488 290.932 414.057 290.883 414.293Z" fill="#131F2D"/>
<path d="M295.347 324.543C295.445 319.749 295.325 315.992 294.769 314.67L297.177 313.864C297.177 313.864 298.214 316.74 299.634 321.12C298.187 322.237 296.647 323.452 295.347 324.543Z" fill="#016EB9"/>
<path d="M304.325 337.189C300.934 340.015 296.14 344.084 294.337 346.029C294.555 341.622 294.867 336.619 295.085 331.905L301.392 326.724C302.349 329.96 303.386 333.561 304.325 337.189Z" fill="#016EB9"/>
<path d="M307.526 354.397C304.468 356.988 299.607 361.11 296.407 364.012C295.298 362.329 294.408 360.331 294.119 358.078C293.998 357.068 293.976 355.203 294.021 352.79L305.745 343.176C306.636 347.244 307.312 351.13 307.526 354.397Z" fill="#016EB9"/>
<path d="M293.433 310.561C293.433 310.561 296.678 309.48 297.542 310.321C298.405 311.162 297.769 314.999 296.273 315.342C294.782 315.68 291.955 311.487 293.433 310.561Z" fill="#00A3FE"/>
<path d="M295.338 309.653C295.338 309.653 291.101 308.042 290.273 306.426C289.445 304.815 285.06 308.54 285.136 309.653C285.212 310.766 293.113 316.94 293.633 316.161C294.15 315.382 296.375 310.713 295.338 309.653Z" fill="#A0462D"/>
<path d="M295.338 309.653C295.338 309.653 295.97 307.962 295.668 307.04C295.668 307.04 295.467 306.235 296.113 306.288C296.758 306.341 300.27 308.985 300.582 309.791C300.893 310.597 300.942 314.38 299.807 314.656C298.672 314.932 295.93 310.873 295.61 310.472C295.285 310.072 295.338 309.653 295.338 309.653Z" fill="#A0462D"/>
<path d="M296.251 315.418C295.298 315.418 294.484 314.509 294.448 314.474L294.568 314.367C294.577 314.376 295.369 315.257 296.251 315.257C296.26 315.257 296.264 315.257 296.273 315.257C297.141 315.244 297.662 313.219 297.666 313.201L297.822 313.241C297.8 313.33 297.266 315.404 296.278 315.422C296.269 315.418 296.26 315.418 296.251 315.418Z" fill="#131F2D"/>
<path d="M297.368 298.979C297.368 299.464 297.613 299.856 297.92 299.856C298.223 299.856 298.472 299.464 298.472 298.979C298.472 298.494 298.227 298.102 297.92 298.102C297.613 298.102 297.368 298.494 297.368 298.979Z" fill="#F3F3F3"/>
<path d="M439.604 186.598C432.838 173.195 406.678 156.183 398.665 157.576C396.943 157.874 408.245 134.202 412.059 136.611C425.244 144.952 444.843 163.336 449.681 176.725L439.604 186.598Z" fill="#F3F3F3"/>
<path d="M442.328 178.702C445.559 174.669 448.524 175.225 449.681 176.725C450.838 178.225 449.423 181.546 446.521 184.137C443.619 186.727 440.765 188.094 439.608 186.594C438.446 185.098 439.862 181.777 442.328 178.702Z" fill="#131F2D"/>
<path d="M442.786 183.776C442.768 185.441 443.414 188.748 443.423 190.417C443.427 191.138 443.596 193.573 444.26 193.671C444.838 193.76 445.55 191.771 445.786 190.778C448.328 194.713 453.652 199.249 448.871 190.591C448.876 190.587 448.88 190.587 448.885 190.582C449.441 191.41 452.543 196.017 453.26 194.793C453.897 193.716 451.8 190.319 450.897 188.944C450.905 188.935 450.919 188.922 450.928 188.913C451.956 190.222 454.515 193.32 454.809 192.078C455.179 190.52 452.962 186.741 452.962 186.741C452.962 186.741 455.886 191.503 456.518 189.767C456.875 188.788 454.938 186.247 453.71 184.68C453.451 184.35 453.224 184.065 453.06 183.847C452.922 183.665 452.779 183.522 452.637 183.407C450.434 180.932 448.64 179.73 448.64 179.73C448.64 179.73 446.761 177.918 444.531 179.645C443.116 180.749 442.795 183.055 442.786 183.776Z" fill="#FF7955"/>
<path d="M383.081 279.06C383.081 279.06 384.555 283.044 382.521 285.296C380.486 287.548 373.712 291.857 377.397 293.157C379.512 293.9 386.389 289.623 388.436 288.679C390.484 287.735 392.785 287.811 393.72 285.634C394.748 283.239 389.865 275.935 389.865 275.935C389.865 275.935 388.494 277.738 386.887 278.428C384.577 279.411 383.081 279.06 383.081 279.06Z" fill="#131F2D"/>
<path d="M442.132 295.485C442.132 295.485 442.35 299.767 439.75 301.2C437.155 302.634 429.455 304.387 432.566 306.885C434.351 308.318 442.136 306.626 444.357 306.439C446.579 306.248 448.737 307.112 450.269 305.371C451.951 303.457 449.494 294.853 449.494 294.853C449.494 294.853 447.66 296.09 445.933 296.188C443.44 296.34 442.132 295.485 442.132 295.485Z" fill="#131F2D"/>
<path d="M393.115 196.787C393.115 196.787 384.386 191.779 397.179 221.033C406.415 242.15 426.067 279.772 435.864 292.747C438.246 295.903 441.762 298.209 445.955 297.23L448.208 296.705C452.739 295.645 455.548 291.1 454.226 286.965L420.89 191.971C420.89 191.971 418.807 189.309 407.189 190.635C392.954 192.265 393.115 196.787 393.115 196.787Z" fill="#364154"/>
<path d="M381.061 198.759C381.061 198.759 363.589 212.709 359.063 230.893C353.917 251.546 376.449 279.082 381.826 281.21C385.334 282.594 388.125 281.219 392.1 273.785C394.477 269.338 382.912 244.011 386.536 235.295C390.92 224.754 412.375 216.034 412.375 216.034L410.296 188.904C410.296 188.904 394.503 192.594 381.061 198.759Z" fill="#364154"/>
<path d="M418.567 143.866C418.567 143.866 415.464 132.658 395.87 133.437C380.776 134.038 372.332 136.188 370.502 146.96C369.852 150.783 368.303 164.97 376.396 202.712C376.396 202.712 403.023 215.153 427.874 201.563C427.874 201.563 424.082 181.417 419.591 150.45C419.208 147.832 419.355 145.834 418.567 143.866Z" fill="#F3F3F3"/>
<path d="M391.436 138.253C392.38 141.948 399.404 168.433 438.028 158.373C440.423 157.75 442.937 157.901 445.248 158.813L451.617 161.328C452.423 161.649 452.704 162.726 452.165 163.447L448.341 168.579C445.889 171.873 442.466 174.161 438.642 175.083C430.63 177.015 416.315 178.929 404.22 172.354C389.861 164.547 387.996 145.856 387.822 138.774C387.795 137.63 389.01 136.967 389.847 137.665C390.065 137.844 391.365 137.973 391.436 138.253Z" fill="#00A3FE"/>
<path d="M395.264 130.704L394.214 125.358L393.907 123.8L392.109 114.648L391.014 123.466L390.355 128.759L390.145 130.432C390.003 131.567 389.335 131.745 388.467 132.658C388.116 133.027 385.868 135.262 388.085 136.593C390.849 138.253 396.417 136.708 398.701 134.194C398.692 134.194 395.603 132.435 395.264 130.704Z" fill="#FF7955"/>
<path d="M394.495 126.796C394.495 126.796 392.679 128.669 390.355 128.763L390.662 126.604L394.495 126.796Z" fill="#131F2D"/>
<path d="M385.81 110.651C385.81 110.651 385.103 112.752 385.392 115.507C385.681 118.258 388.802 111.875 388.802 111.875L385.81 110.651Z" fill="#5C305D"/>
<path d="M385.022 116.255C386.108 111.096 390.208 107.7 394.178 108.67C398.153 109.64 400.495 114.604 399.409 119.763C398.323 124.922 394.223 128.318 390.252 127.347C386.282 126.382 383.941 121.414 385.022 116.255Z" fill="#FF7955"/>
<path d="M399.832 117.052L396.311 116.299C395.536 116.135 394.86 115.61 394.499 114.857C393.876 113.557 393.052 112.841 389.727 112.645C385.512 112.396 382.97 109.427 382.721 107.014C382.467 104.553 384.755 103.128 386.767 104.49C388.779 105.852 388.116 102.937 390.168 102.839C394.005 102.656 394.446 105.87 397.557 106.079C401.639 106.351 408.641 110.402 404.523 117.773L399.832 117.052Z" fill="#131F2D"/>
<path d="M391.784 117.532C391.739 117.532 391.695 117.51 391.664 117.47C391.615 117.399 391.624 117.301 391.69 117.243C391.73 117.212 392.549 116.371 393.671 117.105C393.742 117.15 393.769 117.248 393.725 117.323C393.684 117.399 393.6 117.408 393.52 117.381C392.732 117.11 391.908 117.47 391.877 117.497C391.846 117.519 391.815 117.532 391.784 117.532Z" fill="#080435"/>
<path d="M386.393 116.291C386.362 116.268 386.353 116.224 386.362 116.157C386.384 116.046 386.465 115.93 386.549 115.89C386.598 115.868 387.751 115.227 387.907 116.664C387.916 116.753 387.858 116.887 387.773 116.963C387.689 117.038 387.631 117.007 387.6 116.936C387.301 116.228 386.513 116.273 386.473 116.291C386.442 116.308 386.416 116.304 386.393 116.291Z" fill="#080435"/>
<path d="M387.613 118.325C387.626 118.708 387.426 119.028 387.163 119.037C386.905 119.046 386.687 118.743 386.674 118.356C386.66 117.973 386.861 117.653 387.123 117.644C387.386 117.639 387.604 117.942 387.613 118.325Z" fill="#080435"/>
<path d="M404.519 117.773C404.519 117.773 401.576 123.235 398.056 123.306C398.056 123.306 401.243 119.237 395.536 116.001C395.536 115.997 401.065 115.618 404.519 117.773Z" fill="#5C305D"/>
<path d="M399.338 120.43C398.55 120.866 397.615 120.604 397.254 119.847C396.894 119.09 397.237 118.12 398.024 117.684C398.812 117.248 399.747 117.51 400.108 118.267C400.473 119.028 400.125 119.994 399.338 120.43Z" fill="#FF7955"/>
<path d="M387.408 104.165C387.337 104.165 387.261 104.161 387.181 104.152L387.208 103.947C388.174 104.076 388.325 103.248 388.33 103.213L388.534 103.248C388.534 103.253 388.37 104.165 387.408 104.165Z" fill="#131F2D"/>
<path d="M388.641 111.256C388.628 111.252 387.519 110.775 386.424 109.992C384.969 108.95 384.203 107.838 384.216 106.769C384.225 106.004 384.399 105.514 384.746 105.274C385.271 104.909 386.068 105.198 386.771 105.447C386.878 105.487 386.981 105.523 387.083 105.559L387.047 105.656C386.945 105.621 386.843 105.585 386.736 105.545C386.055 105.3 385.285 105.024 384.804 105.358C384.488 105.581 384.328 106.039 384.319 106.769C384.292 109.266 388.637 111.136 388.681 111.154L388.641 111.256Z" fill="#F3F3F3"/>
<path d="M398.772 107.152C396.676 107.152 395.207 106.462 394.325 105.861C393.302 105.162 392.825 104.428 392.821 104.419L392.91 104.361C392.928 104.388 394.806 107.237 399.217 107.036L399.222 107.139C399.07 107.148 398.919 107.152 398.772 107.152Z" fill="#F3F3F3"/>
<path d="M386.91 122.509C386.91 122.509 387.194 124.405 389.082 124.525C391.121 124.654 391.628 123.008 391.628 123.008C391.628 123.008 388.886 123.39 386.91 122.509Z" fill="#F3F3F3"/>
<path d="M393.613 119.197C393.586 119.197 393.564 119.193 393.542 119.175C392.674 118.65 391.472 118.944 391.459 118.948C391.383 118.966 391.307 118.921 391.29 118.846C391.272 118.77 391.316 118.694 391.392 118.676C391.445 118.663 392.718 118.351 393.689 118.939C393.756 118.979 393.778 119.064 393.738 119.13C393.707 119.175 393.658 119.197 393.613 119.197Z" fill="#131F2D"/>
<path d="M392.416 135.226C392.416 135.226 388.93 134.238 388.049 135.168C387.168 136.099 388 140.14 389.603 140.43C391.201 140.719 394.023 136.134 392.416 135.226Z" fill="#00A3FE"/>
<path d="M389.585 140.514C388.548 140.514 387.902 138.369 387.875 138.28L388.04 138.231C388.045 138.253 388.677 140.345 389.585 140.345C389.589 140.345 389.598 140.345 389.603 140.345C390.546 140.318 391.365 139.326 391.374 139.317L391.508 139.424C391.472 139.468 390.635 140.488 389.611 140.514C389.598 140.514 389.589 140.514 389.585 140.514Z" fill="#131F2D"/>
<path d="M390.724 195.007C391.063 195.554 391.748 195.705 392.256 195.345C392.767 194.984 392.905 194.245 392.567 193.693C392.229 193.146 391.619 192.839 391.107 193.204C390.391 193.716 390.39 194.455 390.724 195.007Z" fill="#131F2D"/>
<path d="M388.436 177.438C388.677 178.043 389.327 178.323 389.887 178.065C390.448 177.807 390.711 177.108 390.471 176.503C390.23 175.897 389.678 175.479 389.117 175.737C388.321 176.107 388.196 176.832 388.436 177.438Z" fill="#131F2D"/>
<path d="M386.206 159.677C386.447 160.282 387.097 160.563 387.657 160.305C388.218 160.046 388.481 159.348 388.241 158.742C388 158.137 387.448 157.718 386.887 157.977C386.095 158.342 385.966 159.072 386.206 159.677Z" fill="#131F2D"/>
<path d="M386.91 133.397C376.649 133.406 367.596 139.584 364.8 136.824C364.141 136.17 367.622 114.381 367.622 114.381L359.165 114.675C359.165 114.675 342.78 142.829 351.251 152.101C361.635 163.469 376.881 156.539 376.881 156.539C376.881 156.539 392.167 133.388 386.91 133.397Z" fill="#F3F3F3"/>
<path d="M383.064 120.933L362.29 116.842C361.23 116.633 360.532 115.543 360.723 114.403L361.132 111.986C361.324 110.847 362.339 110.09 363.398 110.299L384.172 114.39C385.232 114.599 385.93 115.69 385.739 116.829L385.33 119.246C385.138 120.386 384.123 121.142 383.064 120.933Z" fill="#131F2D"/>
<path d="M369.781 120.684L349.733 116.736C348.348 116.464 347.431 115.035 347.685 113.544L348.602 108.149C348.856 106.658 350.182 105.67 351.566 105.946L371.615 109.894C372.999 110.166 373.916 111.594 373.663 113.086L372.746 118.481C372.492 119.972 371.165 120.955 369.781 120.684Z" fill="#364154"/>
<path d="M353.191 118.975L321.396 112.716C320.261 112.494 319.509 111.323 319.718 110.099L321.311 100.72C321.521 99.5004 322.607 98.6903 323.742 98.9129L355.537 105.171C356.672 105.394 357.425 106.565 357.215 107.789L355.622 117.167C355.417 118.387 354.327 119.197 353.191 118.975Z" fill="#00A3FE"/>
<path d="M319.451 113.424L317.871 113.112C317.003 112.943 316.424 112.044 316.584 111.105L318.752 98.352C318.912 97.4172 319.745 96.794 320.617 96.9676L322.197 97.2792C323.065 97.4484 323.644 98.3475 323.484 99.2867L321.316 112.04C321.156 112.974 320.319 113.593 319.451 113.424Z" fill="#131F2D"/>
<path d="M363.598 106.173C363.598 106.173 361.462 105.158 360.612 107.268C359.534 109.952 360.58 114.412 361.288 112.721C361.911 111.221 362.201 109.511 362.201 109.511C362.201 109.511 361.355 114.875 362.583 114.666C363.812 114.457 364.538 110.09 364.538 110.09C364.538 110.09 364.15 115.222 365.25 114.621C366.354 114.02 366.91 110.962 366.91 110.962C366.91 110.962 366.363 115.106 367.627 114.376C368.891 113.646 368.699 110.566 368.891 109.244C369.073 107.993 368.383 107.459 367.253 107.357C367.253 107.357 366.18 106.547 365.423 106.68C365.134 106.729 364.903 106.404 364.702 106.342C364.324 106.231 363.598 106.173 363.598 106.173Z" fill="#FF7955"/>
<path d="M398.487 223.517C398.416 223.517 398.345 223.472 398.314 223.401C395.536 216.733 389.424 215.954 389.362 215.945C389.26 215.932 389.189 215.843 389.198 215.741C389.211 215.638 389.3 215.567 389.407 215.576C389.469 215.585 395.794 216.39 398.656 223.259C398.697 223.352 398.652 223.464 398.554 223.504C398.536 223.512 398.51 223.517 398.487 223.517Z" fill="#131F2D"/>
<path d="M369.99 158.569C369.884 158.569 369.803 158.484 369.803 158.382C369.861 151.304 370.311 146.978 370.315 146.937C370.329 146.835 370.413 146.759 370.52 146.773C370.623 146.782 370.698 146.875 370.685 146.978C370.68 147.022 370.235 151.331 370.177 158.386C370.177 158.489 370.093 158.569 369.99 158.569Z" fill="#131F2D"/>
<path d="M390.359 134.358C390.359 134.358 394.784 132.444 395.594 130.695C396.404 128.945 401.211 132.685 401.176 133.864C401.14 135.044 392.304 142.037 391.726 141.235C391.143 140.439 389.304 135.529 390.359 134.358Z" fill="#364154"/>
<path d="M390.359 134.358C390.359 134.358 389.616 132.596 389.901 131.603C389.901 131.603 390.079 130.735 389.398 130.828C388.717 130.917 385.102 133.886 384.809 134.759C384.515 135.627 384.617 139.642 385.832 139.878C387.048 140.118 389.785 135.68 390.106 135.24C390.431 134.799 390.359 134.358 390.359 134.358Z" fill="#364154"/>
<path d="M242.239 306.141C243.619 304.062 236.453 297.007 236.453 297.007C235.736 296.647 226.887 309.471 214.054 307.614C209.482 306.951 202.169 299.918 201.541 298.788C201.457 298.636 192.532 304.142 192.532 304.142C193.672 306.19 194.544 313.98 199.952 317.723C211.143 325.46 228.111 323.314 242.239 306.141Z" fill="#FF7955"/>
<path d="M193.903 452.574C193.903 452.574 194.077 456.166 196.36 457.114C198.644 458.063 205.214 458.788 202.828 461.17C201.457 462.536 194.82 461.873 192.95 461.926C191.081 461.98 189.349 462.91 187.929 461.601C186.367 460.164 187.707 452.752 187.707 452.752C187.707 452.752 189.341 453.611 190.792 453.527C192.879 453.406 193.903 452.574 193.903 452.574Z" fill="#131F2D"/>
<path d="M210.364 353.008C210.364 353.008 211.534 359.721 207.506 390.987C204.595 413.559 201.065 436.318 199.324 447.233C198.701 451.136 195.741 454.065 192.149 454.324L190.217 454.462C186.336 454.742 183.091 451.239 183.264 446.957L186.305 373.377L186.901 349.171L210.364 353.008Z" fill="#364154"/>
<path d="M172.501 453.193C172.501 453.193 172.675 456.785 174.958 457.733C177.242 458.681 183.812 459.407 181.426 461.788C180.055 463.155 173.418 462.492 171.549 462.545C169.679 462.598 167.948 463.524 166.528 462.22C164.965 460.782 166.305 453.371 166.305 453.371C166.305 453.371 167.939 454.23 169.39 454.145C171.477 454.03 172.501 453.193 172.501 453.193Z" fill="#131F2D"/>
<path d="M189.278 344.133C189.278 344.133 190.137 360.344 186.104 391.61C183.193 414.182 179.663 436.941 177.923 447.856C177.3 451.76 174.34 454.688 170.747 454.947L168.816 455.085C164.934 455.365 161.689 451.862 161.863 447.58L164.903 374.001L165.499 349.795L189.278 344.133Z" fill="#364154"/>
<path d="M163.465 362.677C163.559 364.631 175.475 360.362 189.06 359.512C202.645 358.662 211.721 353.725 211.628 351.767C211.534 349.812 201.586 350.551 188.001 351.402C174.411 352.252 163.367 360.718 163.465 362.677Z" fill="#131F2D"/>
<path d="M158.035 307.775C158.035 307.775 158.76 297.216 176.227 293.825C201.412 288.928 203.13 314.309 211.623 351.771C211.623 351.771 186.127 352.599 163.487 362.463C163.492 362.458 155.075 324.253 158.035 307.775Z" fill="#016EB9"/>
<path d="M151.349 307.539L163.87 312.19C163.87 312.19 189.269 309.925 195.715 307.499C202.16 305.073 203.13 299.482 203.13 299.482C203.13 299.482 194.78 292.939 182.428 293.099C181.266 293.112 180.073 293.188 178.844 293.33C176.783 293.571 174.749 293.985 172.791 294.603C157.861 299.322 151.349 307.539 151.349 307.539Z" fill="#016EB9"/>
<path d="M173.449 291.959L174.024 287.125L174.193 285.719L175.176 277.444L176.743 285.193L177.683 289.845L177.981 291.318C178.181 292.32 178.786 292.422 179.623 293.166C179.962 293.468 182.112 295.28 180.224 296.633C177.878 298.32 172.826 297.385 170.627 295.325C170.641 295.325 173.262 293.522 173.449 291.959Z" fill="#FF7955"/>
<path d="M210.364 353.008C210.364 353.008 199.035 352.403 165.175 363.184L165.041 368.521L209.816 368.926L210.364 353.008Z" fill="#364154"/>
<path d="M151.158 307.868C150.428 309.524 152.328 312.168 155.4 313.775C158.471 315.382 161.551 315.337 162.281 313.682C163.011 312.026 161.111 309.382 158.039 307.775C154.963 306.168 151.883 306.208 151.158 307.868Z" fill="#131F2D"/>
<path d="M157.625 367.56C156.65 354.905 156.17 336.637 159.397 321.489C160.145 317.981 160.479 316.651 161.186 314.679C161.756 313.09 159.806 310.205 157.291 309.128C154.932 308.118 151.661 308.972 151.247 309.769C150.548 311.127 149.969 313.584 149.074 317.479C145.976 331.015 145.531 347.836 147.686 369.002L157.625 367.56Z" fill="#FF7955"/>
<path d="M178.849 272.352C178.849 272.352 179.899 273.994 180.229 276.438C180.558 278.882 176.521 274.137 176.521 274.137L178.849 272.352Z" fill="#131F2D"/>
<path d="M177.752 288.222C181.206 286.965 182.713 282.395 181.119 278.015C179.525 273.635 175.433 271.103 171.98 272.36C168.526 273.617 167.019 278.187 168.613 282.567C170.207 286.947 174.299 289.478 177.752 288.222Z" fill="#FF7955"/>
<path d="M168.104 281.29L170.984 279.785C171.616 279.456 172.092 278.837 172.243 278.098C172.506 276.825 173.067 276.006 175.893 275.027C179.477 273.785 181.043 270.602 180.75 268.461C180.451 266.276 178.177 265.608 176.73 267.273C175.283 268.938 175.243 266.262 173.45 266.681C170.102 267.46 170.396 270.34 167.756 271.274C164.293 272.503 159.108 277.706 164.209 283.057L168.104 281.29Z" fill="#131F2D"/>
<path d="M175.079 279.794C175.105 279.758 175.114 279.714 175.101 279.669C175.083 279.594 175.007 279.549 174.936 279.567C174.896 279.58 173.899 279.767 173.792 281.018C173.783 281.098 173.837 281.17 173.908 281.178C173.979 281.187 174.033 281.125 174.055 281.054C174.295 280.302 174.972 279.856 175.003 279.848C175.039 279.839 175.065 279.821 175.079 279.794Z" fill="#080435"/>
<path d="M175.123 281.739C175.306 282.02 175.608 282.131 175.795 281.984C175.982 281.842 175.987 281.499 175.804 281.218C175.622 280.938 175.319 280.827 175.132 280.974C174.941 281.116 174.936 281.459 175.123 281.739Z" fill="#080435"/>
<path d="M179.579 277.577C179.606 277.56 179.623 277.528 179.623 277.484C179.623 277.413 179.574 277.337 179.512 277.319C179.476 277.31 178.635 276.981 178.288 277.973C178.266 278.036 178.292 278.12 178.35 278.165C178.408 278.209 178.462 278.183 178.497 278.129C178.849 277.617 179.485 277.573 179.512 277.582C179.539 277.595 179.561 277.591 179.579 277.577Z" fill="#080435"/>
<path d="M178.907 279.411C178.978 279.745 179.218 279.972 179.441 279.914C179.668 279.861 179.793 279.545 179.721 279.211C179.65 278.877 179.41 278.65 179.187 278.708C178.96 278.761 178.836 279.073 178.907 279.411Z" fill="#080435"/>
<path d="M164.213 283.052C164.213 283.052 167.899 287.045 170.948 286.248C170.948 286.248 167.342 283.52 171.584 279.331C171.584 279.336 166.737 280.355 164.213 283.052Z" fill="#131F2D"/>
<path d="M169.239 284.085C170.009 284.268 170.761 283.818 170.912 283.075C171.064 282.331 170.565 281.584 169.791 281.397C169.021 281.214 168.268 281.664 168.117 282.407C167.966 283.15 168.464 283.903 169.239 284.085Z" fill="#FF7955"/>
<path d="M171.584 279.336C171.584 279.336 172.546 283.52 173.565 283.983C174.585 284.446 179.721 282.803 181.742 280.907C182.655 283.48 181.733 286.426 179.508 287.784C178.773 288.234 177.959 288.55 177.104 288.714C175.355 289.048 173.512 288.941 172.279 287.566C171.905 287.148 171.464 283.84 171.464 283.84C171.464 283.84 171.081 281.948 169.791 281.392C169.791 281.397 170.547 279.87 171.584 279.336Z" fill="#131F2D"/>
<path d="M175.8 267.188C175.194 267.188 174.941 266.627 174.936 266.623L175.105 266.547C175.119 266.574 175.426 267.246 176.227 266.903L176.303 267.072C176.111 267.157 175.942 267.188 175.8 267.188Z" fill="#131F2D"/>
<path d="M176.534 273.562L176.476 273.491C176.485 273.482 177.335 272.81 178.11 271.875C178.818 271.016 179.601 269.761 179.316 268.644C179.156 268.025 178.929 267.664 178.613 267.549C178.128 267.371 177.518 267.798 176.979 268.176C176.895 268.234 176.815 268.292 176.734 268.345L176.681 268.27C176.761 268.216 176.841 268.158 176.926 268.101C177.482 267.709 178.119 267.264 178.644 267.46C178.991 267.589 179.241 267.967 179.405 268.617C179.975 270.825 176.677 273.451 176.534 273.562Z" fill="#F3F3F3"/>
<path d="M166.546 272.592L166.523 272.503C170.374 271.599 171.393 268.688 171.402 268.657L171.491 268.688C171.478 268.715 170.445 271.679 166.546 272.592Z" fill="#F3F3F3"/>
<path d="M180.705 283.017C180.705 283.017 179.054 284.018 177.073 284.361C177.073 284.361 177.794 286.173 179.664 285.247C180.754 284.713 180.705 283.017 180.705 283.017Z" fill="#F3F3F3"/>
<path d="M152.978 363.415C152.408 364.168 152.511 365.285 153.21 365.899L159.107 371.036C159.806 371.65 162.913 373.409 163.483 372.656C164.053 371.904 162.139 369.362 161.525 368.65C160.105 367.012 157.915 363.144 156.468 361.533C155.84 360.843 153.552 362.668 152.978 363.415Z" fill="#FF7955"/>
<path d="M147.205 363.344C147.205 363.344 146.199 367.288 146.426 373.168C146.497 374.958 157.509 375.131 157.955 373.186C158.4 371.241 156.521 364.942 156.521 364.942L147.205 363.344Z" fill="#FF7955"/>
<path d="M155.391 367.613C155.391 367.613 158.142 365.681 159.103 369.273C160.67 375.109 159.277 389.01 156.245 373.978C156.187 373.68 157.505 383.143 155.542 382.6C153.579 382.057 152.76 373.604 152.76 373.604C152.76 373.604 153.383 382.631 151.683 381.474C149.982 380.312 148.936 374.441 148.936 374.441C148.936 374.441 150.12 381.973 148.011 380.896C146.568 380.161 146.488 373.889 146.364 371.713C146.243 369.656 147.441 368.904 149.292 368.926C149.292 368.926 151.149 367.791 152.355 368.134C152.818 368.263 153.241 367.769 153.575 367.706C154.202 367.577 155.391 367.613 155.391 367.613Z" fill="#FF7955"/>
<path d="M185.459 397.966L185.156 397.931C185.174 397.797 186.821 384.51 188.067 379.738C189.323 374.922 195.096 370.769 195.154 370.729L195.327 370.978C195.269 371.018 189.585 375.113 188.357 379.818C187.124 384.568 185.477 397.833 185.459 397.966Z" fill="#131F2D"/>
<path d="M236.631 302.269C237.525 302.376 238.34 301.668 238.438 300.707L239.221 292.583C239.319 291.617 238.994 287.856 238.099 287.749C237.205 287.642 236.27 290.758 236.052 291.702C235.549 293.874 233.733 297.965 233.27 300.146C233.065 301.089 235.731 302.162 236.631 302.269Z" fill="#FF7955"/>
<path d="M239.72 307.517C239.72 307.517 243.339 306.275 247.79 302.861C249.143 301.823 243.272 291.786 241.518 292.449C239.76 293.112 235.883 298.24 235.883 298.24L239.72 307.517Z" fill="#FF7955"/>
<path d="M238.58 297.804C238.58 297.804 235.576 296.375 237.85 293.549C241.54 288.95 253.122 282.625 243.076 293.562C242.876 293.78 249.526 287.424 250.171 289.493C250.817 291.563 244.683 296.909 244.683 296.909C244.683 296.909 251.373 291.425 251.395 293.589C251.418 295.756 247.42 299.9 247.42 299.9C247.42 299.9 252.637 294.724 252.949 297.216C253.162 298.917 248.324 302.411 246.699 303.711C245.159 304.939 243.926 304.272 242.933 302.589C242.933 302.589 241.037 301.534 240.646 300.257C240.494 299.767 239.88 299.656 239.648 299.389C239.203 298.894 238.58 297.804 238.58 297.804Z" fill="#FF7955"/>
<path d="M64.2332 475.458C64.2332 475.458 73.0912 426.401 74.4667 424.959C75.8377 423.521 77.9609 424.798 77.2131 427.518C76.4653 430.238 66.1651 474.465 65.7333 475.458C65.3149 476.415 63.984 476.829 64.2332 475.458Z" fill="#131F2D"/>
<path d="M120.92 411.24C120.987 402.493 100.898 376.204 90.4335 372.928C78.5842 369.215 63.3966 362.476 58.9364 374.659C54.4763 386.842 69.4191 424.367 69.4191 424.367C69.4191 424.367 70.247 427.701 73.2784 428.074C76.3052 428.448 113.598 429.753 113.656 428.074C113.691 426.997 126.19 413.025 120.92 411.24Z" fill="#B8C1C9"/>
<path d="M115.289 352.537C115.289 352.537 129.204 375.915 147.766 381.407L144.445 389.464C144.445 389.464 120.902 385.997 107.428 361.515L115.289 352.537Z" fill="#FF7955"/>
<path d="M129.685 469.68C129.685 469.68 129.582 473.464 131.901 474.67C134.22 475.876 141.053 477.243 138.36 479.518C136.816 480.826 129.907 479.518 127.944 479.402C125.981 479.286 124.094 480.101 122.705 478.601C121.178 476.949 123.177 469.302 123.177 469.302C123.177 469.302 124.824 470.352 126.346 470.397C128.545 470.464 129.685 469.68 129.685 469.68Z" fill="#131F2D"/>
<path d="M153.833 469.658C153.833 469.658 153.73 473.442 156.049 474.648C158.369 475.854 165.201 477.221 162.508 479.495C160.964 480.804 154.055 479.495 152.092 479.38C150.129 479.264 148.242 480.078 146.853 478.578C145.326 476.927 147.325 469.28 147.325 469.28C147.325 469.28 148.972 470.33 150.494 470.375C152.693 470.437 153.833 469.658 153.833 469.658Z" fill="#131F2D"/>
<path d="M156.374 463.409C154.638 438.624 154.229 421.905 146.942 411.16C138.97 399.399 117.595 391.085 109.356 390.568C95.9174 389.722 89.5833 391.877 89.5833 391.877C79.4968 414.462 95.2987 417.458 106.983 418.077C107.371 418.099 107.758 418.121 108.145 418.148C115.223 418.629 127.802 420.565 132.565 428.132C136.335 434.128 138.952 442.546 140.056 464.25C140.27 468.416 143.515 471.648 147.387 471.532C147.396 471.528 157.002 472.32 156.374 463.409Z" fill="#016EB9"/>
<path d="M137.301 464.682C137.528 439.83 138.244 427.14 131.318 416.127C126.867 409.05 120.172 403.713 111.421 400.254C105.176 397.788 97.8315 396.27 89.5877 395.754C76.1494 394.908 70.109 393.159 70.109 393.159C59.2301 422.07 99.0199 415.931 109.378 428.248C113.892 433.616 119.482 443.823 120.586 465.532C120.8 469.698 124.045 472.93 127.918 472.814C127.922 472.819 137.216 473.771 137.301 464.682Z" fill="#016EB9"/>
<path d="M137.23 440.275C137.225 440.128 136.54 425.381 134.247 420.231C131.345 413.715 122.919 406.913 114.212 404.055L114.261 403.904C123.008 406.775 131.474 413.617 134.394 420.169C136.7 425.346 137.385 440.12 137.394 440.271L137.23 440.275Z" fill="#020202"/>
<path d="M79.6436 347.257C79.6436 347.257 85.3635 336.735 98.5437 339.966C111.724 343.193 117.096 357.687 118.04 392.496C118.04 392.496 105.839 392.015 73.7768 403.463C69.9799 404.821 64.4069 403.744 66.361 396.778C69.9844 383.829 73.4919 358.003 79.6436 347.257Z" fill="#00A3FE"/>
<path d="M67.999 350.137L78.7043 353.075C78.7043 353.075 102.412 360.625 109.049 360.682C115.685 360.74 118.432 355.514 118.432 355.514C118.432 355.514 113.077 345.731 101.86 341.119C100.805 340.683 99.7009 340.296 98.5436 339.966C96.5984 339.414 94.6264 338.929 92.6501 338.902C70.2692 338.626 67.999 350.137 67.999 350.137Z" fill="#00A3FE"/>
<path d="M67.9991 350.137C68.0258 351.33 71.2574 352.292 75.2235 352.283C79.1851 352.274 82.3811 351.304 82.3544 350.111C82.3277 348.918 79.096 347.956 75.1299 347.965C71.1639 347.97 67.9724 348.944 67.9991 350.137Z" fill="#131F2D"/>
<path d="M87.4377 339.067C88.8621 338.755 89.8859 337.696 90.3311 336.205L91.7288 331.54L92.1338 330.187L94.5153 322.224L94.6844 330.205L94.7868 334.994L94.818 336.361C94.8402 337.474 94.8803 338.898 95.9753 339.312C95.9753 339.312 97.3685 341.88 95.7215 342.579C93.1354 343.683 87.4333 339.067 87.4377 339.067Z" fill="#FF7955"/>
<path d="M83.9391 323.056C83.9391 323.056 84.5356 324.235 84.5222 327.018C84.5 331.086 88.9111 331.482 89.6634 330.098C89.7569 329.929 87.9497 323.55 87.9497 323.55L86.4585 323.109L83.9391 323.056Z" fill="#131F2D"/>
<path d="M91.711 331.411C91.7154 331.455 91.7243 331.5 91.7288 331.54C92.1294 334.077 94.7734 335.012 94.7734 335.012L94.7868 334.994L94.6844 330.205C93.8832 329.978 92.7481 329.777 92.1294 330.187C91.8134 330.4 91.6308 330.779 91.711 331.411Z" fill="#131F2D"/>
<path d="M94.7272 332.071C98.504 331.313 100.756 326.664 99.7567 321.687C98.7576 316.71 94.8861 313.289 91.1093 314.048C87.3326 314.806 85.0808 319.455 86.0798 324.432C87.0789 329.409 90.9505 332.829 94.7272 332.071Z" fill="#FF7955"/>
<path d="M93.8698 315.453C93.7541 315.783 95.9752 320.047 88.3725 323.47C80.7697 326.888 82.8841 315.199 88.6396 313.25C96.9501 310.437 99.7187 316.152 99.4695 318.578C99.2202 321.004 93.8698 315.453 93.8698 315.453Z" fill="#131F2D"/>
<path d="M82.025 313.018C82.025 313.018 85.3946 314.229 83.6942 316.806C81.9938 319.384 76.1849 322.005 78.6598 324.779C81.1302 327.552 83.7832 331.954 80.9833 333.432C78.179 334.91 76.2561 335.217 75.6952 338.106C75.1344 340.994 69.37 341.012 69.0406 337.865C68.7112 334.723 63.4365 333.427 64.7006 330.071C65.9648 326.715 70.1713 322.878 70.4517 318.907C70.7321 314.928 79.323 312.132 82.025 313.018Z" fill="#131F2D"/>
<path d="M88.8711 321.756C88.8711 321.756 86.5832 326.363 88.6485 329.768C88.6485 329.768 86.2226 328.121 85.9689 327.316C85.7196 326.51 85.4614 323.399 85.4614 323.399L88.8711 321.756Z" fill="#131F2D"/>
<path d="M87.4956 326.127C88.4526 326.684 89.5343 326.452 89.9126 325.606C90.291 324.761 89.8192 323.626 88.8621 323.069C87.9051 322.513 86.8234 322.744 86.4451 323.59C86.0667 324.436 86.5385 325.571 87.4956 326.127Z" fill="#FF7955"/>
<path d="M71.164 340.46L71.0171 340.273C71.6358 339.779 71.9563 339.312 71.9919 338.836C72.0498 338.101 71.4311 337.425 70.7723 336.708C70.1357 336.014 69.477 335.297 69.3835 334.451C69.2633 333.374 70.3894 332.8 71.4755 332.243C72.3079 331.816 73.167 331.375 73.3673 330.743C73.4608 330.445 73.4074 330.116 73.2071 329.742C72.9623 329.279 72.6997 328.874 72.4459 328.482C71.2975 326.706 70.3895 325.308 72.3302 320.942C74.7962 315.4 77.7385 314.3 80.5561 313.935C80.8944 313.891 81.9672 314.073 82.1319 314.661C82.2966 315.248 81.482 315.947 79.7104 316.74C79.6926 316.753 76.8037 318.444 76.2251 322.482C75.9268 324.574 77.5159 326.225 78.918 327.685C80.2178 329.038 81.3396 330.205 80.3024 331.277C79.7371 331.86 79.0605 332.292 78.4062 332.706C76.7548 333.752 75.1968 334.74 75.8111 338.088L75.5751 338.132C74.9297 334.629 76.5544 333.596 78.2771 332.51C78.9181 332.105 79.5858 331.682 80.1288 331.117C81.0057 330.209 80.0086 329.167 78.7445 327.854C77.3779 326.43 75.6731 324.663 75.9891 322.455C76.5811 318.293 79.5724 316.548 79.6035 316.53C81.8559 315.524 81.9627 314.937 81.9049 314.732C81.7936 314.336 80.9166 314.136 80.5873 314.18C77.8408 314.532 74.9653 315.609 72.5483 321.044C70.661 325.29 71.5334 326.644 72.6462 328.357C72.9044 328.754 73.167 329.163 73.4207 329.635C73.6522 330.071 73.7101 330.458 73.5988 330.819C73.3673 331.549 72.4637 332.012 71.5868 332.461C70.523 333.004 69.5214 333.516 69.6238 334.433C69.7084 335.199 70.3405 335.889 70.9503 336.557C71.6447 337.313 72.2991 338.025 72.2323 338.862C72.1878 339.401 71.8406 339.926 71.164 340.46Z" fill="#F3F3F3"/>
<path d="M87.6248 320.746L87.5402 320.487C90.3979 319.571 91.2303 316.628 91.2392 316.597L91.5018 316.668C91.4929 316.699 90.6205 319.789 87.6248 320.746Z" fill="#F3F3F3"/>
<path d="M99.4072 327.16C97.8403 327.298 96.4338 325.789 96.2646 323.79C96.1756 322.722 96.456 321.68 97.0436 320.933C97.5065 320.336 98.1341 319.976 98.8018 319.918C100.369 319.78 101.775 321.289 101.944 323.287C102.033 324.356 101.753 325.397 101.17 326.145C100.809 326.608 100.351 326.928 99.8523 327.075C99.7054 327.115 99.5585 327.147 99.4072 327.16ZM97.1682 321.048C96.6118 321.761 96.3447 322.753 96.4293 323.777C96.5896 325.673 97.916 327.111 99.3938 326.982C100.017 326.924 100.605 326.59 101.041 326.029C101.597 325.317 101.864 324.325 101.78 323.301C101.619 321.404 100.293 319.967 98.8152 320.096C98.6772 320.109 98.5392 320.136 98.4056 320.171C97.9383 320.314 97.5109 320.612 97.1682 321.048Z" fill="#364154"/>
<path d="M92.6724 328.09C91.1056 328.228 89.699 326.719 89.5299 324.721C89.4409 323.652 89.7213 322.611 90.3044 321.863C90.7673 321.267 91.3949 320.906 92.0626 320.848C93.6295 320.71 95.0361 322.219 95.2052 324.218C95.2943 325.286 95.0138 326.328 94.4307 327.075C94.0702 327.538 93.6117 327.859 93.1131 328.006C92.9707 328.05 92.8238 328.077 92.6724 328.09ZM90.4334 321.979C89.877 322.691 89.61 323.684 89.6946 324.707C89.8548 326.604 91.1813 328.041 92.6591 327.912C93.2822 327.859 93.8698 327.521 94.3061 326.96C94.8625 326.247 95.1296 325.255 95.045 324.231C94.8847 322.335 93.5583 320.897 92.0804 321.026C91.9425 321.039 91.8044 321.066 91.6709 321.102C91.2035 321.244 90.7762 321.547 90.4334 321.979Z" fill="#364154"/>
<path d="M97.1459 323.884C97.1726 323.875 97.1949 323.857 97.2038 323.826C97.2216 323.781 97.1994 323.728 97.1549 323.71C97.1103 323.692 96.0821 323.301 94.6354 323.991C94.5954 324.013 94.5731 324.062 94.5909 324.111C94.6087 324.155 94.6577 324.178 94.7022 324.155C96.0821 323.497 97.0836 323.875 97.0925 323.879C97.1103 323.888 97.1281 323.888 97.1459 323.884Z" fill="#364154"/>
<path d="M98.1252 327.739C98.1252 327.739 95.8506 328.473 93.3401 328.282C93.3401 328.282 93.7674 330.766 96.2913 330.196C97.7557 329.866 98.1252 327.739 98.1252 327.739Z" fill="#E9633E"/>
<path d="M98.1252 327.739C98.1252 327.739 97.6979 328.397 96.4026 328.771C95.1072 329.145 93.3401 328.282 93.3401 328.282C93.3401 328.282 96.3091 328.282 98.1252 327.739Z" fill="#F3F3F3"/>
<path d="M93.6295 322.967C93.6695 322.94 93.7007 322.896 93.7052 322.838C93.7141 322.744 93.6517 322.66 93.5672 322.651C93.5182 322.646 92.3475 322.379 91.7154 323.706C91.6754 323.79 91.7021 323.893 91.7822 323.937C91.8579 323.982 91.938 323.937 91.9959 323.866C92.5656 323.154 93.4915 322.98 93.536 322.989C93.5672 322.994 93.5983 322.985 93.6295 322.967Z" fill="#080435"/>
<path d="M92.8817 325.126C92.9707 325.522 93.2556 325.785 93.5227 325.718C93.7898 325.651 93.9322 325.273 93.8432 324.876C93.7542 324.48 93.4693 324.218 93.2022 324.284C92.9352 324.356 92.7927 324.73 92.8817 325.126Z" fill="#080435"/>
<path d="M99.287 322.215C99.3359 322.206 99.3804 322.179 99.4027 322.13C99.4428 322.05 99.4161 321.943 99.3404 321.899C99.2959 321.872 98.3077 321.146 97.2528 322.117C97.186 322.179 97.1771 322.286 97.2305 322.357C97.2839 322.428 97.3729 322.424 97.4531 322.379C98.232 321.952 99.149 322.175 99.1846 322.197C99.2202 322.215 99.2558 322.219 99.287 322.215Z" fill="#080435"/>
<path d="M97.8313 323.906C97.7735 324.307 97.9471 324.667 98.2142 324.716C98.4857 324.761 98.7528 324.471 98.8106 324.071C98.8685 323.67 98.6949 323.31 98.4278 323.261C98.1563 323.216 97.8892 323.505 97.8313 323.906Z" fill="#080435"/>
<path d="M117.497 481.659L117.061 481.614C116.723 481.579 116.469 480.978 116.496 480.27L119.87 390.777L126.279 387.359L118.512 479.856C118.45 480.915 118.005 481.712 117.497 481.659Z" fill="#131F2D"/>
<path d="M215.055 481.659L215.492 481.614C215.83 481.579 216.084 480.978 216.057 480.27L212.683 390.777L206.273 387.359L214.04 479.856C214.103 480.915 214.548 481.712 215.055 481.659Z" fill="#131F2D"/>
<path d="M163.657 403.121C195.824 403.121 221.901 399.488 221.901 395.006C221.901 390.524 195.824 386.891 163.657 386.891C131.489 386.891 105.412 390.524 105.412 395.006C105.412 399.488 131.489 403.121 163.657 403.121Z" fill="#B8C1C9"/>
<path d="M221.897 391.267H105.412V395.01H221.897V391.267Z" fill="#B8C1C9"/>
<path d="M163.657 399.382C195.824 399.382 221.901 395.749 221.901 391.267C221.901 386.785 195.824 383.152 163.657 383.152C131.489 383.152 105.412 386.785 105.412 391.267C105.412 395.749 131.489 399.382 163.657 399.382Z" fill="#E1E1E1"/>
<path d="M205.361 397.143C205.258 397.143 205.165 397.067 205.151 396.96C205.134 396.844 205.214 396.733 205.334 396.72C210.212 396.021 214.107 395.22 216.912 394.334C217.023 394.298 217.143 394.361 217.179 394.472C217.214 394.583 217.152 394.703 217.041 394.739C214.214 395.634 210.297 396.439 205.392 397.143C205.378 397.143 205.369 397.143 205.361 397.143Z" fill="#131F2D"/>
<path d="M115.289 396.003C115.276 396.003 115.258 396.003 115.245 395.999C115.009 395.945 109.489 394.735 107.326 393.577C107.224 393.524 107.184 393.39 107.237 393.288C107.295 393.186 107.424 393.145 107.526 393.199C109.641 394.325 115.281 395.567 115.334 395.58C115.45 395.607 115.521 395.718 115.499 395.834C115.476 395.932 115.387 396.003 115.289 396.003Z" fill="#131F2D"/>
<path d="M112.485 382.787C112.485 382.787 119.482 379.952 121.802 380.976C124.121 381.999 126.36 385.195 124.797 384.888C123.235 384.581 121.339 383.593 121.339 383.593C121.339 383.593 125.296 385.903 124.392 386.669C123.489 387.434 120.066 385.387 120.066 385.387C120.066 385.387 124.57 388.543 123.502 388.966C122.434 389.389 119.028 386.967 119.028 386.967C119.028 386.967 123.11 390.083 121.859 390.541C120.609 391 118.503 387.942 117.6 388.707C116.696 389.469 114.466 392.861 112.191 390.417L112.485 382.787Z" fill="#FF7955"/>
<path d="M83.7655 383.17C91.6976 390.653 99.4963 392.104 112.182 390.417L112.485 382.787C103.249 384.016 96.7899 378.71 91.4706 373.698C83.9079 366.562 81.6868 355.51 81.0547 350.511C80.9968 350.035 80.6986 349.639 80.2802 349.474C78.8958 348.927 75.455 348.032 70.247 349.661C69.7841 349.808 69.4725 350.275 69.4948 350.796C69.8865 360.304 73.7724 373.747 83.7655 383.17Z" fill="#FF7955"/>
<g opacity="0.3">
<path opacity="0.3" d="M85.3324 380.477C85.279 380.477 85.23 380.477 85.1766 380.473C84.4733 380.415 83.73 379.97 83.1914 379.284C82.2611 378.1 82.1675 376.529 82.9821 375.777C83.3071 375.478 83.7299 375.34 84.2107 375.38C84.914 375.438 85.6574 375.883 86.196 376.569C87.1263 377.753 87.2197 379.324 86.4052 380.076C86.1158 380.339 85.7464 380.477 85.3324 380.477ZM84.0549 375.826C83.7522 375.826 83.4896 375.924 83.2848 376.11C82.6394 376.702 82.7551 378.002 83.543 379.004C84.0059 379.596 84.6291 379.974 85.2077 380.023C85.5549 380.054 85.8621 379.956 86.0935 379.743C86.739 379.151 86.6233 377.851 85.8354 376.849C85.3725 376.257 84.7493 375.879 84.1662 375.83C84.1306 375.826 84.0949 375.826 84.0549 375.826Z" fill="#EC865C"/>
</g>
<path d="M126.07 391.752H149.845C150.343 391.752 150.784 391.409 150.939 390.906L155.88 375.024C156.13 374.223 155.573 373.4 154.785 373.4H131.924C130.882 373.4 129.956 374.112 129.627 375.171L124.975 390.132C124.726 390.929 125.282 391.752 126.07 391.752Z" fill="#131F2D"/>
<path d="M127.566 391.752H151.34C151.839 391.752 152.279 391.409 152.435 390.906L157.376 375.024C157.625 374.223 157.069 373.4 156.281 373.4H133.419C132.378 373.4 131.452 374.112 131.122 375.171L126.471 390.132C126.217 390.929 126.774 391.752 127.566 391.752Z" fill="#131F2D"/>
<path d="M144.222 382.057C144.222 381.456 143.577 381.207 143.012 381.207C142.446 381.207 141.525 381.87 141.534 382.716C141.538 383.629 142.202 383.749 142.767 383.749C143.328 383.744 144.222 382.823 144.222 382.057Z" fill="#DAEBE8"/>
<path d="M118.93 389.509H151.349V391.752H118.2C117.782 391.752 117.444 391.414 117.444 390.995C117.444 390.176 118.107 389.509 118.93 389.509Z" fill="#131F2D"/>
<path d="M129.257 381.425L129.102 381.385C129.151 381.189 130.286 376.609 131.047 375.127C131.821 373.622 132.774 373.328 132.814 373.315L132.858 373.466C132.85 373.471 131.933 373.76 131.189 375.198C130.437 376.671 129.271 381.381 129.257 381.425Z" fill="#F3F3F3"/>
<path d="M125.741 389.589V389.429C126.515 389.429 126.711 389.081 126.711 389.077L128.558 383.135L128.71 383.184L126.858 389.139C126.845 389.17 126.627 389.589 125.741 389.589Z" fill="#F3F3F3"/>
<g opacity="0.4">
<path opacity="0.4" d="M522.606 97.5597C522.606 97.5597 516.303 84.5041 500.35 86.1422C484.397 87.7758 486.297 100.862 478.699 99.6339C471.101 98.4054 460.467 99.6339 458.188 107.811C455.909 115.988 445.653 111.492 445.274 118.441C444.896 125.393 457.048 130.299 471.101 124.165C485.153 118.031 491.99 128.928 511.741 126.956C531.491 124.984 533.939 122.527 545.628 123.755C557.317 124.984 557.041 116.366 551.722 110.642C546.407 104.918 524.885 105.465 522.606 97.5597Z" fill="#EAEAEA"/>
</g>
<path d="M93.9544 172.488C93.9544 172.488 97.7824 164.56 107.468 165.553C117.154 166.545 116.001 174.491 120.613 173.747C125.224 173.004 131.683 173.747 133.068 178.715C134.452 183.683 140.679 180.95 140.906 185.169C141.138 189.389 133.758 192.371 125.224 188.646C116.691 184.92 112.543 191.539 100.551 190.342C88.5595 189.144 87.0727 187.653 79.9774 188.397C72.8776 189.14 73.0468 183.91 76.2784 180.433C79.5011 176.957 92.57 177.286 93.9544 172.488Z" fill="#EAEAEA"/>
<path d="M576.377 144.44C576.377 144.44 572.678 136.78 563.313 137.737C553.947 138.698 555.065 146.377 550.605 145.66C546.144 144.939 539.904 145.66 538.564 150.458C537.224 155.257 531.206 152.617 530.983 156.699C530.761 160.781 537.896 163.661 546.144 160.06C554.393 156.459 558.407 162.855 569.999 161.698C581.59 160.54 583.027 159.098 589.891 159.819C596.755 160.54 596.59 155.479 593.47 152.119C590.35 148.758 577.713 149.083 576.377 144.44Z" fill="#EAEAEA"/>
<path d="M99.5092 24L319 99.5L316.499 111L82 108.5L99.5092 24Z" fill="url(#paint0_linear)"/>
<circle cx="61" cy="61" r="57.5" fill="#F8F9FD" stroke="#00A3FE" stroke-width="7"/>
<path d="M95 81.755C95 83.8488 79.5574 85.5494 60.5 85.5494C41.4425 85.5494 26 83.8488 26 81.755C26 79.6613 41.4425 77.9606 60.5 77.9606C79.5489 77.9606 95 79.6613 95 81.755Z" fill="#456BA3"/>
<path d="M86.8045 56.2026H31.478V80.3962H86.8045V56.2026Z" fill="#ECC51B"/>
<path d="M86.8045 56.2026H31.478V61.2277H86.8045V56.2026Z" fill="#ECC51B"/>
<path d="M91.6158 58.6211H26L31.8882 36H85.7276L91.6158 58.6211Z" fill="#213653"/>
<path d="M69.7381 51.8698L58.8078 44.375L47.8776 51.8698V82.6352H69.7381V51.8698Z" fill="#EECB3B"/>
<path d="M63.2177 69.3548H55.1844V81.7465H63.2177V69.3548Z" fill="white"/>
<path d="M62.3545 70.1325H56.0562V81.7379H62.3545V70.1325Z" fill="#2F4B74"/>
<path d="M57.9534 76.4993C57.9534 76.8069 57.7056 77.0633 57.3894 77.0633C57.0817 77.0633 56.8253 76.8155 56.8253 76.4993C56.8253 76.1916 57.0732 75.9352 57.3894 75.9352C57.7056 75.9352 57.9534 76.1916 57.9534 76.4993Z" fill="white"/>
<path d="M63.6876 50.9041H54.6033V59.9885H63.6876V50.9041Z" fill="white"/>
<path d="M63.004 51.5878H55.287V59.3048H63.004V51.5878Z" fill="#70B6E0"/>
<path d="M59.8761 50.9042H58.5173V59.9885H59.8761V50.9042Z" fill="white"/>
<path d="M45.5361 65.3212H34.7853V72.8501H45.5361V65.3212Z" fill="white"/>
<path d="M44.7327 65.8937H35.597V72.2861H44.7327V65.8937Z" fill="#70B6E0"/>
<path d="M40.776 65.3212H39.6907V72.8501H40.776V65.3212Z" fill="white"/>
<path d="M83.7706 65.3212H73.0198V72.8501H83.7706V65.3212Z" fill="white"/>
<path d="M82.9587 65.8937H73.8231V72.2861H82.9587V65.8937Z" fill="#70B6E0"/>
<path d="M79.002 65.3212H77.9166V72.8501H79.002V65.3212Z" fill="white"/>
<path d="M64.9012 81.2337H53.4325V82.6353H64.9012V81.2337Z" fill="white"/>
<path d="M69.7381 54.7071V51.8698L58.8078 44.375L47.8776 51.8698V55.348L59.2608 47.4003L69.7381 54.7071Z" fill="#ECC51B"/>
<path d="M44.8011 53.0577L59.1925 43.1871L73.5839 53.0577" stroke="#2F4B74" stroke-width="3.7269" stroke-miterlimit="10"/>
<path d="M46.0744 75.6361C45.0831 75.6361 44.2712 76.3882 44.2712 77.3197C44.2712 77.3795 44.2798 77.4479 44.2798 77.5077C44.1345 77.4649 43.9721 77.4393 43.8098 77.4393C42.921 77.4393 42.2031 78.1144 42.2031 78.9434C42.2031 79.4049 42.4253 79.8065 42.7671 80.0885C42.7159 80.08 42.6731 80.08 42.6219 80.08C41.8698 80.08 41.2631 80.6526 41.2631 81.3534C41.2631 82.0541 41.8698 82.6267 42.6219 82.6267H47.8691V77.3111C47.8776 76.3881 47.0743 75.6361 46.0744 75.6361Z" fill="#31985B"/>
<path d="M71.5414 75.6361C72.5328 75.6361 73.3446 76.3882 73.3446 77.3197C73.3446 77.3795 73.3361 77.4479 73.3361 77.5077C73.4814 77.4649 73.6437 77.4393 73.8061 77.4393C74.6949 77.4393 75.4127 78.1144 75.4127 78.9434C75.4127 79.4049 75.1905 79.8065 74.8487 80.0885C74.9 80.08 74.9427 80.08 74.994 80.08C75.746 80.08 76.3528 80.6526 76.3528 81.3534C76.3528 82.0541 75.746 82.6267 74.994 82.6267H69.7468V77.3111C69.7382 76.3881 70.5416 75.6361 71.5414 75.6361Z" fill="#31985B"/>
<defs>
<linearGradient id="paint0_linear" x1="93.8813" y1="68" x2="315.103" y2="121.648" gradientUnits="userSpaceOnUse">
<stop stop-color="#00A3FE"/>
<stop offset="1" stop-color="#386EE1" stop-opacity="0.32"/>
</linearGradient>
</defs>
</svg>
