<svg width="619" height="180" viewBox="0 0 619 180" fill="none" xmlns="http://www.w3.org/2000/svg">
<path d="M35.136 38.864C39.552 41.408 41.76 45.248 41.76 50.384C41.76 54.656 40.248 58.16 37.224 60.896C34.2 63.632 30.48 65 26.064 65H4.68V14.6H24.552C28.824 14.6 32.448 15.944 35.424 18.632C38.4 21.32 39.888 24.704 39.888 28.784C39.888 32.96 38.304 36.32 35.136 38.864ZM24.552 23.888H14.616V34.976H24.552C26.088 34.976 27.36 34.448 28.368 33.392C29.424 32.336 29.952 31.016 29.952 29.432C29.952 27.848 29.448 26.528 28.44 25.472C27.432 24.416 26.136 23.888 24.552 23.888ZM14.616 55.712H26.064C27.744 55.712 29.136 55.16 30.24 54.056C31.344 52.904 31.896 51.464 31.896 49.736C31.896 48.056 31.344 46.664 30.24 45.56C29.136 44.408 27.744 43.832 26.064 43.832H14.616V55.712ZM52.4498 24.68C50.9138 24.68 49.5698 24.128 48.4178 23.024C47.3138 21.872 46.7618 20.528 46.7618 18.992C46.7618 17.456 47.3138 16.112 48.4178 14.96C49.5698 13.808 50.9138 13.232 52.4498 13.232C54.0338 13.232 55.3778 13.808 56.4818 14.96C57.6338 16.112 58.2098 17.456 58.2098 18.992C58.2098 20.528 57.6338 21.872 56.4818 23.024C55.3778 24.128 54.0338 24.68 52.4498 24.68ZM57.1298 65H47.8418V29H57.1298V65ZM92.1988 35.192L76.9348 56.288H92.9188V65H64.4788V58.808L79.6708 37.712H65.1988V29H92.1988V35.192ZM138.684 27.992C143.532 27.992 147.66 29.84 151.068 33.536C154.524 37.232 156.252 41.72 156.252 47C156.252 52.376 154.524 56.888 151.068 60.536C147.708 64.184 143.58 66.008 138.684 66.008C133.644 66.008 129.756 64.256 127.02 60.752V65H117.732V14.6H127.02V33.248C129.756 29.744 133.644 27.992 138.684 27.992ZM129.828 54.344C131.7 56.216 134.076 57.152 136.956 57.152C139.836 57.152 142.212 56.216 144.084 54.344C146.004 52.424 146.964 49.976 146.964 47C146.964 44.024 146.004 41.6 144.084 39.728C142.212 37.808 139.836 36.848 136.956 36.848C134.076 36.848 131.7 37.808 129.828 39.728C127.956 41.6 127.02 44.024 127.02 47C127.02 49.976 127.956 52.424 129.828 54.344ZM167.411 24.68C165.875 24.68 164.531 24.128 163.379 23.024C162.275 21.872 161.723 20.528 161.723 18.992C161.723 17.456 162.275 16.112 163.379 14.96C164.531 13.808 165.875 13.232 167.411 13.232C168.995 13.232 170.339 13.808 171.443 14.96C172.595 16.112 173.171 17.456 173.171 18.992C173.171 20.528 172.595 21.872 171.443 23.024C170.339 24.128 168.995 24.68 167.411 24.68ZM172.091 65H162.803V29H172.091V65ZM189.88 65H180.592V12.44H189.88V65ZM225.741 33.248V29H235.029V65H225.741V60.752C222.957 64.256 219.045 66.008 214.005 66.008C209.205 66.008 205.077 64.184 201.621 60.536C198.213 56.84 196.509 52.328 196.509 47C196.509 41.72 198.213 37.232 201.621 33.536C205.077 29.84 209.205 27.992 214.005 27.992C219.045 27.992 222.957 29.744 225.741 33.248ZM208.605 54.344C210.477 56.216 212.853 57.152 215.733 57.152C218.613 57.152 220.989 56.216 222.861 54.344C224.781 52.424 225.741 49.976 225.741 47C225.741 44.024 224.781 41.6 222.861 39.728C220.989 37.808 218.613 36.848 215.733 36.848C212.853 36.848 210.477 37.808 208.605 39.728C206.733 41.6 205.797 44.024 205.797 47C205.797 49.976 206.733 52.424 208.605 54.344ZM263.467 27.992C267.451 27.992 270.691 29.312 273.187 31.952C275.779 34.64 277.075 38.288 277.075 42.896V65H267.787V44.048C267.787 41.696 267.139 39.872 265.843 38.576C264.595 37.28 262.867 36.632 260.659 36.632C258.211 36.632 256.267 37.4 254.827 38.936C253.435 40.424 252.739 42.632 252.739 45.56V65H243.451V29H252.739V33.032C254.947 29.672 258.523 27.992 263.467 27.992ZM24.84 119V127.928H16.704V142.904C16.704 144.152 17.016 145.064 17.64 145.64C18.264 146.216 19.176 146.552 20.376 146.648C21.576 146.696 23.064 146.672 24.84 146.576V155C18.552 155.72 14.064 155.144 11.376 153.272C8.736 151.352 7.416 147.896 7.416 142.904V127.928H1.152V119H7.416V111.728L16.704 108.92V119H24.84ZM60.9356 150.536C57.2876 154.184 52.7756 156.008 47.3996 156.008C42.0236 156.008 37.5116 154.184 33.8636 150.536C30.2156 146.888 28.3916 142.376 28.3916 137C28.3916 131.672 30.2156 127.184 33.8636 123.536C37.5596 119.84 42.0716 117.992 47.3996 117.992C52.7276 117.992 57.2396 119.84 60.9356 123.536C64.6316 127.232 66.4796 131.72 66.4796 137C66.4796 142.328 64.6316 146.84 60.9356 150.536ZM40.4156 144.128C42.2876 146 44.6156 146.936 47.3996 146.936C50.1836 146.936 52.5116 146 54.3836 144.128C56.2556 142.256 57.1916 139.88 57.1916 137C57.1916 134.12 56.2556 131.744 54.3836 129.872C52.5116 128 50.1836 127.064 47.3996 127.064C44.6156 127.064 42.2876 128 40.4156 129.872C38.5916 131.792 37.6796 134.168 37.6796 137C37.6796 139.832 38.5916 142.208 40.4156 144.128ZM93.9656 117.992C98.8136 117.992 102.942 119.84 106.35 123.536C109.806 127.232 111.534 131.72 111.534 137C111.534 142.376 109.806 146.888 106.35 150.536C102.99 154.184 98.8616 156.008 93.9656 156.008C88.9256 156.008 85.0376 154.256 82.3016 150.752V169.4H73.0136V119H82.3016V123.248C85.0376 119.744 88.9256 117.992 93.9656 117.992ZM85.1096 144.344C86.9816 146.216 89.3576 147.152 92.2376 147.152C95.1176 147.152 97.4936 146.216 99.3656 144.344C101.286 142.424 102.246 139.976 102.246 137C102.246 134.024 101.286 131.6 99.3656 129.728C97.4936 127.808 95.1176 126.848 92.2376 126.848C89.3576 126.848 86.9816 127.808 85.1096 129.728C83.2376 131.6 82.3016 134.024 82.3016 137C82.3016 139.976 83.2376 142.424 85.1096 144.344ZM122.692 114.68C121.156 114.68 119.812 114.128 118.66 113.024C117.556 111.872 117.004 110.528 117.004 108.992C117.004 107.456 117.556 106.112 118.66 104.96C119.812 103.808 121.156 103.232 122.692 103.232C124.276 103.232 125.62 103.808 126.724 104.96C127.876 106.112 128.452 107.456 128.452 108.992C128.452 110.528 127.876 111.872 126.724 113.024C125.62 114.128 124.276 114.68 122.692 114.68ZM127.372 155H118.084V119H127.372V155ZM155.889 117.992C159.873 117.992 163.113 119.312 165.609 121.952C168.201 124.64 169.497 128.288 169.497 132.896V155H160.209V134.048C160.209 131.696 159.561 129.872 158.265 128.576C157.017 127.28 155.289 126.632 153.081 126.632C150.633 126.632 148.689 127.4 147.249 128.936C145.857 130.424 145.161 132.632 145.161 135.56V155H135.873V119H145.161V123.032C147.369 119.672 150.945 117.992 155.889 117.992ZM205.004 123.464V119H214.076V153.272C214.076 158.792 212.228 163.04 208.532 166.016C204.884 168.944 200.468 170.408 195.284 170.408C187.124 170.408 181.436 167.48 178.22 161.624L186.14 157.088C187.916 160.448 191.06 162.128 195.572 162.128C198.5 162.128 200.804 161.36 202.484 159.824C204.164 158.288 205.004 156.104 205.004 153.272V149.384C202.268 153.032 198.428 154.856 193.484 154.856C188.396 154.856 184.124 153.08 180.668 149.528C177.26 145.88 175.556 141.512 175.556 136.424C175.556 131.336 177.284 126.992 180.74 123.392C184.196 119.792 188.444 117.992 193.484 117.992C198.428 117.992 202.268 119.816 205.004 123.464ZM202.124 143.552C204.044 141.68 205.004 139.304 205.004 136.424C205.004 133.544 204.044 131.216 202.124 129.44C200.252 127.568 197.852 126.632 194.924 126.632C192.044 126.632 189.62 127.568 187.652 129.44C185.78 131.216 184.844 133.544 184.844 136.424C184.844 139.304 185.78 141.68 187.652 143.552C189.572 145.376 191.996 146.288 194.924 146.288C197.852 146.288 200.252 145.376 202.124 143.552ZM231.57 138.08H224.226L222.282 119V104.6H233.442V119L231.57 138.08ZM234.018 149.816C234.018 151.496 233.418 152.936 232.218 154.136C231.018 155.336 229.578 155.936 227.898 155.936C226.218 155.936 224.778 155.336 223.578 154.136C222.378 152.936 221.778 151.496 221.778 149.816C221.778 148.136 222.378 146.696 223.578 145.496C224.778 144.296 226.218 143.696 227.898 143.696C229.578 143.696 231.018 144.296 232.218 145.496C233.418 146.696 234.018 148.136 234.018 149.816Z" fill="#011F3B"/>
<path d="M333.678 60.536C330.03 64.184 325.518 66.008 320.142 66.008C314.766 66.008 310.254 64.184 306.606 60.536C302.958 56.888 301.134 52.376 301.134 47C301.134 41.672 302.958 37.184 306.606 33.536C310.302 29.84 314.814 27.992 320.142 27.992C325.47 27.992 329.982 29.84 333.678 33.536C337.374 37.232 339.222 41.72 339.222 47C339.222 52.328 337.374 56.84 333.678 60.536ZM313.158 54.128C315.03 56 317.358 56.936 320.142 56.936C322.926 56.936 325.254 56 327.126 54.128C328.998 52.256 329.934 49.88 329.934 47C329.934 44.12 328.998 41.744 327.126 39.872C325.254 38 322.926 37.064 320.142 37.064C317.358 37.064 315.03 38 313.158 39.872C311.334 41.792 310.422 44.168 310.422 47C310.422 49.832 311.334 52.208 313.158 54.128ZM353.55 39.224C353.55 40.76 355.734 42.08 360.102 43.184C361.638 43.52 363.03 43.928 364.278 44.408C365.526 44.84 366.774 45.488 368.022 46.352C369.318 47.168 370.326 48.272 371.046 49.664C371.766 51.056 372.126 52.664 372.126 54.488C372.126 58.184 370.734 61.04 367.95 63.056C365.166 65.024 361.734 66.008 357.654 66.008C350.262 66.008 345.222 63.152 342.534 57.44L350.598 52.904C351.702 56.024 354.054 57.584 357.654 57.584C360.966 57.584 362.622 56.552 362.622 54.488C362.622 52.952 360.438 51.632 356.07 50.528C354.438 50.096 353.046 49.664 351.894 49.232C350.742 48.8 349.494 48.176 348.15 47.36C346.806 46.496 345.774 45.416 345.054 44.12C344.382 42.776 344.046 41.216 344.046 39.44C344.046 35.888 345.342 33.104 347.934 31.088C350.574 29.024 353.838 27.992 357.726 27.992C360.654 27.992 363.318 28.664 365.718 30.008C368.118 31.304 370.014 33.176 371.406 35.624L363.486 39.944C362.334 37.496 360.414 36.272 357.726 36.272C356.526 36.272 355.518 36.56 354.702 37.136C353.934 37.664 353.55 38.36 353.55 39.224ZM408.279 60.536C404.631 64.184 400.119 66.008 394.743 66.008C389.367 66.008 384.855 64.184 381.207 60.536C377.559 56.888 375.735 52.376 375.735 47C375.735 41.672 377.559 37.184 381.207 33.536C384.903 29.84 389.415 27.992 394.743 27.992C400.071 27.992 404.583 29.84 408.279 33.536C411.975 37.232 413.823 41.72 413.823 47C413.823 52.328 411.975 56.84 408.279 60.536ZM387.759 54.128C389.631 56 391.959 56.936 394.743 56.936C397.527 56.936 399.855 56 401.727 54.128C403.599 52.256 404.535 49.88 404.535 47C404.535 44.12 403.599 41.744 401.727 39.872C399.855 38 397.527 37.064 394.743 37.064C391.959 37.064 389.631 38 387.759 39.872C385.935 41.792 385.023 44.168 385.023 47C385.023 49.832 385.935 52.208 387.759 54.128ZM440.373 27.992C444.357 27.992 447.597 29.312 450.093 31.952C452.685 34.64 453.981 38.288 453.981 42.896V65H444.693V44.048C444.693 41.696 444.045 39.872 442.749 38.576C441.501 37.28 439.773 36.632 437.565 36.632C435.117 36.632 433.173 37.4 431.733 38.936C430.341 40.424 429.645 42.632 429.645 45.56V65H420.357V29H429.645V33.032C431.853 29.672 435.429 27.992 440.373 27.992ZM503.672 48.44V29H512.96V65H503.672V60.968C501.464 64.328 497.888 66.008 492.944 66.008C489.008 66.008 485.744 64.688 483.152 62.048C480.608 59.36 479.336 55.712 479.336 51.104V29H488.624V49.952C488.624 52.304 489.248 54.128 490.496 55.424C491.792 56.72 493.544 57.368 495.752 57.368C498.2 57.368 500.12 56.624 501.512 55.136C502.952 53.6 503.672 51.368 503.672 48.44ZM536.947 53.192L544.939 29H554.875L541.771 65C539.899 70.184 537.403 73.928 534.283 76.232C531.211 78.584 527.371 79.64 522.763 79.4V70.76C525.211 70.808 527.179 70.28 528.667 69.176C530.155 68.072 531.331 66.296 532.195 63.848L517.435 29H527.587L536.947 53.192Z" fill="#FB6504"/>
<path d="M554.903 81.3091C461.5 117 400.5 115 305.003 96" stroke="#FB6504" stroke-width="3" stroke-linecap="round"/>
</svg>
