<svg width="172" height="70" viewBox="0 0 172 70" fill="none" xmlns="http://www.w3.org/2000/svg">
<path d="M13.3832 49.4766L16.1941 48.575L21.3252 64.5723L18.6971 65.4152L15.0394 54.0115L12.7519 63.6171L12.4319 63.7198L4.97664 57.2139L8.6417 68.6405L6.01358 69.4835L0.882496 53.4862L3.71629 52.5773L11.1039 59.0292L13.3832 49.4766ZM30.2601 50.8938L29.7397 49.2712L32.2079 48.4795L35.8729 59.9061L33.4048 60.6978L32.877 59.0524C32.363 60.6455 31.2376 61.7206 29.5007 62.2777C27.9315 62.781 26.4051 62.6321 24.9215 61.8309C23.4379 61.0297 22.4249 59.7836 21.8825 58.0925C21.34 56.4013 21.4392 54.7984 22.18 53.2838C22.9208 51.7692 24.0758 50.7602 25.6451 50.2569C27.3819 49.6998 28.9203 49.9121 30.2601 50.8938ZM26.222 59.5991C27.1275 60.0648 28.0982 60.1315 29.1342 59.7992C30.1703 59.4669 30.9211 58.848 31.3868 57.9425C31.8476 57.0217 31.9094 56.0357 31.5722 54.9845C31.235 53.9332 30.6137 53.1748 29.7082 52.7091C28.7978 52.2281 27.8246 52.1538 26.7886 52.4861C25.7526 52.8184 25.0042 53.4449 24.5434 54.3657C24.0777 55.2712 24.0134 56.2496 24.3506 57.3008C24.6829 58.3368 25.3067 59.1029 26.222 59.5991ZM41.7711 51.5872L48.8509 55.7435L45.9028 56.6891L39.5246 52.9127L41.2179 58.1917L38.7497 58.9834L33.6187 42.9861L36.0868 42.1945L39.1728 51.8157L41.9863 45.3431L45.003 44.3755L41.7711 51.5872ZM52.9793 54.4193L50.5111 55.211L45.1601 38.5281L47.6283 37.7365L52.9793 54.4193ZM65.3878 45.2976L56.2922 48.215C56.7487 49.0096 57.3726 49.5404 58.164 49.8074C58.9706 50.0696 59.8538 50.0467 60.8137 49.7389C62.1087 49.3235 62.9399 48.536 63.3073 47.3764L65.7224 47.9124C65.1428 49.9298 63.7409 51.2952 61.5165 52.0087C59.673 52.6 57.9915 52.5176 56.472 51.7616C54.9628 50.9854 53.9297 49.7289 53.3726 47.9921C52.8302 46.3009 52.937 44.6956 53.693 43.1761C54.4338 41.6615 55.6955 40.6183 57.478 40.0465C59.1387 39.5139 60.698 39.6606 62.156 40.4868C63.614 41.313 64.6118 42.564 65.1493 44.2399C65.2471 44.5446 65.3265 44.8972 65.3878 45.2976ZM55.6243 46.2113L62.3431 44.0562C61.8872 43.2111 61.284 42.64 60.5334 42.3431C59.7981 42.0412 59.0115 42.0247 58.1735 42.2935C57.2594 42.5867 56.5782 43.0824 56.1301 43.7806C55.6819 44.4789 55.5133 45.2891 55.6243 46.2113ZM67.9494 37.0155L68.5651 38.9352C68.7353 37.3179 69.6812 36.2332 71.4028 35.681L72.2604 38.3548C71.3115 38.592 70.5621 39.0844 70.0122 39.8321C69.4726 40.5596 69.391 41.51 69.7673 42.6831L71.6144 48.4421L69.1463 49.2338L65.4812 37.8072L67.9494 37.0155ZM85.6922 37.4996L92.7719 41.6559L89.8238 42.6015L83.4456 38.8251L85.1389 44.1042L82.6708 44.8958L77.5397 28.8986L80.0078 28.1069L83.0938 37.7281L85.9074 31.2555L88.924 30.2879L85.6922 37.4996ZM103.06 33.2144L93.9643 36.1318C94.4208 36.9263 95.0447 37.4571 95.8361 37.7242C96.6427 37.9863 97.5259 37.9635 98.4858 37.6556C99.7808 37.2402 100.612 36.4528 100.979 35.2931L103.394 35.8291C102.815 37.8465 101.413 39.212 99.1886 39.9254C97.3451 40.5167 95.6636 40.4343 94.1441 39.6783C92.6349 38.9022 91.6018 37.6457 91.0447 35.9088C90.5023 34.2177 90.6091 32.6124 91.3651 31.0928C92.1059 29.5782 93.3676 28.535 95.1501 27.9633C96.8108 27.4306 98.3701 27.5774 99.8281 28.4035C101.286 29.2297 102.284 30.4808 102.821 32.1567C102.919 32.4614 102.999 32.8139 103.06 33.2144ZM93.2964 34.128L100.015 31.973C99.5593 31.1278 98.9561 30.5568 98.2055 30.2598C97.4702 29.958 96.6836 29.9414 95.8456 30.2102C94.9315 30.5034 94.2503 30.9991 93.8022 31.6974C93.354 32.3956 93.1854 33.2058 93.2964 34.128ZM105.621 24.9323L106.237 26.8519C106.407 25.2347 107.353 24.1499 109.075 23.5977L109.933 26.2716C108.984 26.5087 108.234 27.0011 107.684 27.7488C107.145 28.4764 107.063 29.4267 107.439 30.5999L109.287 36.3589L106.818 37.1505L103.153 25.7239L105.621 24.9323ZM119.999 22.1101L119.479 20.4876L121.947 19.6959L125.612 31.1225L123.144 31.9142L122.616 30.2687C122.102 31.8619 120.977 32.937 119.24 33.494C117.671 33.9974 116.144 33.8485 114.661 33.0473C113.177 32.2461 112.164 31 111.622 29.3088C111.079 27.6177 111.178 26.0148 111.919 24.5002C112.66 22.9856 113.815 21.9766 115.384 21.4733C117.121 20.9162 118.659 21.1285 119.999 22.1101ZM115.961 30.8155C116.867 31.2811 117.837 31.3478 118.873 31.0155C119.909 30.6832 120.66 30.0643 121.126 29.1588C121.587 28.2381 121.648 27.2521 121.311 26.2009C120.974 25.1496 120.353 24.3912 119.447 23.9255C118.537 23.4445 117.564 23.3702 116.528 23.7025C115.492 24.0348 114.743 24.6613 114.282 25.5821C113.817 26.4876 113.752 27.4659 114.09 28.5172C114.422 29.5532 115.046 30.3193 115.961 30.8155ZM131.51 22.8036L138.59 26.9599L135.642 27.9055L129.264 24.129L130.957 29.4081L128.489 30.1998L123.358 14.2025L125.826 13.4109L128.912 23.0321L131.725 16.5595L134.742 15.5919L131.51 22.8036ZM148.968 10.7014C150.263 10.286 151.441 10.3703 152.502 10.9541C153.563 11.5379 154.32 12.5383 154.775 13.9552L157.047 21.0397L154.579 21.8314L152.358 14.9068C152.109 14.1298 151.715 13.5839 151.177 13.2692C150.64 12.9544 150.028 12.907 149.342 13.1269C148.565 13.3761 148.039 13.8306 147.763 14.4903C147.483 15.1348 147.501 15.9522 147.819 16.9425L149.871 23.3414L147.403 24.133L145.182 17.2085C144.928 16.4163 144.542 15.8679 144.024 15.5635C143.517 15.2389 142.921 15.1866 142.235 15.4065C141.473 15.6509 140.939 16.1078 140.633 16.7773C140.342 17.4419 140.353 18.2617 140.666 19.2368L142.718 25.6357L140.25 26.4274L136.585 15.0007L139.053 14.2091L139.493 15.5803C139.868 14.2335 140.779 13.328 142.226 12.8638C143.689 12.3947 144.963 12.6495 146.05 13.6283C146.411 12.1853 147.383 11.2096 148.968 10.7014ZM157.658 5.84712C157.451 6.24956 157.135 6.5192 156.708 6.65603C156.281 6.79286 155.859 6.76023 155.442 6.55814C155.034 6.33593 154.762 6.01153 154.625 5.58494C154.489 5.15834 154.524 4.74382 154.731 4.34138C154.933 3.9237 155.255 3.644 155.696 3.50229C156.138 3.36057 156.563 3.40082 156.97 3.62303C157.373 3.83 157.642 4.14679 157.779 4.57338C157.916 4.99997 157.876 5.42455 157.658 5.84712ZM162.157 19.4008L159.689 20.1925L156.024 8.76585L158.492 7.9742L162.157 19.4008ZM169.057 11.6425L166.429 12.4855C166.234 11.8761 166.188 11.2607 166.291 10.6395C166.389 10.0031 166.575 9.43091 166.849 8.92297C167.118 8.39979 167.395 7.89947 167.679 7.422C167.957 6.92929 168.166 6.42566 168.303 5.9111C168.44 5.39655 168.438 4.91836 168.296 4.47653C168.096 3.85187 167.719 3.4352 167.165 3.2265C166.61 3.0178 165.96 3.03317 165.213 3.27262C164.497 3.5023 163.939 3.88304 163.538 4.41484C163.138 4.94664 162.93 5.58437 162.917 6.32803L160.244 5.77394C160.313 4.57551 160.725 3.52772 161.479 2.63055C162.248 1.7285 163.242 1.08201 164.461 0.69107C165.832 0.251263 167.13 0.263488 168.354 0.727745C169.594 1.18712 170.433 2.1024 170.873 3.47359C171.074 4.09825 171.127 4.73641 171.034 5.38808C170.94 6.03976 170.759 6.62718 170.49 7.15036C170.221 7.67354 169.949 8.1891 169.675 8.69704C169.397 9.18975 169.188 9.69338 169.051 10.2079C168.914 10.7225 168.916 11.2007 169.057 11.6425ZM168.356 13.9343C168.828 13.7828 169.286 13.8209 169.728 14.0486C170.171 14.2762 170.468 14.6262 170.62 15.0985C170.771 15.5708 170.733 16.0283 170.505 16.471C170.278 16.9137 169.928 17.2108 169.455 17.3623C168.983 17.5138 168.526 17.4757 168.083 17.248C167.64 17.0203 167.343 16.6703 167.192 16.198C167.04 15.7257 167.071 15.2707 167.283 14.8329C167.511 14.3902 167.868 14.0907 168.356 13.9343Z" fill="url(#paint0_linear)"/>
<defs>
<linearGradient id="paint0_linear" x1="84.1757" y1="22.3593" x2="93.0329" y2="49.9736" gradientUnits="userSpaceOnUse">
<stop stop-color="#011F3B"/>
<stop offset="1" stop-color="#011F3B" stop-opacity="0"/>
</linearGradient>
</defs>
</svg>
