<svg width="23" height="23" viewBox="0 0 23 23" fill="none" xmlns="http://www.w3.org/2000/svg">
<path fill-rule="evenodd" clip-rule="evenodd" d="M11.9433 2.33331C12.9819 2.33331 18.4315 4.20423 19.1529 4.92565C19.7543 5.52698 19.7451 6.01281 19.7029 8.34115C19.6864 9.27431 19.6635 10.5457 19.6635 12.3057C19.6635 18.6142 12.4493 20.8711 12.1423 20.9636C12.0772 20.9838 12.0103 20.993 11.9433 20.993C11.8764 20.993 11.8095 20.9838 11.7444 20.9636C11.4373 20.8711 4.22317 18.6142 4.22317 12.3057C4.22317 10.5485 4.20026 9.27706 4.18376 8.3439C4.17623 7.92763 4.16975 7.57021 4.16762 7.26046L4.16736 6.91093C4.17522 5.76268 4.28299 5.37665 4.73467 4.92565C5.45426 4.20423 10.9038 2.33331 11.9433 2.33331ZM11.9433 3.70831C11.166 3.70831 6.26184 5.43531 5.69626 5.9074C5.52942 6.07515 5.52301 6.36665 5.55876 8.31823C5.57526 9.25873 5.59817 10.5366 5.59817 12.3057C5.59817 17.0733 10.8433 19.1899 11.9424 19.5795C13.0406 19.1881 18.2885 17.0596 18.2885 12.3057C18.2885 10.5347 18.3114 9.25598 18.3288 8.31548C18.3637 6.36573 18.3573 6.07423 18.1803 5.89823C17.6258 5.43531 12.7207 3.70831 11.9433 3.70831ZM15.3547 9.06119C15.6233 9.32977 15.6233 9.76519 15.3547 10.0338L11.7815 13.6079C11.6789 13.7113 11.5463 13.7783 11.404 13.801L11.2957 13.8095C11.1133 13.8095 10.9382 13.7371 10.809 13.6079L9.07463 11.8717C8.80697 11.6031 8.80697 11.1668 9.07555 10.8991C9.34322 10.6305 9.77955 10.6305 10.0481 10.8991L11.2957 12.1485L14.383 9.06119C14.6516 8.7926 15.0861 8.7926 15.3547 9.06119Z" fill="white"/>
</svg>
