<svg width="24" height="24" viewBox="0 0 24 24" fill="none" xmlns="http://www.w3.org/2000/svg">
<path fill-rule="evenodd" clip-rule="evenodd" d="M0 12C0 18.6274 5.37258 24 12 24C18.6274 24 24 18.6274 24 12C24 5.37258 18.6274 0 12 0C5.37258 0 0 5.37258 0 12ZM9.79997 17.5L10.0041 14.4411L10.004 14.441L15.5684 9.41951C15.8126 9.20277 15.5151 9.09708 15.1909 9.29367L8.32361 13.6262L5.35731 12.7003C4.71672 12.5042 4.71212 12.064 5.50113 11.7475L17.0601 7.29044C17.5881 7.05076 18.0976 7.41724 17.8961 8.22526L15.9276 17.5016C15.7901 18.1607 15.3918 18.3184 14.84 18.0139L11.8413 15.7985L10.4 17.2C10.3954 17.2044 10.3909 17.2088 10.3864 17.2132C10.2252 17.3702 10.0918 17.5 9.79997 17.5Z" fill="white"/>
</svg>
